<svg width="398" height="291" viewBox="0 0 398 291" fill="none" xmlns="http://www.w3.org/2000/svg">
<path d="M397.213 145.235H0.675232V289.759H397.213V145.235Z" fill="#040000"/>
<path d="M396.52 251.268C396.565 198.184 396.565 196.275 396.61 145.839C395.898 145.839 394.215 145.839 392.477 145.839C355.559 145.827 318.644 145.815 281.731 145.803C244.819 145.791 207.904 145.824 170.985 145.902C134.067 145.98 97.1485 145.992 60.2302 145.938C30.1331 145.893 16.5655 145.875 1.29643 145.857C1.27843 158.252 1.26042 171.8 1.23341 196.491C1.25142 242.828 1.26042 250.151 1.27843 289.165C2.61087 289.165 9.72325 289.165 18.1771 289.165C55.1134 289.165 92.0528 289.159 128.995 289.147C165.962 289.165 202.925 289.183 239.885 289.201C276.852 289.183 313.815 289.162 350.775 289.138C371.248 289.138 382.853 289.21 389.344 289.318C395.835 289.426 397.213 289.588 397.213 289.759C397.213 289.931 395.835 290.075 389.344 290.174C382.853 290.273 371.239 290.327 350.775 290.327C313.875 290.369 276.975 290.408 240.074 290.444C203.162 290.402 166.247 290.357 129.328 290.309L18.5822 290.282C11.6409 290.282 5.54586 290.282 0.144048 290.282C0.09003 251.746 0.0810271 245.782 0 196.842C0.027009 171.16 0.0360131 157.234 0.0450161 144.587C15.6202 144.605 29.5119 144.614 59.861 144.65C96.7674 144.65 133.674 144.653 170.58 144.659C207.516 144.659 244.456 144.653 281.398 144.641C318.359 144.605 355.322 144.572 392.288 144.542C395.088 144.542 397.762 144.542 397.888 144.542C397.906 195.527 397.906 197.896 397.915 251.241C397.915 271.725 397.825 281.337 397.69 285.832C397.555 290.327 397.384 289.705 397.204 289.705C397.024 289.705 396.853 290.327 396.727 285.832C396.601 281.337 396.511 271.716 396.511 251.241L396.52 251.268Z" fill="black"/>
<path d="M173.011 205.661C178.743 205.679 184.478 205.694 190.216 205.706C195.954 205.718 201.691 205.724 207.429 205.724C213.167 205.724 218.905 205.709 224.643 205.679C231.972 205.67 233.214 205.67 239.3 205.661C239.3 205.94 239.3 207.291 239.3 208.922C239.264 217.515 239.264 217.551 239.228 226.154C239.228 228.397 239.228 230.091 239.228 230.64C234.204 230.64 232.584 230.649 225.94 230.658C220.196 230.658 214.455 230.658 208.717 230.658C202.973 230.646 197.229 230.637 191.485 230.631C185.741 230.643 179.997 230.652 174.253 230.658C172.345 230.658 170.931 230.649 169.887 230.622C169.383 230.604 168.96 230.595 168.59 230.586C168.212 230.568 167.879 230.55 167.564 230.532C167.582 230.343 167.591 230.172 167.609 229.991C167.627 229.901 167.636 229.829 167.654 229.775C167.681 229.667 167.717 229.631 167.753 229.631C167.789 229.631 167.816 229.667 167.852 229.775C167.87 229.829 167.879 229.901 167.897 229.991C167.906 230.055 167.924 230.109 167.933 230.172C167.996 230.172 168.059 230.154 168.122 230.145C168.266 230.145 168.428 230.127 168.59 230.127C168.96 230.118 169.383 230.109 169.887 230.091C170.949 230.091 172.354 230.073 174.253 230.063C182.842 230.036 182.869 230.037 191.458 230C200.047 230.037 200.083 230.036 208.672 230.063C214.41 230.063 220.148 230.067 225.886 230.073C232.611 230.036 233.961 230.027 238.625 230.009C238.625 229.001 238.625 227.748 238.625 226.19C238.643 220.455 238.661 214.711 238.679 208.958C238.679 207.616 238.679 206.508 238.679 206.273C232.899 206.273 231.702 206.273 224.715 206.273C218.971 206.273 213.23 206.273 207.492 206.273C201.754 206.291 196.011 206.309 190.261 206.328C184.517 206.328 178.77 206.334 173.02 206.346C171.516 206.337 170.391 206.328 169.518 206.318C169.113 206.309 168.761 206.291 168.455 206.282C168.329 206.282 168.212 206.264 168.095 206.264L168.005 206.246C168.005 206.246 167.933 206.616 167.888 206.661C167.843 206.733 167.798 206.706 167.753 206.706C167.708 206.706 167.663 206.733 167.618 206.661C167.573 206.544 167.537 206.535 167.501 205.751C167.789 205.742 168.095 205.724 168.455 205.706C168.761 205.697 169.113 205.688 169.518 205.679C170.391 205.679 171.507 205.661 173.02 205.652L173.011 205.661Z" fill="white"/>
<path d="M161.919 235.793C169.416 235.811 176.915 235.826 184.418 235.838C191.92 235.85 199.423 235.856 206.925 235.856C214.428 235.856 221.93 235.841 229.433 235.811C237.589 235.811 239.705 235.802 245.746 235.793C245.746 235.081 245.746 233.045 245.746 230.298C245.782 219.047 245.782 219.02 245.818 207.769C245.818 204.139 245.818 201.733 245.818 200.517C240.939 200.517 238.481 200.517 231.134 200.535C223.626 200.535 216.117 200.535 208.609 200.535C201.1 200.523 193.589 200.514 186.074 200.508C178.566 200.52 171.054 200.529 163.54 200.535C162.549 200.535 161.676 200.535 160.902 200.535C160.884 201.815 160.875 202.823 160.866 203.634C160.848 204.508 160.821 205.147 160.803 205.607C160.749 206.526 160.677 206.733 160.605 206.733C160.533 206.733 160.461 206.526 160.416 205.607C160.389 205.147 160.371 204.517 160.353 203.634C160.353 202.67 160.335 201.472 160.317 199.95C161.253 199.95 162.324 199.95 163.54 199.95C171.03 199.932 178.53 199.911 186.038 199.887C193.535 199.911 201.037 199.932 208.546 199.95C216.048 199.95 223.551 199.953 231.053 199.959C239.201 199.932 241.578 199.923 246.421 199.905C246.421 201.869 246.421 204.283 246.439 207.697C246.421 215.203 246.403 222.713 246.385 230.226C246.385 233.324 246.385 235.612 246.385 236.432C240.173 236.432 237.95 236.432 229.514 236.432C222.005 236.432 214.497 236.432 206.988 236.432C199.48 236.45 191.968 236.468 184.454 236.486C176.939 236.486 169.428 236.492 161.919 236.504C161.325 236.504 160.767 236.504 160.245 236.504C160.245 235.504 160.254 234.64 160.263 233.883C160.272 233.234 160.281 232.685 160.29 232.207C160.308 231.271 160.335 230.676 160.371 230.298C160.434 229.541 160.515 229.658 160.605 229.658C160.695 229.658 160.767 229.541 160.83 230.298C160.866 230.676 160.893 231.271 160.911 232.207C160.92 233.081 160.929 234.234 160.947 235.811C161.244 235.811 161.577 235.811 161.928 235.811L161.919 235.793Z" fill="white"/>
<path d="M156.544 210.462C156.517 219.488 156.517 220.29 156.499 228.199C156.85 228.199 157.544 228.199 158.3 228.199C165.01 228.199 171.723 228.205 178.44 228.217C185.156 228.229 191.869 228.214 198.579 228.172C205.29 228.13 212.003 228.124 218.719 228.154C226.615 228.19 228.217 228.199 233.664 228.217C233.664 226.992 233.664 225.478 233.664 223.587C233.655 215.876 233.655 214.182 233.646 208.165C233.196 208.165 231.584 208.165 229.523 208.165C222.807 208.165 216.09 208.165 209.374 208.165C202.652 208.153 195.93 208.144 189.207 208.138C182.485 208.15 175.763 208.159 169.041 208.165C161.595 208.165 160.596 208.03 160.596 207.859C160.596 207.688 161.595 207.571 169.041 207.571C175.745 207.553 182.455 207.532 189.171 207.508C199.228 207.544 199.255 207.544 209.311 207.571C216.021 207.571 222.735 207.574 229.451 207.58C231.368 207.58 232.944 207.58 234.222 207.58C234.249 213.579 234.258 215.11 234.285 223.506C234.285 225.749 234.285 227.514 234.285 228.82C228.641 228.802 226.93 228.793 218.791 228.775C212.081 228.775 205.371 228.775 198.66 228.775C191.944 228.775 185.228 228.775 178.512 228.775C171.795 228.793 165.073 228.811 158.345 228.829C157.112 228.829 156.004 228.829 155.869 228.829C155.869 220.614 155.869 219.641 155.851 210.453C155.851 209.318 155.851 208.345 155.86 207.517C156.58 207.517 157.202 207.535 157.751 207.535C158.183 207.544 158.552 207.553 158.885 207.562C159.515 207.58 159.92 207.616 160.173 207.643C160.677 207.706 160.596 207.778 160.596 207.859C160.596 207.94 160.677 208.012 160.173 208.066C159.92 208.093 159.515 208.12 158.885 208.147C158.291 208.156 157.544 208.174 156.535 208.192C156.535 208.832 156.535 209.579 156.544 210.453V210.462Z" fill="white"/>
<path d="M199.696 227.055C199.696 226.082 199.741 226.082 199.741 225.1C199.741 224.118 199.759 224.118 199.759 223.145C199.759 222.173 199.714 222.164 199.714 221.191C199.714 220.218 199.696 220.209 199.696 219.236C199.696 218.263 199.768 218.254 199.768 217.281C199.768 216.308 199.741 216.299 199.741 215.326C199.741 214.354 199.741 214.345 199.741 213.372C199.741 212.399 199.768 212.39 199.768 211.417C199.768 210.444 199.741 210.435 199.741 209.462C199.741 208.742 199.876 208.643 200.047 208.643C200.218 208.643 200.335 208.742 200.335 209.462C200.335 210.435 200.398 210.435 200.398 211.417C200.398 212.399 200.335 212.399 200.335 213.372C200.335 214.345 200.326 214.354 200.326 215.326C200.326 216.299 200.398 216.308 200.398 217.281C200.398 218.254 200.344 218.263 200.344 219.236C200.344 220.209 200.344 220.209 200.344 221.191C200.344 222.173 200.344 222.173 200.344 223.145C200.344 224.118 200.398 224.127 200.398 225.1C200.398 226.073 200.416 226.082 200.416 227.055C200.416 227.776 200.236 227.73 200.065 227.73C199.894 227.73 199.723 227.776 199.723 227.055H199.696Z" fill="white"/>
<path d="M162.792 212.264C162.792 212.075 162.837 212.075 162.837 211.876C162.837 211.678 162.855 211.687 162.855 211.489C162.855 211.291 162.81 211.3 162.81 211.102C162.81 210.904 162.792 210.913 162.792 210.714C162.792 210.516 162.864 210.525 162.864 210.327C162.864 210.129 162.837 210.138 162.837 209.94C162.837 209.742 162.837 209.751 162.837 209.552C162.837 209.354 162.864 209.363 162.864 209.165C162.864 208.967 162.837 208.976 162.837 208.778C162.837 208.634 162.973 208.616 163.144 208.616C163.315 208.616 163.432 208.634 163.432 208.778C163.432 208.967 163.495 208.967 163.495 209.165C163.495 209.363 163.432 209.354 163.432 209.552C163.432 209.751 163.423 209.742 163.423 209.94C163.423 210.138 163.495 210.129 163.495 210.327C163.495 210.525 163.441 210.516 163.441 210.714C163.441 210.913 163.441 210.904 163.441 211.102C163.441 211.3 163.441 211.291 163.441 211.489C163.441 211.687 163.495 211.678 163.495 211.876C163.495 212.075 163.513 212.066 163.513 212.264C163.513 212.408 163.333 212.399 163.162 212.399C162.991 212.399 162.819 212.399 162.819 212.264H162.792Z" fill="white"/>
<path d="M162.792 227.226C162.792 226.496 162.837 226.496 162.837 225.767C162.837 225.037 162.855 225.037 162.855 224.307C162.855 223.578 162.81 223.578 162.81 222.848C162.81 222.119 162.792 222.118 162.792 221.389C162.792 220.659 162.864 220.659 162.864 219.93C162.864 219.2 162.837 219.2 162.837 218.47C162.837 217.741 162.837 217.741 162.837 217.011C162.837 216.281 162.864 216.281 162.864 215.552C162.864 214.822 162.837 214.822 162.837 214.092C162.837 213.552 162.973 213.48 163.144 213.48C163.315 213.48 163.432 213.552 163.432 214.092C163.432 214.822 163.495 214.822 163.495 215.552C163.495 216.281 163.432 216.281 163.432 217.011C163.432 217.741 163.423 217.741 163.423 218.47C163.423 219.2 163.495 219.2 163.495 219.93C163.495 220.659 163.441 220.659 163.441 221.389C163.441 222.118 163.441 222.119 163.441 222.848C163.441 223.578 163.441 223.578 163.441 224.307C163.441 225.037 163.495 225.037 163.495 225.767C163.495 226.496 163.513 226.496 163.513 227.226C163.513 227.767 163.333 227.73 163.162 227.73C162.991 227.73 162.819 227.767 162.819 227.226H162.792Z" fill="white"/>
<path d="M135.396 219.758C135.27 220.389 135.135 220.686 134.991 220.975C134.838 221.254 134.694 221.542 134.298 222.046C134.199 222.173 134.109 222.272 134.019 222.362C133.866 222.524 133.731 222.641 133.605 222.758L133.515 222.839L133.47 222.875C133.47 222.875 133.443 222.848 133.434 222.839C133.389 222.776 133.344 222.713 133.299 222.659C133.218 222.542 133.137 222.425 133.056 222.317C132.875 222.064 132.704 221.812 132.353 221.317C131.651 220.344 131.615 220.371 130.922 219.389C130.22 218.425 130.211 218.416 129.508 217.452C128.806 216.479 128.869 216.434 128.176 215.462C128.068 215.308 127.969 215.173 127.879 215.047C127.816 214.966 127.762 214.885 127.708 214.804C127.663 214.732 127.555 214.642 127.681 214.615C127.825 214.534 127.951 214.462 128.077 214.39C128.176 214.336 128.275 214.291 128.374 214.246C128.662 214.119 128.959 213.984 129.589 213.876C130.22 213.777 130.544 213.822 130.859 213.831C131.174 213.867 131.498 213.894 132.101 214.11C132.704 214.327 132.965 214.525 133.227 214.705C133.479 214.903 133.74 215.083 134.163 215.561C134.568 216.047 134.73 216.326 134.883 216.606C135.027 216.885 135.18 217.173 135.324 217.804C135.414 218.272 135.396 218.542 135.342 218.686C135.297 218.84 135.216 218.867 135.126 218.867C134.928 218.867 134.883 218.741 134.739 217.93C134.613 217.38 134.469 217.128 134.334 216.885C134.199 216.642 134.046 216.407 133.686 215.975C133.317 215.552 133.092 215.39 132.875 215.209C132.65 215.047 132.425 214.867 131.894 214.669C131.363 214.48 131.075 214.453 130.796 214.408C130.517 214.399 130.229 214.345 129.67 214.435C129.112 214.534 128.851 214.66 128.599 214.786L128.509 214.84C128.509 214.84 128.509 214.84 128.491 214.858C128.491 214.858 128.491 214.867 128.491 214.876L128.509 214.894C128.518 214.912 128.491 214.867 128.536 214.93C128.572 214.984 128.617 215.038 128.662 215.101C129.364 216.074 129.319 216.11 130.012 217.083C130.475 217.732 130.937 218.383 131.399 219.038C131.861 219.692 132.329 220.341 132.803 220.984C133.146 221.47 133.344 221.722 133.515 221.929C133.533 221.929 133.542 221.956 133.551 221.929V221.911C133.623 221.839 133.704 221.74 133.794 221.632C134.145 221.191 134.262 220.938 134.379 220.686C134.487 220.434 134.595 220.173 134.703 219.623C134.811 218.813 134.937 218.858 135.126 218.858C135.279 218.858 135.522 218.795 135.396 219.749V219.758Z" fill="white"/>
<path d="M125.367 217.975C125.493 217.344 125.628 217.047 125.772 216.759C125.925 216.48 126.069 216.191 126.465 215.687C126.564 215.561 126.654 215.462 126.744 215.372C126.897 215.209 127.033 215.092 127.159 214.975L127.249 214.894L127.294 214.858C127.294 214.858 127.321 214.885 127.33 214.894C127.375 214.957 127.42 215.02 127.465 215.074C127.546 215.191 127.627 215.309 127.708 215.417C127.888 215.669 128.059 215.921 128.41 216.417C129.112 217.389 129.148 217.362 129.841 218.344C130.544 219.308 130.553 219.317 131.255 220.281C131.957 221.254 131.894 221.299 132.587 222.272C132.695 222.425 132.794 222.56 132.884 222.686C132.947 222.767 133.002 222.848 133.056 222.929C133.101 223.001 133.209 223.091 133.083 223.118C132.938 223.2 132.812 223.272 132.686 223.344C132.587 223.398 132.488 223.443 132.389 223.488C132.101 223.614 131.804 223.749 131.174 223.857C130.544 223.956 130.22 223.911 129.904 223.902C129.589 223.866 129.265 223.839 128.662 223.623C128.059 223.407 127.798 223.208 127.537 223.028C127.285 222.83 127.024 222.65 126.6 222.173C126.195 221.686 126.033 221.407 125.88 221.128C125.736 220.848 125.583 220.56 125.439 219.93C125.349 219.461 125.367 219.191 125.421 219.047C125.466 218.894 125.547 218.867 125.637 218.867C125.835 218.867 125.88 218.993 126.024 219.804C126.15 220.353 126.294 220.605 126.429 220.848C126.564 221.092 126.717 221.326 127.078 221.758C127.447 222.182 127.672 222.344 127.888 222.524C128.113 222.686 128.338 222.866 128.869 223.064C129.4 223.254 129.688 223.281 129.967 223.326C130.247 223.335 130.535 223.389 131.093 223.299C131.651 223.2 131.912 223.073 132.164 222.947L132.254 222.893C132.254 222.893 132.254 222.893 132.272 222.875C132.272 222.875 132.272 222.866 132.272 222.857L132.254 222.839C132.245 222.821 132.272 222.866 132.227 222.803C132.191 222.749 132.146 222.695 132.101 222.632C131.399 221.659 131.444 221.623 130.751 220.65C130.289 220.002 129.826 219.35 129.364 218.695C128.902 218.041 128.434 217.392 127.96 216.75C127.618 216.263 127.42 216.011 127.249 215.804C127.231 215.804 127.222 215.777 127.213 215.804V215.822C127.141 215.894 127.06 215.993 126.969 216.101C126.618 216.543 126.501 216.795 126.384 217.047C126.276 217.299 126.168 217.561 126.06 218.11C125.952 218.921 125.826 218.876 125.637 218.876C125.484 218.876 125.241 218.939 125.367 217.984V217.975Z" fill="white"/>
<path d="M127.798 214.48C127.906 214.417 128.005 214.309 128.095 214.291C128.158 214.381 128.221 214.471 128.284 214.561C128.374 214.696 128.464 214.813 128.545 214.93C128.635 215.065 128.707 215.173 128.779 215.291C128.923 215.516 129.067 215.732 129.373 216.164C129.977 217.029 129.986 217.038 130.598 217.903C131.21 218.768 131.255 218.741 131.867 219.596C132.488 220.443 132.497 220.461 133.119 221.308C133.443 221.758 133.506 221.884 133.848 222.389C133.857 222.434 133.965 222.497 133.893 222.533L133.731 222.641C133.614 222.722 133.506 222.794 133.389 222.875C133.299 222.938 133.209 223.001 133.11 223.064C133.038 223.118 132.956 223.173 132.866 223.236C132.785 223.281 132.677 223.425 132.623 223.263C131.939 222.326 131.921 222.308 131.237 221.371C130.823 220.8 130.409 220.227 129.994 219.65C129.4 218.795 129.373 218.759 128.779 217.903C128.167 217.065 128.131 217.029 127.519 216.191C127.06 215.552 127.114 215.39 127.258 215.291C127.402 215.191 127.555 215.209 128.005 215.849C128.617 216.714 128.671 216.678 129.283 217.543C129.895 218.407 129.841 218.443 130.463 219.308C131.075 220.173 131.075 220.173 131.687 221.038C131.993 221.47 132.164 221.677 132.335 221.875C132.425 221.983 132.515 222.092 132.605 222.209C132.668 222.29 132.74 222.38 132.821 222.497C132.821 222.497 132.821 222.497 132.839 222.497C132.902 222.461 132.947 222.425 133.002 222.389C133.02 222.38 133.047 222.389 133.056 222.371C133.119 222.434 132.902 222.101 132.605 221.695C132.197 221.119 131.789 220.542 131.381 219.966C130.973 219.389 130.559 218.816 130.139 218.245C129.517 217.38 129.481 217.407 128.86 216.552C128.392 215.912 128.392 215.903 127.924 215.263C127.969 215.236 127.771 215.363 127.699 215.39C127.609 215.435 127.537 215.444 127.483 215.444C127.375 215.444 127.321 215.372 127.267 215.3C127.213 215.227 127.141 215.173 127.177 215.074C127.195 215.02 127.231 214.957 127.312 214.876C127.411 214.777 127.447 214.741 127.807 214.489L127.798 214.48Z" fill="white"/>
<path d="M268.407 213.849C269.037 213.975 269.334 214.11 269.622 214.255C269.91 214.399 270.189 214.552 270.694 214.948C271.189 215.354 271.378 215.615 271.567 215.867C271.738 216.128 271.936 216.389 272.179 216.975C272.287 217.272 272.368 217.497 272.413 217.696C272.44 217.813 272.458 217.84 272.485 218.002C272.512 218.146 272.53 218.281 272.557 218.416L272.593 218.623C272.593 218.623 272.62 218.704 272.593 218.722H272.485C272.332 218.722 272.17 218.723 271.999 218.732C271.783 218.732 271.54 218.732 271.207 218.732C270.018 218.741 270 218.74 268.812 218.749C267.615 218.749 267.615 218.677 266.408 218.677C265.22 218.686 265.202 218.686 264.013 218.704C263.248 218.704 262.861 218.704 262.474 218.704C262.447 218.497 262.528 218.164 262.564 217.867C262.609 217.669 262.654 217.434 262.771 217.137C262.996 216.543 263.176 216.263 263.365 216.011C263.545 215.75 263.752 215.498 264.22 215.074C264.698 214.66 264.995 214.516 265.265 214.354C265.553 214.218 265.832 214.056 266.462 213.921C266.93 213.822 267.2 213.849 267.344 213.903C267.498 213.948 267.525 214.029 267.525 214.119C267.525 214.318 267.398 214.354 266.588 214.507C266.039 214.624 265.787 214.777 265.544 214.903C265.31 215.056 265.058 215.182 264.635 215.552C264.229 215.93 264.04 216.137 263.869 216.362C263.698 216.579 263.527 216.822 263.329 217.344C263.23 217.605 263.185 217.822 263.14 217.984C263.122 218.074 263.122 218.083 263.113 218.137C263.338 218.137 263.563 218.137 264.004 218.137C265.202 218.137 265.202 218.065 266.399 218.065C267.597 218.065 267.597 218.119 268.803 218.119C269.601 218.119 270.399 218.119 271.198 218.119C271.477 218.119 271.675 218.119 271.846 218.119C271.882 218.119 271.927 218.128 271.909 218.074C271.909 218.101 271.846 217.687 271.657 217.182C271.441 216.66 271.252 216.443 271.09 216.218C270.91 216.002 270.73 215.786 270.297 215.426C269.856 215.083 269.604 214.957 269.352 214.849C269.1 214.732 268.839 214.633 268.29 214.525C267.479 214.417 267.525 214.291 267.525 214.101C267.525 213.939 267.462 213.714 268.416 213.831L268.407 213.849Z" fill="white"/>
<path d="M266.624 223.884C265.994 223.758 265.697 223.623 265.409 223.479C265.121 223.335 264.842 223.181 264.337 222.785C263.842 222.38 263.653 222.118 263.464 221.866C263.293 221.605 263.095 221.344 262.852 220.758C262.744 220.461 262.663 220.236 262.618 220.038C262.591 219.921 262.573 219.894 262.546 219.731C262.519 219.587 262.501 219.452 262.474 219.317L262.438 219.11C262.438 219.11 262.411 219.029 262.438 219.011H262.546C262.699 219.011 262.861 219.011 263.032 219.002C263.248 219.002 263.491 219.002 263.824 219.002C265.013 218.993 265.031 218.993 266.219 218.984C267.416 218.984 267.416 219.056 268.623 219.056C269.811 219.047 269.829 219.047 271.018 219.029C271.783 219.029 272.17 219.029 272.557 219.029C272.584 219.236 272.503 219.569 272.467 219.867C272.422 220.065 272.377 220.299 272.26 220.596C272.035 221.191 271.855 221.47 271.666 221.722C271.486 221.983 271.279 222.236 270.811 222.659C270.333 223.073 270.036 223.217 269.766 223.38C269.478 223.515 269.199 223.677 268.569 223.812C268.101 223.911 267.831 223.884 267.687 223.83C267.534 223.785 267.507 223.704 267.507 223.614C267.507 223.416 267.633 223.38 268.443 223.226C268.992 223.109 269.244 222.956 269.487 222.83C269.721 222.677 269.973 222.551 270.396 222.182C270.802 221.803 270.991 221.596 271.162 221.371C271.333 221.155 271.504 220.911 271.702 220.389C271.801 220.128 271.846 219.912 271.891 219.749C271.909 219.659 271.909 219.65 271.918 219.596C271.693 219.596 271.468 219.596 271.027 219.596C269.829 219.596 269.829 219.668 268.632 219.668C267.434 219.668 267.434 219.614 266.228 219.614C265.43 219.614 264.632 219.614 263.833 219.614C263.554 219.614 263.356 219.614 263.185 219.614C263.149 219.614 263.104 219.605 263.122 219.659C263.122 219.632 263.185 220.047 263.374 220.551C263.59 221.074 263.779 221.29 263.941 221.515C264.121 221.731 264.301 221.947 264.734 222.308C265.175 222.65 265.427 222.776 265.679 222.884C265.931 223.001 266.192 223.1 266.741 223.208C267.552 223.317 267.507 223.443 267.507 223.632C267.507 223.794 267.57 224.019 266.615 223.902L266.624 223.884Z" fill="white"/>
<path d="M272.584 219.317C272.566 219.443 272.584 219.587 272.548 219.668C272.431 219.668 272.323 219.668 272.224 219.668C272.062 219.668 271.927 219.668 271.792 219.668C271.639 219.668 271.495 219.659 271.36 219.65C271.099 219.641 270.829 219.623 270.297 219.623C269.244 219.623 269.235 219.623 268.173 219.605C267.11 219.605 267.11 219.65 266.048 219.65C264.995 219.659 264.977 219.659 263.923 219.668C263.356 219.668 263.248 219.65 262.636 219.632C262.591 219.614 262.474 219.668 262.492 219.587V219.389C262.492 219.254 262.483 219.119 262.483 218.975C262.483 218.867 262.483 218.831 262.501 218.641C262.501 218.542 262.51 218.443 262.519 218.344C262.537 218.254 262.483 218.083 262.654 218.128C263.806 218.119 263.833 218.119 264.986 218.101C265.694 218.101 266.402 218.101 267.11 218.101C268.146 218.119 268.191 218.119 269.235 218.128C270.27 218.11 270.324 218.11 271.36 218.101C272.143 218.101 272.251 218.236 272.251 218.407C272.251 218.578 272.143 218.695 271.36 218.695C270.297 218.695 270.297 218.759 269.244 218.759C268.191 218.759 268.182 218.695 267.119 218.695C266.066 218.695 266.057 218.695 264.995 218.686C264.463 218.686 264.202 218.704 263.932 218.723C263.788 218.723 263.653 218.74 263.5 218.749C263.392 218.749 263.275 218.75 263.122 218.759C263.122 218.759 263.104 218.912 263.122 218.966C263.122 219.002 263.104 219.002 263.122 219.02C263.032 219.038 263.455 219.047 263.95 219.047C264.659 219.047 265.367 219.047 266.075 219.047C266.783 219.047 267.492 219.047 268.2 219.047C269.262 219.047 269.262 218.993 270.324 218.993C271.126 218.993 271.135 218.993 271.936 218.975C271.936 218.975 271.936 218.921 271.945 218.894C271.945 218.84 271.954 218.786 271.963 218.713C271.981 218.614 271.999 218.551 272.035 218.506C272.098 218.416 272.188 218.425 272.269 218.416C272.359 218.416 272.44 218.389 272.512 218.47C272.548 218.515 272.575 218.578 272.602 218.695C272.611 218.75 272.629 218.822 272.629 218.894C272.629 218.948 272.629 218.993 272.629 219.038C272.629 219.128 272.629 219.218 272.62 219.317H272.584Z" fill="white"/>
<path d="M288.871 230.208C288.898 208.589 288.898 206.12 288.916 188.005C287.61 188.005 285.242 188.005 282.569 188.005C266.183 188.005 249.801 187.999 233.421 187.987C217.042 187.975 200.659 187.99 184.274 188.032C167.888 188.074 151.506 188.08 135.126 188.05C121.793 188.032 115.779 188.023 109.008 188.005C109.008 193.5 108.99 199.499 108.981 210.444C108.99 228.712 108.99 233.297 108.999 246.99C110.503 246.99 115.004 246.99 121.018 246.99C137.41 246.99 153.804 246.99 170.202 246.99C186.605 247.002 203.009 247.011 219.412 247.017C235.816 247.004 252.219 246.996 268.623 246.99C277.707 246.99 282.857 247.026 285.738 247.08C288.619 247.134 289.231 247.215 289.231 247.305C289.231 247.395 288.619 247.467 285.738 247.512C282.857 247.566 277.707 247.593 268.623 247.593C252.249 247.611 235.873 247.632 219.493 247.656C203.114 247.632 186.731 247.611 170.346 247.593C153.961 247.593 137.578 247.59 121.199 247.584C115.941 247.584 111.79 247.584 108.432 247.584C108.405 234.324 108.405 230.217 108.369 210.633C108.378 199.22 108.387 193.032 108.396 187.411C115.32 187.411 121.496 187.429 134.982 187.438C151.362 187.438 167.741 187.438 184.121 187.438C200.512 187.438 216.907 187.438 233.304 187.438C249.708 187.42 266.111 187.402 282.515 187.384C286.053 187.384 289.105 187.384 289.591 187.384C289.591 205.868 289.591 208.805 289.609 230.226C289.609 239.315 289.564 243.584 289.501 245.575C289.438 247.575 289.348 247.296 289.258 247.296C289.168 247.296 289.087 247.575 289.015 245.575C288.952 243.575 288.907 239.315 288.907 230.226L288.871 230.208Z" fill="white"/>
<path d="M243.351 250.962L235.879 261.303L222.527 224.362L259.449 237.72L249.104 245.197L262.159 258.249L256.397 264.015L243.351 250.962Z" fill="black"/>
<path d="M223.275 225.118L258.495 237.864L249.275 244.53L248.42 245.152L249.167 245.9L261.529 258.267L256.406 263.393L244.045 251.025L243.297 250.277L242.676 251.133L236.014 260.357L223.275 225.118ZM221.771 223.614L235.735 262.258L243.396 251.647L256.388 264.645L262.78 258.249L249.789 245.251L260.394 237.585L221.771 223.614Z" fill="white"/>
<path d="M49.4265 0.018006C96.1762 0.0480326 142.929 0.0780647 189.684 0.108091C236.44 0.138118 283.214 0.150109 330.005 0.144103C363.578 0.126087 381.224 0.108082 397.834 0.0990745C397.843 18.9888 397.861 36.6354 397.888 73.8563C397.9 120.656 397.912 167.455 397.924 214.255C397.879 253.124 397.861 270.653 397.843 290.372C381.809 290.354 364.271 290.336 332.319 290.309C285.558 290.327 238.796 290.342 192.034 290.354C145.231 290.354 98.4299 290.36 51.6323 290.372C28.1074 290.372 12.3701 290.363 0.0720226 290.354C0.0810256 263.168 0.0900296 247.494 0.117039 200.148C0.0990326 153.289 0.0780241 106.429 0.0540161 59.5697C0.0540161 33.6177 0.126041 18.8987 0.234077 10.6744C0.288095 6.55778 0.360119 4.06258 0.432143 2.60329C0.504167 1.13499 0.585196 0.702621 0.675226 0.702621C0.765256 0.702621 0.846282 1.13499 0.909303 2.60329C0.981327 4.07159 1.04435 6.55778 1.08936 10.6744C1.1884 18.9077 1.24241 33.6177 1.24241 59.5697C1.28443 106.345 1.32344 153.123 1.35945 199.905C1.30544 247.08 1.28743 262.339 1.26042 289.156C13.5855 289.156 28.7646 289.174 51.2001 289.192C97.9738 289.198 144.747 289.207 191.521 289.219C238.295 289.171 285.068 289.123 331.842 289.075C363.659 289.102 380.909 289.111 396.583 289.12C396.601 269.753 396.61 252.466 396.646 214.723C396.646 167.936 396.649 121.151 396.655 74.3698C396.655 37.8245 396.655 20.4391 396.655 1.27912C380.9 1.27912 363.542 1.27912 330.429 1.27912C283.595 1.31515 236.761 1.34819 189.928 1.37822C143.094 1.39023 96.2602 1.39924 49.4265 1.40524C23.4889 1.40524 11.3168 1.31516 5.61788 1.18004C-0.072026 1.04492 0.711236 0.873763 0.711236 0.693604C0.711236 0.513444 -0.0810287 0.342294 5.61788 0.216183C11.3078 0.0900709 23.4889 0 49.4265 0V0.018006Z" fill="black"/>
<path d="M229.289 61.8396C223.557 61.8216 217.822 61.8066 212.084 61.7946C206.346 61.7826 200.608 61.7766 194.87 61.7766C189.132 61.7766 183.394 61.7916 177.656 61.8216C170.679 61.8306 169.5 61.8306 163.702 61.8396C163.702 62.0108 163.702 62.236 163.702 62.4882C163.702 63.0017 163.702 63.6683 163.702 64.3979C163.666 72.9915 163.666 73.0275 163.63 81.6302C163.63 83.5939 163.63 85.0712 163.63 85.5576C168.437 85.5576 169.995 85.5486 176.351 85.5396C182.095 85.5396 187.836 85.5396 193.574 85.5396C199.318 85.5516 205.062 85.5606 210.806 85.5666C216.549 85.5546 222.293 85.5456 228.037 85.5396C229.946 85.5396 231.359 85.5486 232.404 85.5757C232.908 85.5937 233.331 85.6027 233.7 85.6117C233.871 85.6117 234.024 85.6297 234.168 85.6387C234.231 85.6477 234.294 85.6567 234.348 85.6657C234.366 85.6027 234.375 85.5486 234.393 85.4946C234.411 85.4045 234.42 85.3324 234.438 85.2784C234.465 85.1703 234.501 85.1343 234.537 85.1343C234.573 85.1343 234.6 85.1703 234.637 85.2784C234.655 85.3324 234.664 85.4045 234.682 85.4946C234.691 85.6657 234.709 85.8459 234.718 86.0261C234.411 86.0441 234.087 86.0531 233.709 86.0711C233.34 86.0801 232.917 86.0891 232.413 86.1071C231.35 86.1071 229.946 86.1251 228.046 86.1341C219.457 86.1612 219.43 86.1612 210.842 86.1972C202.253 86.1612 202.217 86.1612 193.628 86.1341C187.89 86.1341 182.152 86.1311 176.414 86.1251C169.347 86.1612 167.924 86.1702 163.018 86.1882C163.018 84.9991 163.018 83.5308 163.018 81.7112C163.036 75.9761 163.054 70.2321 163.072 64.479C163.072 62.8575 163.072 61.5064 163.072 61.2271C169.086 61.2271 170.337 61.2271 177.602 61.2271C183.346 61.2271 189.087 61.2271 194.825 61.2271C200.563 61.2091 206.307 61.1911 212.057 61.173C217.801 61.173 223.548 61.167 229.298 61.155C230.801 61.164 231.927 61.173 232.8 61.1821C233.205 61.1911 233.556 61.2091 233.862 61.2181C234.213 61.2361 234.528 61.2451 234.817 61.2631C234.781 62.0468 234.745 62.0648 234.7 62.1729C234.655 62.245 234.61 62.218 234.564 62.218C234.519 62.218 234.474 62.245 234.429 62.1729C234.384 62.1369 234.348 61.7946 234.312 61.7586C234.285 61.7586 234.249 61.7766 234.222 61.7766C234.105 61.7766 233.988 61.7856 233.862 61.7946C233.556 61.8036 233.205 61.8126 232.8 61.8216C231.927 61.8216 230.81 61.8396 229.298 61.8486L229.289 61.8396Z" fill="black"/>
<path d="M240.38 91.9623C232.884 91.9443 225.384 91.9293 217.882 91.9173C210.379 91.9053 202.877 91.8992 195.374 91.8992C187.872 91.8992 180.369 91.9143 172.867 91.9443C164.359 91.9443 162.153 91.9533 155.851 91.9623C155.851 91.1606 155.851 88.8635 155.851 85.7648C155.887 74.5139 155.887 74.4868 155.923 63.2359C155.923 59.3264 155.923 56.7231 155.923 55.408C160.992 55.408 163.549 55.408 171.174 55.39C178.683 55.39 186.191 55.39 193.7 55.39C201.208 55.402 208.72 55.411 216.234 55.417C223.743 55.405 231.254 55.396 238.769 55.39C239.984 55.39 241.065 55.39 242.019 55.39C242.001 56.9123 241.992 58.1194 241.983 59.1012C241.965 59.975 241.938 60.6146 241.92 61.074C241.866 61.9928 241.794 62.2 241.722 62.2C241.65 62.2 241.578 61.9928 241.533 61.074C241.506 60.6146 241.488 59.984 241.47 59.1012C241.47 58.2815 241.452 57.2636 241.434 55.9755C240.66 55.9755 239.768 55.9755 238.769 55.9755C231.278 55.9935 223.779 56.0145 216.27 56.0385C208.774 56.0145 201.271 55.9935 193.763 55.9755C186.26 55.9755 178.758 55.9725 171.255 55.9664C163.45 55.9935 161.172 56.0025 156.535 56.0205C156.535 57.8221 156.535 60.0381 156.553 63.1638C156.535 70.6705 156.517 78.1801 156.499 85.6928C156.499 88.5123 156.499 90.5931 156.499 91.3318C162.504 91.3318 164.647 91.3318 172.804 91.3318C180.312 91.3318 187.821 91.3318 195.329 91.3318C202.838 91.3138 210.349 91.2957 217.864 91.2777C225.378 91.2777 232.89 91.2717 240.398 91.2597C240.633 91.2597 240.867 91.2597 241.083 91.2597C241.182 91.2597 241.272 91.2597 241.371 91.2597C241.389 89.6923 241.398 88.5483 241.407 87.6655C241.425 86.7287 241.452 86.1342 241.488 85.7558C241.551 84.9992 241.632 85.1163 241.722 85.1163C241.812 85.1163 241.884 84.9992 241.947 85.7558C241.983 86.1342 242.01 86.7287 242.028 87.6655C242.028 88.143 242.046 88.6924 242.055 89.341C242.055 90.0977 242.055 90.9624 242.064 91.9623C241.551 91.9623 240.993 91.9623 240.398 91.9623H240.38Z" fill="black"/>
<path d="M246.448 65.9383C246.421 75.2705 246.421 76.0993 246.403 84.2785C245.935 84.2785 245.017 84.2785 244 84.2785C237.289 84.2785 230.576 84.2725 223.86 84.2605C217.144 84.2485 210.43 84.2635 203.72 84.3055C197.01 84.3475 190.297 84.3536 183.58 84.3235C175.379 84.2875 173.722 84.2785 168.059 84.2605C168.059 82.8823 168.059 81.1798 168.059 79.0539C168.05 71.0458 168.05 69.2802 168.041 63.0377C168.563 63.0377 170.4 63.0377 172.759 63.0377C179.475 63.0377 186.191 63.0377 192.908 63.0377C199.63 63.0497 206.352 63.0587 213.074 63.0647C219.797 63.0527 226.519 63.0437 233.241 63.0377C240.687 63.0377 241.686 63.1728 241.686 63.344C241.686 63.5151 240.687 63.6322 233.241 63.6322C226.537 63.6502 219.827 63.6713 213.11 63.6953C203.054 63.6593 203.027 63.6593 192.971 63.6322C186.26 63.6322 179.547 63.6292 172.831 63.6232C171.129 63.6232 169.743 63.6232 168.608 63.6232C168.635 69.4153 168.644 70.9017 168.671 78.9999C168.671 80.9546 168.671 82.5039 168.671 83.6479C174.073 83.666 175.712 83.675 183.499 83.693C190.21 83.693 196.92 83.693 203.63 83.693C210.346 83.693 217.063 83.693 223.779 83.693C230.495 83.675 237.217 83.6569 243.946 83.6389C244.846 83.6389 245.647 83.6389 245.746 83.6389C245.746 75.7299 245.746 74.7841 245.728 65.9383C245.728 65.0645 245.728 64.3168 245.737 63.6863C244.729 63.6683 243.991 63.6503 243.396 63.6413C242.766 63.6232 242.361 63.5872 242.109 63.5602C241.605 63.4971 241.686 63.425 241.686 63.344C241.686 63.2629 241.605 63.1909 242.109 63.1368C242.361 63.1098 242.766 63.0828 243.396 63.0557C243.73 63.0557 244.099 63.0377 244.531 63.0287C245.08 63.0287 245.701 63.0197 246.421 63.0107C246.421 63.8394 246.421 64.8123 246.43 65.9473L246.448 65.9383Z" fill="black"/>
<path d="M201.911 82.5309C201.911 81.5581 201.956 81.5581 201.956 80.5762C201.956 79.5944 201.974 79.5943 201.974 78.6215C201.974 77.6486 201.929 77.6396 201.929 76.6667C201.929 75.6939 201.911 75.6849 201.911 74.712C201.911 73.7392 201.983 73.7302 201.983 72.7573C201.983 71.7844 201.956 71.7754 201.956 70.8026C201.956 69.8297 201.956 69.8207 201.956 68.8478C201.956 67.875 201.983 67.866 201.983 66.8931C201.983 65.9202 201.956 65.9112 201.956 64.9384C201.956 64.2177 202.091 64.1187 202.262 64.1187C202.433 64.1187 202.55 64.2177 202.55 64.9384C202.55 65.9112 202.613 65.9112 202.613 66.8931C202.613 67.875 202.55 67.875 202.55 68.8478C202.55 69.8207 202.541 69.8297 202.541 70.8026C202.541 71.7754 202.613 71.7844 202.613 72.7573C202.613 73.7302 202.559 73.7392 202.559 74.712C202.559 75.6849 202.559 75.6849 202.559 76.6667C202.559 77.6486 202.559 77.6486 202.559 78.6215C202.559 79.5943 202.613 79.6034 202.613 80.5762C202.613 81.5491 202.631 81.5581 202.631 82.5309C202.631 83.2516 202.451 83.2065 202.28 83.2065C202.109 83.2065 201.938 83.2516 201.938 82.5309H201.911Z" fill="black"/>
<path d="M238.814 67.7399C238.814 67.5507 238.859 67.5507 238.859 67.3526C238.859 67.1544 238.877 67.1634 238.877 66.9652C238.877 66.767 238.832 66.776 238.832 66.5779C238.832 66.3797 238.814 66.3887 238.814 66.1905C238.814 65.9923 238.886 66.0014 238.886 65.8032C238.886 65.605 238.859 65.614 238.859 65.4158C238.859 65.2177 238.859 65.2267 238.859 65.0285C238.859 64.8303 238.886 64.8393 238.886 64.6411C238.886 64.443 238.859 64.452 238.859 64.2538C238.859 64.1097 238.994 64.0917 239.165 64.0917C239.336 64.0917 239.453 64.1097 239.453 64.2538C239.453 64.443 239.516 64.443 239.516 64.6411C239.516 64.8393 239.453 64.8303 239.453 65.0285C239.453 65.2267 239.444 65.2177 239.444 65.4158C239.444 65.614 239.516 65.605 239.516 65.8032C239.516 66.0014 239.462 65.9923 239.462 66.1905C239.462 66.3887 239.462 66.3797 239.462 66.5779C239.462 66.776 239.462 66.767 239.462 66.9652C239.462 67.1634 239.516 67.1544 239.516 67.3526C239.516 67.5507 239.534 67.5417 239.534 67.7399C239.534 67.884 239.354 67.875 239.183 67.875C239.012 67.875 238.841 67.875 238.841 67.7399H238.814Z" fill="black"/>
<path d="M238.814 82.7021C238.814 81.9725 238.859 81.9725 238.859 81.2428C238.859 80.5132 238.877 80.5132 238.877 79.7835C238.877 79.0539 238.832 79.0539 238.832 78.3242C238.832 77.5946 238.814 77.5946 238.814 76.8649C238.814 76.1353 238.886 76.1353 238.886 75.4056C238.886 74.676 238.859 74.676 238.859 73.9464C238.859 73.2167 238.859 73.2167 238.859 72.4871C238.859 71.7574 238.886 71.7574 238.886 71.0278C238.886 70.2981 238.859 70.2981 238.859 69.5685C238.859 69.028 238.994 68.9559 239.165 68.9559C239.336 68.9559 239.453 69.028 239.453 69.5685C239.453 70.2981 239.516 70.2981 239.516 71.0278C239.516 71.7574 239.453 71.7574 239.453 72.4871C239.453 73.2167 239.444 73.2167 239.444 73.9464C239.444 74.676 239.516 74.676 239.516 75.4056C239.516 76.1353 239.462 76.1353 239.462 76.8649C239.462 77.5946 239.462 77.5946 239.462 78.3242C239.462 79.0539 239.462 79.0539 239.462 79.7835C239.462 80.5132 239.516 80.5132 239.516 81.2428C239.516 81.9725 239.534 81.9725 239.534 82.7021C239.534 83.2426 239.354 83.2065 239.183 83.2065C239.012 83.2065 238.841 83.2426 238.841 82.7021H238.814Z" fill="black"/>
<path d="M135.396 75.2345C135.27 75.8651 135.135 76.1623 134.991 76.4506C134.838 76.7298 134.694 77.0181 134.298 77.5225C134.199 77.6486 134.109 77.7477 134.019 77.8378C133.866 77.9999 133.731 78.117 133.605 78.2341L133.515 78.3152L133.47 78.3513C133.47 78.3513 133.443 78.3242 133.434 78.3152C133.389 78.2522 133.344 78.1891 133.299 78.1351C133.218 78.018 133.137 77.9009 133.056 77.7928C132.875 77.5405 132.704 77.2883 132.353 76.7929C131.651 75.82 131.615 75.847 130.922 74.8652C130.22 73.9013 130.211 73.8923 129.508 72.9285C128.806 71.9556 128.869 71.9106 128.176 70.9377C128.068 70.7846 127.969 70.6494 127.879 70.5233C127.816 70.4422 127.762 70.3612 127.708 70.2801C127.663 70.2081 127.555 70.118 127.681 70.091C127.825 70.0099 127.951 69.9378 128.077 69.8658C128.176 69.8117 128.275 69.7667 128.374 69.7216C128.662 69.5955 128.959 69.4604 129.589 69.3523C130.22 69.2532 130.544 69.2983 130.859 69.3073C131.174 69.3433 131.498 69.3703 132.101 69.5865C132.704 69.8027 132.965 70.0009 133.227 70.181C133.479 70.3792 133.74 70.5594 134.163 71.0368C134.568 71.5232 134.73 71.8025 134.883 72.0817C135.027 72.361 135.18 72.6492 135.324 73.2798C135.414 73.7482 135.396 74.0184 135.342 74.1625C135.297 74.3157 135.216 74.3427 135.126 74.3427C134.928 74.3427 134.883 74.2166 134.739 73.4059C134.613 72.8564 134.469 72.6042 134.334 72.361C134.199 72.1177 134.046 71.8835 133.686 71.4511C133.317 71.0278 133.092 70.8656 132.875 70.6855C132.65 70.5233 132.425 70.3432 131.894 70.145C131.363 69.9558 131.075 69.9288 130.796 69.8838C130.517 69.8748 130.229 69.8207 129.67 69.9108C129.112 70.0099 128.851 70.136 128.599 70.2621L128.509 70.3162C128.509 70.3162 128.509 70.3161 128.491 70.3342C128.491 70.3342 128.491 70.3432 128.491 70.3522L128.509 70.3702C128.518 70.3882 128.491 70.3432 128.536 70.4062C128.572 70.4603 128.617 70.5143 128.662 70.5774C129.364 71.5502 129.319 71.5863 130.012 72.5591C130.475 73.2077 130.937 73.8593 131.399 74.5139C131.861 75.1685 132.329 75.817 132.803 76.4596C133.146 76.946 133.344 77.1982 133.515 77.4054C133.533 77.4054 133.542 77.4324 133.551 77.4054V77.3874C133.623 77.3153 133.704 77.2162 133.794 77.1081C134.145 76.6668 134.262 76.4145 134.379 76.1623C134.487 75.9101 134.595 75.6489 134.703 75.0994C134.811 74.2887 134.937 74.3337 135.126 74.3337C135.279 74.3337 135.522 74.2706 135.396 75.2255V75.2345Z" fill="black"/>
<path d="M125.367 73.4509C125.493 72.8204 125.628 72.5231 125.772 72.2349C125.925 71.9556 126.069 71.6674 126.465 71.1629C126.564 71.0368 126.654 70.9377 126.744 70.8476C126.897 70.6855 127.033 70.5684 127.159 70.4513L127.249 70.3702L127.294 70.3342C127.294 70.3342 127.321 70.3612 127.33 70.3702C127.375 70.4333 127.42 70.4963 127.465 70.5504C127.546 70.6675 127.627 70.7846 127.708 70.8927C127.888 71.1449 128.059 71.3971 128.41 71.8926C129.112 72.8654 129.148 72.8384 129.841 73.8202C130.544 74.7841 130.553 74.7931 131.255 75.757C131.957 76.7298 131.894 76.7749 132.587 77.7477C132.695 77.9009 132.794 78.036 132.884 78.1621C132.947 78.2431 133.002 78.3242 133.056 78.4053C133.101 78.4774 133.209 78.5675 133.083 78.5945C132.938 78.6756 132.812 78.7476 132.686 78.8197C132.587 78.8737 132.488 78.9188 132.389 78.9638C132.101 79.0899 131.804 79.2251 131.174 79.3331C130.544 79.4322 130.22 79.3872 129.904 79.3782C129.589 79.3421 129.265 79.3151 128.662 79.0989C128.059 78.8827 127.798 78.6845 127.537 78.5044C127.285 78.3062 127.024 78.1261 126.6 77.6487C126.195 77.1622 126.033 76.883 125.88 76.6037C125.736 76.3245 125.583 76.0362 125.439 75.4057C125.349 74.9372 125.367 74.667 125.421 74.5229C125.466 74.3697 125.547 74.3427 125.637 74.3427C125.835 74.3427 125.88 74.4688 126.024 75.2795C126.15 75.829 126.294 76.0812 126.429 76.3245C126.564 76.5677 126.717 76.8019 127.078 77.2343C127.447 77.6577 127.672 77.8198 127.888 77.9999C128.113 78.1621 128.338 78.3423 128.869 78.5404C129.4 78.7296 129.688 78.7566 129.967 78.8017C130.247 78.8107 130.535 78.8647 131.093 78.7747C131.651 78.6756 131.912 78.5494 132.164 78.4233L132.254 78.3783C132.254 78.3783 132.254 78.3783 132.272 78.3603C132.272 78.3603 132.272 78.3512 132.272 78.3422L132.254 78.3243C132.245 78.3062 132.272 78.3513 132.227 78.2882C132.191 78.2341 132.146 78.1801 132.101 78.117C131.399 77.1442 131.444 77.1082 130.751 76.1353C130.289 75.4867 129.826 74.8351 129.364 74.1806C128.902 73.526 128.434 72.8774 127.96 72.2349C127.618 71.7484 127.42 71.4962 127.249 71.289C127.231 71.289 127.222 71.262 127.213 71.289V71.307C127.141 71.3791 127.06 71.4782 126.969 71.5863C126.618 72.0277 126.501 72.2799 126.384 72.5321C126.276 72.7843 126.168 73.0456 126.06 73.595C125.952 74.4058 125.826 74.3607 125.637 74.3607C125.484 74.3607 125.241 74.4238 125.367 73.469V73.4509Z" fill="black"/>
<path d="M127.798 69.9558C127.906 69.8928 128.005 69.7847 128.095 69.7667C128.158 69.8567 128.221 69.9468 128.284 70.0369C128.374 70.172 128.464 70.2891 128.545 70.4062C128.635 70.5413 128.707 70.6495 128.779 70.7666C128.923 70.9918 129.067 71.208 129.373 71.6403C129.977 72.5051 129.986 72.5141 130.598 73.3789C131.21 74.2436 131.255 74.2166 131.867 75.0724C132.488 75.9191 132.497 75.9371 133.119 76.7839C133.443 77.2343 133.506 77.3604 133.848 77.8648C133.857 77.9099 133.965 77.9729 133.893 78.009L133.731 78.117C133.614 78.1981 133.506 78.2702 133.389 78.3513C133.299 78.4143 133.209 78.4774 133.11 78.5404C133.038 78.5945 132.956 78.6485 132.866 78.7116C132.785 78.7566 132.677 78.9007 132.623 78.7386C131.939 77.8018 131.921 77.7838 131.237 76.8469C130.823 76.2764 130.409 75.7029 129.994 75.1264C129.4 74.2707 129.373 74.2346 128.779 73.3789C128.167 72.5411 128.131 72.5051 127.519 71.6674C127.06 71.0278 127.114 70.8656 127.258 70.7666C127.402 70.6675 127.555 70.6855 128.005 71.3251C128.617 72.1898 128.671 72.1538 129.283 73.0186C129.895 73.8833 129.841 73.9193 130.463 74.7841C131.075 75.6489 131.075 75.6489 131.687 76.5137C131.993 76.946 132.164 77.1532 132.335 77.3514C132.425 77.4595 132.515 77.5676 132.605 77.6847C132.668 77.7657 132.74 77.8558 132.821 77.9729C132.821 77.9729 132.821 77.9729 132.839 77.9729C132.902 77.9369 132.947 77.9009 133.002 77.8648C133.02 77.8558 133.047 77.8648 133.056 77.8468C133.119 77.9099 132.902 77.5766 132.605 77.1712C132.197 76.5947 131.789 76.0182 131.381 75.4417C130.973 74.8652 130.559 74.2917 130.139 73.7212C129.517 72.8564 129.481 72.8834 128.86 72.0277C128.392 71.3881 128.392 71.3791 127.924 70.7395C127.969 70.7125 127.771 70.8386 127.699 70.8656C127.609 70.9107 127.537 70.9197 127.483 70.9197C127.375 70.9197 127.321 70.8476 127.267 70.7756C127.213 70.7035 127.141 70.6494 127.177 70.5504C127.195 70.4963 127.231 70.4332 127.312 70.3522C127.411 70.2531 127.447 70.2171 127.807 69.9648L127.798 69.9558Z" fill="black"/>
<path d="M268.407 69.3253C269.037 69.4514 269.334 69.5865 269.622 69.7307C269.91 69.8748 270.189 70.0279 270.694 70.4243C271.189 70.8296 271.378 71.0909 271.567 71.3431C271.738 71.6043 271.936 71.8656 272.179 72.4511C272.287 72.7483 272.368 72.9735 272.413 73.1717C272.44 73.2888 272.458 73.3158 272.485 73.478C272.512 73.6221 272.53 73.7572 272.557 73.8924L272.593 74.0995C272.593 74.0995 272.62 74.1806 272.593 74.1986H272.485C272.332 74.1986 272.17 74.1986 271.999 74.2076C271.783 74.2076 271.54 74.2076 271.207 74.2076C270.018 74.2166 270 74.2166 268.812 74.2257C267.615 74.2257 267.615 74.1536 266.408 74.1536C265.22 74.1626 265.202 74.1626 264.013 74.1806C263.248 74.1806 262.861 74.1806 262.474 74.1806C262.447 73.9734 262.528 73.6401 262.564 73.3429C262.609 73.1447 262.654 72.9105 262.771 72.6132C262.996 72.0187 263.176 71.7394 263.365 71.4872C263.545 71.226 263.752 70.9738 264.22 70.5504C264.698 70.136 264.995 69.9919 265.265 69.8298C265.553 69.6946 265.832 69.5325 266.462 69.3974C266.93 69.2983 267.2 69.3253 267.344 69.3794C267.498 69.4244 267.525 69.5055 267.525 69.5955C267.525 69.7937 267.398 69.8298 266.588 69.9829C266.039 70.1 265.787 70.2531 265.544 70.3792C265.31 70.5324 265.058 70.6585 264.635 71.0278C264.229 71.4061 264.04 71.6133 263.869 71.8385C263.698 72.0547 263.527 72.2979 263.329 72.8204C263.23 73.0816 263.185 73.2978 263.14 73.46C263.122 73.55 263.122 73.5591 263.113 73.6131C263.338 73.6131 263.563 73.6131 264.004 73.6131C265.202 73.6131 265.202 73.541 266.399 73.541C267.597 73.541 267.597 73.5951 268.803 73.5951C269.601 73.5951 270.399 73.5951 271.198 73.5951C271.477 73.5951 271.675 73.5951 271.846 73.5951C271.882 73.5951 271.927 73.6041 271.909 73.5501C271.909 73.5771 271.846 73.1627 271.657 72.6582C271.441 72.1358 271.252 71.9196 271.09 71.6944C270.91 71.4782 270.73 71.262 270.297 70.9017C269.856 70.5594 269.604 70.4333 269.352 70.3252C269.1 70.2081 268.839 70.109 268.29 70.0009C267.479 69.8928 267.525 69.7667 267.525 69.5775C267.525 69.4154 267.462 69.1902 268.416 69.3073L268.407 69.3253Z" fill="black"/>
<path d="M266.624 79.3602C265.994 79.2341 265.697 79.0989 265.409 78.9548C265.121 78.8107 264.842 78.6576 264.337 78.2612C263.842 77.8559 263.653 77.5946 263.464 77.3424C263.293 77.0812 263.095 76.8199 262.852 76.2344C262.744 75.9371 262.663 75.712 262.618 75.5138C262.591 75.3967 262.573 75.3697 262.546 75.2075C262.519 75.0634 262.501 74.9283 262.474 74.7932L262.438 74.586C262.438 74.586 262.411 74.5049 262.438 74.4869H262.546C262.699 74.4869 262.861 74.4869 263.032 74.4779C263.248 74.4779 263.491 74.4779 263.824 74.4779C265.013 74.4689 265.031 74.4688 266.219 74.4598C267.416 74.4598 267.416 74.5319 268.623 74.5319C269.811 74.5229 269.829 74.5229 271.018 74.5049C271.783 74.5049 272.17 74.5049 272.557 74.5049C272.584 74.7121 272.503 75.0454 272.467 75.3426C272.422 75.5408 272.377 75.775 272.26 76.0723C272.035 76.6668 271.855 76.946 271.666 77.1983C271.486 77.4595 271.279 77.7117 270.811 78.1351C270.333 78.5495 270.036 78.6936 269.766 78.8557C269.478 78.9909 269.199 79.153 268.569 79.2881C268.101 79.3872 267.831 79.3602 267.687 79.3061C267.534 79.2611 267.507 79.18 267.507 79.0899C267.507 78.8918 267.633 78.8557 268.443 78.7026C268.992 78.5855 269.244 78.4324 269.487 78.3063C269.721 78.1531 269.973 78.027 270.396 77.6577C270.802 77.2793 270.991 77.0722 271.162 76.847C271.333 76.6308 271.504 76.3876 271.702 75.8651C271.801 75.6039 271.846 75.3877 271.891 75.2255C271.909 75.1354 271.909 75.1264 271.918 75.0724C271.693 75.0724 271.468 75.0724 271.027 75.0724C269.829 75.0724 269.829 75.1445 268.632 75.1445C267.434 75.1445 267.434 75.0904 266.228 75.0904C265.43 75.0904 264.632 75.0904 263.833 75.0904C263.554 75.0904 263.356 75.0904 263.185 75.0904C263.149 75.0904 263.104 75.0814 263.122 75.1354C263.122 75.1084 263.185 75.5228 263.374 76.0272C263.59 76.5497 263.779 76.7659 263.941 76.9911C264.121 77.2073 264.301 77.4235 264.734 77.7838C265.175 78.1261 265.427 78.2522 265.679 78.3603C265.931 78.4774 266.192 78.5765 266.741 78.6846C267.552 78.7927 267.507 78.9188 267.507 79.108C267.507 79.2701 267.57 79.4953 266.615 79.3782L266.624 79.3602Z" fill="black"/>
<path d="M272.584 74.7932C272.566 74.9193 272.584 75.0634 272.548 75.1445C272.431 75.1445 272.323 75.1445 272.224 75.1445C272.062 75.1445 271.927 75.1445 271.792 75.1445C271.639 75.1445 271.495 75.1355 271.36 75.1265C271.099 75.1175 270.829 75.0994 270.297 75.0994C269.244 75.0994 269.235 75.0994 268.173 75.0814C267.11 75.0814 267.11 75.1265 266.048 75.1265C264.995 75.1355 264.977 75.1355 263.923 75.1445C263.356 75.1445 263.248 75.1264 262.636 75.1084C262.591 75.0904 262.474 75.1445 262.492 75.0634V74.8652C262.492 74.7301 262.483 74.595 262.483 74.4509C262.483 74.3428 262.483 74.3067 262.501 74.1176C262.501 74.0185 262.51 73.9194 262.519 73.8203C262.537 73.7302 262.483 73.5591 262.654 73.6041C263.806 73.5951 263.833 73.5951 264.986 73.5771C265.694 73.5771 266.402 73.5771 267.11 73.5771C268.146 73.5951 268.191 73.5951 269.235 73.6041C270.27 73.5861 270.324 73.5861 271.36 73.5771C272.143 73.5771 272.251 73.7122 272.251 73.8834C272.251 74.0545 272.143 74.1716 271.36 74.1716C270.297 74.1716 270.297 74.2347 269.244 74.2347C268.191 74.2347 268.182 74.1716 267.119 74.1716C266.066 74.1716 266.057 74.1716 264.995 74.1626C264.463 74.1626 264.202 74.1806 263.932 74.1986C263.788 74.1986 263.653 74.2167 263.5 74.2257C263.392 74.2257 263.275 74.2256 263.122 74.2347C263.122 74.2347 263.104 74.3878 263.122 74.4418C263.122 74.4779 263.104 74.4779 263.122 74.4959C263.032 74.5139 263.455 74.5229 263.95 74.5229C264.659 74.5229 265.367 74.5229 266.075 74.5229C266.783 74.5229 267.492 74.5229 268.2 74.5229C269.262 74.5229 269.262 74.4689 270.324 74.4689C271.126 74.4689 271.135 74.4689 271.936 74.4509C271.936 74.4509 271.936 74.3968 271.945 74.3698C271.945 74.3157 271.954 74.2617 271.963 74.1896C271.981 74.0905 271.999 74.0275 272.035 73.9824C272.098 73.8923 272.188 73.9014 272.269 73.8924C272.359 73.8924 272.44 73.8653 272.512 73.9464C272.548 73.9915 272.575 74.0545 272.602 74.1716C272.611 74.2257 272.629 74.2977 272.629 74.3698C272.629 74.4238 272.629 74.4689 272.629 74.5139C272.629 74.604 272.629 74.6941 272.62 74.7932H272.584Z" fill="black"/>
<path d="M288.871 85.6838C288.898 64.0646 288.898 61.5964 288.916 43.4814C287.61 43.4814 285.242 43.4814 282.569 43.4814C266.183 43.4814 249.801 43.4754 233.421 43.4634C217.042 43.4514 200.659 43.4664 184.274 43.5084C167.888 43.5505 151.506 43.5565 135.126 43.5264C121.793 43.5084 115.779 43.4994 109.008 43.4814C109.008 48.9763 108.99 54.9756 108.981 65.9203C108.99 84.1884 108.99 88.7735 108.999 102.466C110.503 102.466 115.004 102.466 121.018 102.466C137.41 102.466 153.804 102.466 170.202 102.466C186.605 102.478 203.009 102.487 219.412 102.493C235.816 102.481 252.219 102.472 268.623 102.466C277.707 102.466 282.857 102.502 285.738 102.556C288.619 102.61 289.231 102.691 289.231 102.781C289.231 102.871 288.619 102.943 285.738 102.988C282.857 103.042 277.707 103.069 268.623 103.069C252.249 103.087 235.873 103.108 219.493 103.132C203.114 103.108 186.731 103.087 170.346 103.069C153.961 103.069 137.578 103.066 121.199 103.06C115.941 103.06 111.79 103.06 108.432 103.06C108.405 89.8004 108.405 85.6928 108.369 66.1094C108.378 54.6963 108.387 48.5079 108.396 42.8869C115.32 42.8869 121.496 42.9049 134.982 42.9139C151.362 42.9139 167.741 42.9139 184.121 42.9139C200.512 42.9139 216.907 42.9139 233.304 42.9139C249.708 42.8959 266.111 42.8779 282.515 42.8599C286.053 42.8599 289.105 42.8599 289.591 42.8599C289.591 61.3442 289.591 64.2808 289.609 85.7018C289.609 94.7908 289.564 99.0606 289.501 101.051C289.438 103.042 289.348 102.772 289.258 102.772C289.168 102.772 289.087 103.051 289.015 101.051C288.943 99.0516 288.907 94.7908 288.907 85.7018L288.871 85.6838Z" fill="black"/>
<path d="M243.351 106.438L235.879 116.788L222.527 79.8376L259.449 93.1964L249.104 100.673L262.159 113.735L256.397 119.491L243.351 106.438Z" fill="white"/>
<path d="M223.275 80.5943L258.495 93.3406L249.275 100.006L248.42 100.628L249.167 101.376L261.529 113.744L256.406 118.869L244.045 106.501L243.297 105.754L242.676 106.609L236.014 115.833L223.275 80.5943ZM221.771 79.09L235.735 117.734L243.396 107.123L256.388 120.121L262.78 113.726L249.789 100.727L260.394 93.0613L221.771 79.09Z" fill="black"/>
</svg>
