<svg width="398" height="291" viewBox="0 0 398 291" fill="none" xmlns="http://www.w3.org/2000/svg">
<path d="M396.52 240.891C396.55 194.116 396.58 147.337 396.61 100.556C396.619 50.877 396.628 36.5543 396.637 1.19806C390.893 1.19806 376.704 1.19806 356.771 1.19806C309.998 1.22809 263.224 1.26112 216.45 1.29715C169.677 1.33318 122.903 1.3452 76.1294 1.33319C37.9116 1.28815 20.6799 1.27012 1.29638 1.25211C1.27838 16.989 1.26042 34.2123 1.23341 65.569C1.25141 112.356 1.26635 159.144 1.27836 205.931C1.27836 247.494 1.27837 264.285 1.28737 289.066C12.6132 289.066 29.3318 289.066 57.3762 289.066C104.21 289.084 151.044 289.102 197.877 289.12C244.711 289.102 291.545 289.081 338.378 289.057C364.316 289.057 379.027 289.129 387.247 289.237C391.361 289.291 393.855 289.363 395.313 289.435C396.781 289.507 397.213 289.588 397.213 289.678C397.213 289.768 396.781 289.85 395.313 289.913C393.846 289.985 391.361 290.048 387.247 290.093C379.018 290.192 364.316 290.246 338.378 290.246C291.629 290.288 244.876 290.327 198.12 290.363C151.347 290.321 104.573 290.276 57.7993 290.228C28.9627 290.228 11.866 290.228 0.126055 290.228C0.126055 265.384 0.126073 248.332 0.144079 206.436C0.0960629 159.636 0.0480161 112.837 0 66.0375C0.027009 33.5817 0.0359461 15.9801 0.0449491 0C19.7345 0.0180159 37.2994 0.0270305 75.6703 0.0630624C122.432 0.0630624 169.191 0.0660601 215.946 0.0720654C262.75 0.0720654 309.551 0.0660563 356.348 0.0540456C373.796 0.0540456 386.977 0.0450476 397.798 0.0360396C397.825 33.852 397.834 46.9315 397.888 100.322C397.9 147.181 397.909 194.041 397.915 240.9C397.915 266.852 397.825 279.031 397.69 284.733C397.555 290.426 397.384 289.642 397.204 289.642C397.024 289.642 396.853 290.435 396.727 284.733C396.601 279.04 396.511 266.852 396.511 240.9L396.52 240.891Z" fill="black"/>
<path d="M115.491 254.998C110.641 254.98 105.785 254.965 100.924 254.953C96.062 254.941 91.2064 254.935 86.3567 254.935C79.0823 254.962 79.0644 254.962 71.7899 254.98C69.9713 254.98 68.6028 254.98 67.4684 254.98C66.9012 254.98 66.3881 254.98 65.9019 254.98C65.6588 254.98 65.4248 254.98 65.1908 254.98H64.6505C64.5425 254.98 64.4254 254.98 64.3174 254.98L64.3354 254.646C64.3624 254.124 64.3984 253.61 64.4344 253.052C64.4794 252.566 64.4614 252.034 64.5605 251.467C64.7766 250.332 64.9476 248.953 65.5508 247.197C65.7849 246.296 66.1361 245.566 66.4061 244.9C66.6762 244.233 66.9283 243.648 67.2164 243.152C67.7566 242.134 68.1797 241.315 68.7109 240.558C68.9629 240.171 69.215 239.783 69.4761 239.378C69.7462 238.972 70.0793 238.576 70.4215 238.108C71.0967 237.18 71.988 236.126 73.2304 234.775C75.7692 232.135 77.2367 231 78.7132 229.91C79.4424 229.352 80.2167 228.857 81.198 228.262C81.7022 227.983 82.2424 227.649 82.9266 227.379C83.5749 227.046 84.4392 226.857 85.3215 226.731C87.1491 226.46 88.5536 226.469 89.7059 226.596C90.8583 226.722 91.7766 226.938 92.6588 227.262C94.3694 227.938 96.179 228.884 98.4208 231.838C99.5192 233.315 100.221 234.505 100.96 235.306C101.329 235.712 101.698 236.018 102.085 236.171C102.472 236.333 102.841 236.297 103.337 236.297C103.805 236.297 104.264 236.279 104.759 236.297C105.254 236.342 105.767 236.396 106.343 236.45C106.911 236.549 107.541 236.675 108.243 236.838C108.927 237.072 109.729 237.252 110.566 237.666C111.43 238.009 112.114 238.459 112.745 238.81C113.348 239.216 113.861 239.594 114.32 239.945C114.752 240.333 115.139 240.684 115.508 241.008C115.842 241.369 116.157 241.711 116.463 242.053C116.796 242.387 117.03 242.783 117.336 243.17C117.48 243.368 117.633 243.576 117.786 243.792C117.921 244.017 118.056 244.26 118.209 244.503C118.353 244.756 118.507 245.017 118.669 245.296C118.804 245.593 118.948 245.9 119.092 246.224C119.425 246.872 119.659 247.647 119.965 248.521C120.334 249.836 120.541 250.89 120.613 251.728C120.739 252.557 120.721 253.16 120.712 253.592C120.694 254.457 120.622 254.637 120.541 254.637C120.451 254.637 120.37 254.457 120.289 253.61C120.244 253.187 120.217 252.602 120.073 251.8C119.974 250.989 119.758 249.971 119.398 248.692C119.101 247.845 118.876 247.089 118.552 246.467C118.407 246.152 118.272 245.855 118.137 245.566C117.975 245.296 117.831 245.044 117.687 244.801C117.543 244.557 117.408 244.332 117.282 244.107C117.138 243.9 116.985 243.702 116.85 243.513C116.553 243.143 116.328 242.747 116.004 242.432C115.698 242.107 115.4 241.774 115.076 241.423C114.725 241.107 114.347 240.774 113.933 240.405C113.492 240.071 112.997 239.711 112.421 239.315C111.808 238.981 111.16 238.54 110.332 238.216C109.53 237.819 108.765 237.648 108.108 237.414C107.433 237.252 106.83 237.144 106.28 237.036C105.722 236.982 105.227 236.937 104.75 236.883C104.273 236.856 103.832 236.883 103.381 236.883C102.976 236.874 102.409 236.946 101.887 236.73C101.365 236.531 100.933 236.153 100.536 235.721C99.7352 234.838 99.042 233.658 97.9706 232.208C95.7919 229.334 94.1174 228.46 92.4969 227.803C91.6596 227.496 90.7953 227.28 89.6879 227.154C88.5806 227.037 87.2211 227.019 85.4475 227.271C84.5382 227.406 83.818 227.559 83.1878 227.866C82.5486 228.127 82.0083 228.451 81.5221 228.721C80.5588 229.307 79.8026 229.802 79.0914 230.352C77.6509 231.433 76.2194 232.559 73.7076 235.153C72.4832 236.477 71.6008 237.513 70.9436 238.423C70.6105 238.873 70.2865 239.27 70.0164 239.666C69.7553 240.071 69.5121 240.45 69.269 240.828C68.7469 241.567 68.3417 242.368 67.8106 243.368C67.5225 243.855 67.2794 244.422 67.0183 245.08C66.7572 245.737 66.3971 246.44 66.1721 247.323C66.046 247.755 65.9199 248.161 65.8029 248.539C65.7489 248.728 65.6859 248.917 65.6319 249.088C65.5959 249.269 65.5689 249.449 65.5329 249.62C65.4068 250.314 65.2898 250.917 65.1908 251.476C65.0737 252.025 65.1007 252.538 65.0557 253.016C65.0287 253.457 65.0016 253.872 64.9746 254.286C64.9746 254.313 64.9656 254.34 64.9926 254.331H65.1367C65.3708 254.331 65.6049 254.331 65.848 254.331C66.3341 254.331 66.8473 254.331 67.4145 254.331C68.5489 254.331 69.9172 254.331 71.7359 254.331C76.5975 254.331 81.4562 254.331 86.3118 254.331C93.5952 254.304 93.6132 254.304 100.897 254.277C105.758 254.277 110.62 254.271 115.482 254.259C120.865 254.259 120.541 254.439 120.541 254.61C120.541 254.781 120.865 254.953 115.482 254.953L115.491 254.998Z" fill="#040000"/>
<path d="M263.473 118.437C257.381 118.419 251.283 118.404 245.179 118.392C239.075 118.38 232.974 118.374 226.876 118.374C220.778 118.374 214.677 118.389 208.573 118.419C206.286 118.419 204.566 118.419 203.135 118.419C202.424 118.419 201.775 118.419 201.172 118.419C200.866 118.419 200.569 118.419 200.281 118.419H199.696C199.561 118.419 199.399 118.437 199.282 118.41V117.986C199.309 117.653 199.318 117.32 199.327 116.986C199.336 116.689 199.327 116.392 199.363 116.086C199.426 115.473 199.453 114.825 199.57 114.104C199.768 112.672 200.101 110.96 200.794 108.753C201.505 106.555 202.235 104.97 202.892 103.682C203.54 102.394 204.143 101.403 204.755 100.43C206.016 98.5021 207.303 96.5654 210.427 93.1874C213.614 89.8635 215.469 88.4763 217.297 87.08C218.233 86.4044 219.178 85.7468 220.421 85.0172C221.042 84.6479 221.744 84.2785 222.572 83.9002C222.996 83.7201 223.437 83.5399 223.959 83.3958C224.481 83.2516 225.003 83.2066 225.579 83.0985C227.866 82.7562 229.631 82.7742 231.071 82.9274C232.521 83.0895 233.664 83.3507 234.763 83.7561C235.852 84.1704 236.923 84.6929 238.103 85.5487C239.291 86.4044 240.569 87.6295 241.965 89.4852C243.342 91.3408 244.225 92.8271 245.161 93.854C245.62 94.3675 246.097 94.7548 246.602 94.962C247.106 95.1782 247.601 95.1241 248.204 95.1241C248.78 95.1241 249.365 95.0971 249.978 95.1151C250.59 95.1692 251.247 95.2322 251.967 95.3043C252.679 95.4304 253.462 95.5836 254.353 95.7817C255.208 96.079 256.208 96.3042 257.252 96.8176C258.341 97.241 259.188 97.8085 259.98 98.2499C260.736 98.7543 261.375 99.2318 261.952 99.6642C262.492 100.151 262.978 100.583 263.437 100.997C263.851 101.457 264.247 101.88 264.634 102.313C265.049 102.727 265.346 103.231 265.724 103.718C265.904 103.97 266.102 104.222 266.282 104.492C266.453 104.781 266.624 105.078 266.804 105.393C266.984 105.709 267.182 106.033 267.38 106.384C267.551 106.753 267.723 107.141 267.912 107.555C268.326 108.366 268.623 109.339 269.001 110.438C269.46 112.086 269.73 113.41 269.82 114.455C269.982 115.491 269.964 116.248 269.964 116.797C269.964 117.878 269.892 118.103 269.802 118.103C269.712 118.103 269.631 117.878 269.532 116.815C269.478 116.284 269.46 115.545 269.271 114.527C269.154 113.509 268.875 112.221 268.425 110.609C268.056 109.537 267.768 108.591 267.362 107.807C267.182 107.402 267.002 107.033 266.84 106.672C266.642 106.33 266.453 106.015 266.273 105.708C266.093 105.402 265.922 105.114 265.76 104.835C265.58 104.564 265.391 104.321 265.211 104.087C264.842 103.619 264.554 103.123 264.148 102.727C263.77 102.312 263.383 101.898 262.987 101.457C262.537 101.06 262.069 100.637 261.546 100.169C260.988 99.7452 260.358 99.2858 259.638 98.7904C258.864 98.367 258.044 97.8175 257 97.4031C255.992 96.8987 255.019 96.6825 254.191 96.3943C253.336 96.1961 252.58 96.052 251.886 95.9168C251.184 95.8538 250.554 95.7907 249.96 95.7277C249.365 95.7007 248.798 95.7277 248.231 95.7277C247.934 95.7277 247.691 95.7367 247.358 95.7277C247.034 95.7277 246.7 95.6646 246.385 95.5385C245.755 95.2953 245.215 94.8359 244.72 94.2954C243.72 93.2055 242.847 91.7101 241.497 89.8905C238.751 86.2693 236.635 85.1613 234.591 84.3326C233.538 83.9453 232.44 83.675 231.044 83.5219C229.649 83.3688 227.938 83.3507 225.696 83.675C225.147 83.7741 224.598 83.8281 224.139 83.9543C223.671 84.0714 223.239 84.2425 222.843 84.4137C222.041 84.774 221.348 85.1343 220.745 85.5036C219.529 86.2243 218.593 86.8729 217.675 87.5485C215.874 88.9267 214.047 90.3139 210.896 93.5928C207.807 96.9257 206.529 98.8354 205.296 100.736C204.692 101.7 204.107 102.673 203.468 103.943C202.82 105.204 202.109 106.762 201.397 108.915C200.713 111.077 200.371 112.753 200.182 114.158C200.065 114.861 200.047 115.5 199.975 116.095C199.939 116.392 199.948 116.689 199.93 116.977C199.93 117.248 199.912 117.509 199.903 117.77C199.903 117.806 199.885 117.842 199.93 117.833H200.191C200.479 117.833 200.776 117.833 201.082 117.833C201.685 117.833 202.334 117.833 203.045 117.833C204.476 117.833 206.187 117.833 208.474 117.833C214.578 117.833 220.682 117.833 226.786 117.833C232.89 117.815 239 117.797 245.116 117.779C251.226 117.779 257.336 117.773 263.446 117.761C270.216 117.761 269.802 117.941 269.802 118.112C269.802 118.284 270.216 118.455 263.446 118.455L263.473 118.437Z" fill="#040000"/>
<path d="M243.676 149.082C245.323 149.55 246.52 150.073 247.475 150.577C248.429 151.091 249.158 151.586 249.798 152.199C250.419 152.811 251.04 153.514 251.355 154.631C251.391 154.766 251.445 154.91 251.445 155.063C251.463 155.297 251.49 155.541 251.508 155.784V155.883C251.508 155.883 251.454 155.883 251.427 155.892H251.22C251.085 155.892 250.941 155.892 250.797 155.892C250.644 155.892 250.482 155.892 250.311 155.892C249.654 155.892 248.906 155.892 248.06 155.892C243.541 155.892 239.021 155.886 234.501 155.874C227.731 155.901 227.713 155.901 220.952 155.919C220.106 155.919 219.367 155.919 218.701 155.919C218.548 155.919 218.404 155.919 218.251 155.919H218.017C218.017 155.919 217.918 155.937 217.918 155.901V155.784C217.954 155.514 217.981 155.261 217.999 155.009C218.053 154.694 218.143 154.397 218.242 154.126C218.701 153.072 219.349 152.415 220.016 151.847C221.393 150.766 222.933 149.848 226.246 148.938C227.074 148.722 227.812 148.559 228.469 148.451C228.803 148.397 229.109 148.334 229.406 148.298C229.667 148.262 229.919 148.226 230.162 148.199C230.18 148.406 230.171 147.659 230.18 147.253C230.18 146.803 230.189 146.38 230.189 145.956C230.198 144.254 230.207 142.551 230.225 139.173C230.219 134.657 230.21 130.138 230.198 125.616C230.198 121.689 230.198 119.95 230.198 117.77C231.602 117.77 233.367 117.77 236.527 117.77C237.679 117.77 238.652 117.77 239.264 117.77C239.255 122.409 239.255 123.31 239.237 129.228C239.249 133.75 239.258 138.275 239.264 142.803C239.264 147.821 239.129 148.487 238.958 148.487C238.787 148.487 238.67 147.812 238.67 142.803C238.643 136.038 238.643 136.011 238.607 129.246C238.643 123.544 238.643 122.743 238.67 118.356C238.067 118.356 237.373 118.356 236.563 118.356C233.664 118.356 232.071 118.356 230.774 118.356C230.774 120.346 230.774 121.968 230.774 125.571C230.81 132.327 230.81 132.372 230.846 139.137C230.828 142.524 230.828 144.218 230.819 145.92C230.819 146.343 230.819 146.767 230.81 147.217C230.81 147.442 230.81 147.677 230.81 147.92C230.81 148.064 230.81 148.217 230.81 148.37V148.722C230.774 148.803 230.594 148.776 230.495 148.803C230.198 148.839 229.892 148.884 229.559 148.929C229.271 148.965 228.965 149.019 228.64 149.082C227.992 149.19 227.272 149.343 226.462 149.559C223.23 150.442 221.753 151.325 220.457 152.316C219.836 152.838 219.241 153.442 218.836 154.343C218.737 154.568 218.674 154.82 218.611 155.081C218.611 155.153 218.593 155.225 218.593 155.297C218.575 155.342 218.647 155.306 218.665 155.324C219.322 155.324 220.061 155.324 220.898 155.324C225.417 155.324 229.937 155.324 234.456 155.324C241.227 155.297 241.254 155.297 248.024 155.27C248.87 155.27 249.618 155.27 250.275 155.27C250.437 155.27 250.599 155.27 250.761 155.27C250.815 155.27 250.788 155.27 250.797 155.27C250.797 155.27 250.797 155.27 250.797 155.189C250.797 155.063 250.752 154.946 250.725 154.829C250.464 153.901 249.915 153.262 249.338 152.712C248.753 152.154 248.06 151.694 247.151 151.208C246.241 150.73 245.08 150.226 243.477 149.767C241.092 149.118 239.93 148.974 239.399 148.821C238.868 148.677 238.949 148.604 238.958 148.514C238.967 148.424 238.904 148.334 239.462 148.343C240.011 148.37 241.218 148.424 243.667 149.091L243.676 149.082Z" fill="#040000"/>
<path d="M359.868 254.998C342.141 254.998 342.141 254.953 324.415 254.953C306.688 254.953 306.679 254.935 288.952 254.935C271.225 254.935 271.216 254.98 253.489 254.98C235.762 254.98 235.753 254.998 218.026 254.998C200.299 254.998 200.29 254.926 182.554 254.926C164.818 254.926 164.827 254.953 147.1 254.953C129.373 254.953 129.355 254.953 111.61 254.953C93.8654 254.953 93.8564 254.926 76.1025 254.926C58.3486 254.926 58.3485 254.953 40.5946 254.953C27.4862 254.953 25.7216 254.817 25.7216 254.646C25.7216 254.475 27.4772 254.358 40.5946 254.358C58.3215 254.358 58.3215 254.295 76.0484 254.295C93.7754 254.295 93.7844 254.358 111.511 254.358C129.238 254.358 129.247 254.367 146.974 254.367C164.701 254.367 164.71 254.295 182.437 254.295C200.164 254.295 200.173 254.349 217.909 254.349C235.645 254.349 235.636 254.349 253.363 254.349C271.09 254.349 271.108 254.349 288.853 254.349C306.598 254.349 306.607 254.295 324.361 254.295C342.115 254.295 342.114 254.277 359.868 254.277C372.977 254.277 372.176 254.457 372.176 254.628C372.176 254.799 372.977 254.971 359.868 254.971V254.998Z" fill="#040000"/>
<path d="M193.367 100.583C192.511 100.106 192.529 100.07 191.674 99.5921C190.819 99.1147 190.819 99.1057 189.963 98.6282C189.108 98.1508 189.081 98.1959 188.226 97.7274C187.371 97.259 187.353 97.268 186.497 96.7996C185.642 96.3222 185.669 96.2591 184.814 95.7907C183.958 95.3133 183.94 95.3403 183.085 94.8629C182.221 94.3855 182.221 94.3945 181.366 93.9261C180.501 93.4487 180.519 93.4306 179.655 92.9532C178.791 92.4758 178.782 92.5028 177.917 92.0344C177.278 91.6831 177.26 91.521 177.35 91.3678C177.44 91.2147 177.575 91.1606 178.205 91.5119C179.061 91.9894 179.097 91.9353 179.952 92.4037C180.807 92.8811 180.78 92.9352 181.636 93.4126C182.491 93.89 182.491 93.899 183.346 94.3675C184.202 94.8359 184.238 94.7728 185.102 95.2502C185.957 95.7277 185.939 95.7727 186.794 96.2501C187.65 96.7275 187.65 96.7276 188.514 97.205C189.378 97.6824 189.378 97.6734 190.233 98.1418C191.098 98.6192 191.116 98.5742 191.98 99.0426C192.844 99.511 192.844 99.502 193.709 99.9794C194.348 100.331 194.222 100.466 194.132 100.619C194.051 100.772 194.006 100.943 193.367 100.592V100.583Z" fill="#040000"/>
<path d="M214.218 76.892C213.74 76.1714 213.776 76.1444 213.299 75.4147C212.822 74.6941 212.831 74.6851 212.354 73.9554C211.877 73.2348 211.832 73.2618 211.355 72.5322C210.878 71.8115 210.859 71.8205 210.373 71.0909C209.896 70.3703 209.95 70.3252 209.473 69.6046C208.996 68.8839 208.978 68.893 208.492 68.1723C208.015 67.4517 208.006 67.4517 207.519 66.731C207.042 66.0014 207.06 65.9924 206.583 65.2627C206.106 64.5331 206.079 64.5511 205.593 63.8305C205.242 63.299 205.305 63.1459 205.449 63.0468C205.593 62.9477 205.737 62.9567 206.088 63.4972C206.565 64.2178 206.619 64.1908 207.096 64.9114C207.573 65.6321 207.519 65.6771 208.006 66.3977C208.483 67.1184 208.474 67.1274 208.96 67.857C209.437 68.5777 209.5 68.5416 209.986 69.2623C210.463 69.9829 210.418 70.019 210.905 70.7396C211.382 71.4602 211.382 71.4692 211.859 72.1899C212.336 72.9105 212.345 72.9105 212.831 73.6311C213.308 74.3608 213.353 74.3247 213.84 75.0544C214.317 75.784 214.335 75.775 214.812 76.4957C215.163 77.0271 215.001 77.0992 214.848 77.1983C214.695 77.2974 214.578 77.4235 214.227 76.883L214.218 76.892Z" fill="#040000"/>
<path d="M242.244 74.7031C242.388 73.8293 242.433 73.8383 242.586 72.9736C242.73 72.0998 242.748 72.1088 242.901 71.235C243.045 70.3612 243 70.3522 243.144 69.4875C243.288 68.6227 243.27 68.6137 243.423 67.7399C243.567 66.8661 243.639 66.8842 243.793 66.0104C243.937 65.1366 243.918 65.1366 244.063 64.2629C244.207 63.3891 244.207 63.3891 244.351 62.5153C244.495 61.6415 244.531 61.6506 244.675 60.7768C244.819 59.903 244.792 59.903 244.936 59.0292C245.044 58.3897 245.197 58.3176 245.368 58.3536C245.539 58.3807 245.638 58.4887 245.53 59.1283C245.386 60.0021 245.44 60.0111 245.296 60.8759C245.152 61.7496 245.08 61.7316 244.936 62.6054C244.792 63.4792 244.774 63.4702 244.63 64.3439C244.486 65.2177 244.558 65.2267 244.405 66.1005C244.261 66.9742 244.207 66.9652 244.054 67.83C243.909 68.7038 243.901 68.7038 243.756 69.5685C243.612 70.4423 243.612 70.4423 243.468 71.3161C243.324 72.1899 243.369 72.1989 243.225 73.0727C243.081 73.9464 243.09 73.9464 242.946 74.8202C242.838 75.4598 242.667 75.3967 242.496 75.3697C242.325 75.3427 242.145 75.3517 242.253 74.7031H242.244Z" fill="#040000"/>
<path d="M261.483 85.7288C262.06 85.1703 262.096 85.1974 262.663 84.6389C263.239 84.0804 263.248 84.0894 263.824 83.5219C264.4 82.9634 264.364 82.9274 264.941 82.3598C265.517 81.8014 265.499 81.7833 266.075 81.2158C266.651 80.6574 266.705 80.7024 267.281 80.1439C267.858 79.5854 267.84 79.5674 268.416 78.9999C268.992 78.4324 268.983 78.4324 269.559 77.8649C270.135 77.2974 270.153 77.3244 270.729 76.7569C271.306 76.1894 271.288 76.1714 271.864 75.6039C272.287 75.1895 272.44 75.2255 272.566 75.3516C272.692 75.4778 272.71 75.6129 272.287 76.0272C271.711 76.5857 271.756 76.6308 271.18 77.1983C270.603 77.7568 270.558 77.7117 269.982 78.2792C269.406 78.8377 269.397 78.8377 268.821 79.3962C268.245 79.9547 268.299 80.0088 267.723 80.5763C267.146 81.1348 267.11 81.0987 266.534 81.6662C265.958 82.2247 265.958 82.2247 265.382 82.7832C264.806 83.3507 264.815 83.3507 264.238 83.9182C263.662 84.4857 263.698 84.5218 263.122 85.0802C262.546 85.6477 262.555 85.6568 261.979 86.2153C261.555 86.6296 261.456 86.4765 261.33 86.3504C261.204 86.2243 261.06 86.1252 261.492 85.7108L261.483 85.7288Z" fill="#040000"/>
<path d="M278.733 102.601C279.48 102.322 279.498 102.367 280.246 102.078C280.993 101.799 281.002 101.808 281.749 101.529C282.496 101.25 282.478 101.205 283.235 100.925C283.982 100.646 283.982 100.628 284.729 100.34C285.476 100.061 285.503 100.124 286.251 99.8443C286.998 99.5651 286.989 99.5381 287.745 99.2588C288.492 98.9796 288.492 98.9706 289.24 98.6913C289.987 98.4121 290.005 98.4391 290.752 98.1508C291.499 97.8716 291.49 97.8446 292.247 97.5563C292.805 97.3491 292.922 97.4482 292.985 97.6103C293.048 97.7725 293.012 97.9076 292.454 98.1148C291.706 98.394 291.724 98.4481 290.977 98.7363C290.23 99.0156 290.203 98.9525 289.456 99.2318C288.709 99.511 288.699 99.502 287.952 99.7813C287.205 100.061 287.232 100.133 286.476 100.412C285.728 100.691 285.711 100.646 284.954 100.925C284.207 101.205 284.207 101.205 283.451 101.484C282.703 101.763 282.703 101.772 281.956 102.051C281.209 102.331 281.227 102.385 280.471 102.664C279.724 102.943 279.724 102.961 278.976 103.24C278.418 103.448 278.391 103.267 278.328 103.105C278.265 102.943 278.175 102.79 278.724 102.583L278.733 102.601Z" fill="#040000"/>
<path d="M121.919 155.829C121.856 160.819 122.729 165.17 124.233 168.737C125.007 170.512 125.961 172.07 126.987 173.448C128.059 174.791 129.22 175.935 130.427 176.899C132.839 178.826 135.414 180.033 137.944 180.745C140.474 181.466 142.95 181.835 145.444 181.934C150.422 182.096 155.437 181.457 161.478 179.871C164.503 179.087 167.753 177.934 171.471 176.664C175.19 175.421 179.349 173.944 184.256 172.773C189.153 171.575 193.61 171.124 197.562 171.368C201.514 171.593 204.954 172.53 207.816 173.899C210.679 175.268 213.065 176.853 215.154 178.547C217.234 180.249 219.079 181.97 220.844 183.772C224.4 187.339 227.659 191.185 232.233 195.455C234.546 197.545 237.229 199.743 240.65 201.598C244.045 203.517 248.285 204.805 253.228 205.508C258.188 206.201 262.591 206.246 266.507 206.355C270.432 206.445 273.881 206.481 277.014 206.409C283.28 206.255 288.285 205.733 293.156 204.634C298.009 203.49 302.825 201.869 308.011 198.392C310.586 196.653 313.251 194.428 315.682 191.392C316.897 189.879 318.067 188.167 319.013 186.195C319.976 184.231 320.777 182.024 321.218 179.583C321.651 177.142 321.705 174.782 321.75 172.575C321.795 170.359 321.831 168.26 322.047 166.287C322.515 162.333 323.703 158.973 325.243 156.198C326.782 153.415 328.61 151.181 330.464 149.244C332.319 147.289 334.255 145.659 336.244 144.101C340.224 140.984 344.5 138.308 349.803 134.948C352.459 133.264 355.376 131.426 358.581 129.183C360.175 128.048 361.849 126.823 363.542 125.409C365.261 124.022 366.963 122.409 368.655 120.581C372.04 116.905 374.192 113.023 375.39 109.339C376.542 105.627 376.785 102.177 376.587 99.0787C376.389 97.5383 376.263 96.061 375.876 94.6918C375.696 94.0072 375.597 93.3135 375.354 92.674C375.137 92.0254 374.921 91.3949 374.705 90.7643C374.516 90.1247 374.237 89.5392 373.976 88.9447C373.715 88.3592 373.454 87.7737 373.202 87.1971C372.608 86.0802 372.022 84.9722 371.392 83.9002C368.781 79.6485 365.576 75.739 360.949 71.5323C358.599 69.4785 355.925 67.2895 352.603 65.2177C349.299 63.1188 345.464 60.9569 340.827 59.0743C336.19 57.1826 331.896 56.2187 328.025 55.7413C324.144 55.2909 320.696 55.2549 317.563 55.3179C311.297 55.4801 306.291 55.9755 301.268 56.2007C296.253 56.4349 291.166 56.534 284.927 55.5341C281.821 55.0027 278.4 54.228 274.772 52.6426C272.944 51.8769 271.108 50.841 269.253 49.5798C267.398 48.3097 265.643 46.6703 263.986 44.7516C262.366 42.7878 261.114 40.7701 259.971 38.8604C258.837 36.9507 257.819 35.1311 256.766 33.4826C254.713 30.1587 252.399 27.5914 250.014 25.5826C247.619 23.5919 245.206 22.1236 242.829 20.9435C240.452 19.7635 238.103 18.8897 235.699 18.1961C230.9 16.8269 225.895 16.0792 219.637 16.1783C216.513 16.2504 213.065 16.4936 209.23 17.2412C205.395 17.9709 201.145 19.1329 196.518 21.0336C187.281 24.9611 181.24 29.6993 176.783 34.0501C172.327 38.455 169.221 42.4275 166.16 46.409C163.107 50.4086 160.218 54.5252 156.364 59.5156C154.402 61.9748 152.259 64.7133 149.522 67.5598C146.803 70.4063 143.589 73.514 139.295 76.2074C137.134 77.5226 135.045 78.6666 132.947 79.4503C132.434 79.6665 131.921 79.8737 131.426 80.0808C130.913 80.243 130.4 80.4051 129.895 80.5673C128.905 80.9096 127.897 81.1078 126.951 81.378C123.098 82.2698 119.65 82.6841 116.526 83.0805C110.278 83.8191 105.272 84.3867 100.465 85.7739C98.0787 86.5035 95.747 87.4404 93.5052 88.8366C91.2725 90.2238 89.1388 92.1155 87.4102 94.6918C85.7086 97.2591 84.3402 100.511 84.034 104.384C83.863 106.321 84.034 108.384 84.4662 110.528C84.9433 112.663 85.8347 114.843 87.1131 116.968C89.0308 120.103 91.5786 122.283 94.1534 123.643C96.7283 125.022 99.2041 125.787 101.383 126.4C105.776 127.535 109.008 128.147 111.286 128.787C112.43 129.102 113.339 129.363 114.05 129.625C114.77 129.859 115.302 130.075 115.689 130.237C116.463 130.571 116.679 130.697 116.661 130.733C116.643 130.769 116.4 130.724 115.599 130.462C115.203 130.327 114.671 130.147 113.942 129.949C113.222 129.724 112.313 129.49 111.169 129.201C108.891 128.625 105.659 128.057 101.221 126.931C99.015 126.337 96.4943 125.562 93.8564 124.157C91.2095 122.779 88.5535 120.5 86.5909 117.284C85.2764 115.113 84.3582 112.87 83.8721 110.681C83.4219 108.483 83.2418 106.357 83.4219 104.375C83.728 100.394 85.1324 97.0519 86.879 94.4125C88.6526 91.7642 90.8403 89.8095 93.1271 88.3772C95.4228 86.9449 97.7906 85.9811 100.212 85.2334C105.083 83.8102 110.116 83.2336 116.337 82.495C119.443 82.1076 122.873 81.6843 126.672 80.8195C127.609 80.5583 128.599 80.3601 129.58 80.0268C130.075 79.8737 130.571 79.7115 131.084 79.5494C131.579 79.3602 132.074 79.144 132.587 78.9368C133.092 78.7296 133.605 78.5135 134.136 78.2973C134.397 78.1892 134.658 78.0811 134.928 77.964C135.18 77.8289 135.432 77.6847 135.693 77.5496C136.711 76.9731 137.8 76.4506 138.844 75.775C143.085 73.1357 146.263 70.064 148.964 67.2535C151.683 64.443 153.807 61.7226 155.77 59.2814C159.614 54.3271 162.504 50.2104 165.556 46.2109C168.617 42.2203 171.723 38.2298 176.207 33.7889C178.449 31.5729 181.078 29.2759 184.328 27.0419C187.569 24.7989 191.404 22.574 196.059 20.6012C205.404 16.7368 213.083 15.7729 219.358 15.6108C225.67 15.5027 230.729 16.2233 235.591 17.5745C238.022 18.2591 240.398 19.1509 242.82 20.322C245.233 21.502 247.691 22.9703 250.14 24.9791C252.597 26.9698 254.974 29.6002 257.072 32.9421C259.233 36.239 261.105 40.2656 264.211 44.1751C267.38 48.0395 271.162 50.4446 274.709 52.003C278.265 53.5974 281.65 54.3811 284.72 54.9216C290.896 55.9305 295.938 55.8584 300.944 55.6152C305.958 55.39 310.955 54.8855 317.257 54.7054C320.408 54.6333 323.883 54.6604 327.809 55.0927C331.725 55.5431 336.1 56.507 340.791 58.3896C350.145 62.2451 356.393 66.74 361.147 70.8747C365.837 75.1085 369.087 79.0449 371.761 83.3417C372.437 84.4137 372.995 85.5487 373.625 86.6747C374.147 87.8457 374.723 89.0258 375.191 90.2869C375.606 91.566 376.137 92.8541 376.407 94.2864C376.56 94.998 376.776 95.7007 376.875 96.4483C376.965 97.196 377.064 97.9707 377.163 98.7544C377.397 101.916 377.217 105.456 376.065 109.267C374.849 113.041 372.707 117.05 369.285 120.788C367.593 122.671 365.855 124.292 364.136 125.706C362.434 127.147 360.742 128.373 359.148 129.526C355.934 131.796 353.008 133.633 350.352 135.318C345.04 138.669 340.782 141.335 336.821 144.407C334.831 145.929 332.922 147.551 331.077 149.46C329.231 151.361 327.422 153.532 325.882 156.243C324.342 158.946 323.154 162.207 322.65 166.071C322.416 168.008 322.371 170.079 322.326 172.295C322.272 174.511 322.236 176.89 321.822 179.403C320.939 184.429 318.734 188.465 316.285 191.555C313.809 194.662 311.144 196.959 308.524 198.734C303.275 202.292 298.387 203.985 293.489 205.148C288.565 206.265 283.514 206.814 277.221 206.976C274.07 207.057 270.613 207.021 266.678 206.931C262.753 206.823 258.332 206.778 253.327 206.102C248.33 205.409 244 204.121 240.515 202.202C237.013 200.337 234.285 198.121 231.936 196.013C227.299 191.717 224.031 187.87 220.484 184.312C216.955 180.781 213.254 177.25 207.645 174.511C204.837 173.196 201.496 172.214 197.607 171.98C193.727 171.737 189.333 172.151 184.463 173.331C179.583 174.475 175.433 175.953 171.714 177.205C167.996 178.475 164.728 179.637 161.667 180.439C155.563 182.06 150.485 182.727 145.417 182.574C142.878 182.474 140.348 182.114 137.737 181.384C135.135 180.655 132.47 179.421 129.958 177.43C128.716 176.43 127.51 175.25 126.393 173.863C125.331 172.431 124.341 170.827 123.539 168.999C121.982 165.323 121.09 160.864 121.162 155.793C121.198 152.046 121.667 148.812 122.189 146.064C122.432 144.686 122.666 143.416 122.846 142.254C123.017 141.11 123.008 140.038 122.846 139.074C122.54 137.146 121.811 135.678 121.054 134.606C120.298 133.534 119.542 132.832 118.93 132.327C117.669 131.345 117.003 131.102 116.769 130.922C116.517 130.76 116.643 130.769 116.652 130.724C116.67 130.688 116.58 130.598 116.868 130.688C117.138 130.796 117.867 130.967 119.218 131.949C119.884 132.453 120.703 133.165 121.514 134.282C122.324 135.39 123.125 136.939 123.467 138.975C123.647 139.993 123.665 141.137 123.494 142.344C123.314 143.542 123.089 144.803 122.846 146.181C122.333 148.92 121.883 152.1 121.847 155.793L121.919 155.829Z" fill="#040000"/>
<path d="M134.316 196.851C135.081 196.77 135.45 196.77 135.819 196.743C136.189 196.707 136.558 196.725 137.215 196.491C137.377 196.428 137.503 196.374 137.593 196.311C137.692 196.239 137.71 196.203 137.809 196.085C137.962 195.896 138.079 195.761 138.178 195.626C138.331 195.428 138.421 195.059 138.34 194.374C138.277 194.014 138.232 193.743 138.196 193.518C138.151 193.32 138.079 193.176 137.998 193.041C137.827 192.771 137.593 192.536 137.017 192.041C136.486 191.545 136.18 191.464 135.846 191.347C135.513 191.248 135.171 191.176 134.451 191.131C133.758 191.113 133.38 191.095 132.974 191.086C132.605 191.086 132.227 191.059 131.498 191.149C130.778 191.248 130.427 191.356 130.093 191.473C129.76 191.599 129.418 191.717 128.833 192.113C128.266 192.527 128.059 192.816 127.861 193.095C127.69 193.383 127.501 193.689 127.411 194.365C127.357 195.041 127.483 195.374 127.609 195.671C127.753 195.959 127.915 196.275 128.509 196.626C129.121 196.95 129.49 196.986 129.841 197.049C130.193 197.094 130.553 197.112 131.3 197.121C132.416 197.121 132.578 197.293 132.56 197.464C132.542 197.644 132.407 197.716 131.3 197.716C130.544 197.716 130.148 197.698 129.751 197.653C129.364 197.59 128.941 197.563 128.212 197.175C127.492 196.743 127.249 196.32 127.078 195.941C126.924 195.554 126.78 195.131 126.843 194.311C126.942 193.5 127.177 193.131 127.384 192.789C127.609 192.455 127.861 192.122 128.509 191.654C129.166 191.212 129.544 191.068 129.904 190.915C130.274 190.78 130.652 190.645 131.426 190.537C132.2 190.446 132.578 190.464 132.965 190.464C133.344 190.473 133.722 190.464 134.487 190.5C135.261 190.546 135.657 190.636 136.035 190.753C136.405 190.879 136.837 191.032 137.413 191.572C137.98 192.059 138.286 192.356 138.502 192.725C138.61 192.906 138.7 193.113 138.763 193.374C138.799 193.608 138.844 193.897 138.907 194.275C138.961 194.662 138.961 194.986 138.925 195.248C138.907 195.383 138.88 195.5 138.853 195.617C138.808 195.77 138.745 195.86 138.691 195.95C138.574 196.13 138.448 196.284 138.313 196.464C138.268 196.527 138.142 196.707 137.98 196.815C137.827 196.932 137.647 197.013 137.449 197.085C136.675 197.356 136.27 197.347 135.891 197.401C135.513 197.437 135.144 197.464 134.397 197.536C133.353 197.68 133.407 197.572 133.335 197.383C133.308 197.302 133.263 197.22 133.371 197.121C133.479 197.022 133.749 196.905 134.325 196.833L134.316 196.851Z" fill="#040000"/>
<path d="M122.495 212.66C122.99 212.786 123.251 212.858 123.53 212.93C123.782 212.984 124.043 213.066 124.557 213.084C125.07 213.093 125.304 213.039 125.538 212.975C125.79 212.903 125.952 212.831 126.384 212.48C126.834 212.138 126.834 212.021 126.843 211.822C126.825 211.669 126.744 211.345 126.573 210.913C126.366 210.471 126.195 210.282 126.024 210.093C125.853 209.913 125.673 209.733 125.259 209.444C124.836 209.174 124.602 209.066 124.368 208.949C124.133 208.841 123.89 208.742 123.377 208.652C122.864 208.562 122.594 208.562 122.333 208.553C122.072 208.553 121.802 208.553 121.27 208.58C120.739 208.616 120.46 208.643 120.199 208.67C119.947 208.706 119.677 208.733 119.245 208.931C118.831 209.147 118.759 209.327 118.705 209.498C118.66 209.679 118.678 209.895 118.903 210.363C119.137 210.823 119.308 211.021 119.47 211.21C119.641 211.399 119.812 211.588 120.217 211.904C120.829 212.336 120.892 212.453 120.82 212.624C120.757 212.768 120.577 212.876 119.866 212.381C119.407 212.03 119.209 211.813 119.002 211.606C118.813 211.39 118.606 211.165 118.344 210.642C118.092 210.129 118.02 209.742 118.11 209.39C118.191 209.048 118.426 208.679 118.984 208.408C119.542 208.156 119.839 208.147 120.118 208.102C120.406 208.075 120.667 208.048 121.225 208.012C121.721 207.994 122.009 207.976 122.342 207.958C122.621 207.958 122.909 207.94 123.476 208.039C124.043 208.138 124.314 208.246 124.584 208.363C124.845 208.48 125.115 208.598 125.601 208.913C126.078 209.237 126.285 209.453 126.483 209.67C126.672 209.886 126.87 210.111 127.122 210.651C127.248 210.913 127.302 211.156 127.338 211.309C127.383 211.462 127.429 211.642 127.429 211.813C127.429 211.994 127.384 212.183 127.275 212.381C127.14 212.606 126.96 212.732 126.744 212.912C126.33 213.255 126.006 213.453 125.727 213.534C125.439 213.633 125.133 213.723 124.548 213.705C123.962 213.678 123.692 213.615 123.404 213.57C123.125 213.516 122.855 213.453 122.324 213.318C121.568 213.129 121.667 213.002 121.667 212.822C121.667 212.66 121.685 212.444 122.495 212.651V212.66Z" fill="#040000"/>
<path d="M111.628 222.488C112.078 222.326 112.268 222.389 112.457 222.398C112.646 222.425 112.835 222.443 113.204 222.542C113.564 222.65 113.735 222.749 113.897 222.848C114.059 222.947 114.221 223.055 114.491 223.326C114.752 223.614 114.851 223.785 114.95 223.956C115.04 224.136 115.13 224.326 115.166 224.722C115.193 225.118 115.148 225.316 115.112 225.515C115.067 225.704 115.022 225.911 114.797 226.253C114.554 226.596 114.356 226.695 114.176 226.794C113.987 226.875 113.798 226.956 113.429 227.037C113.051 227.1 112.871 227.1 112.691 227.109C112.511 227.109 112.322 227.118 111.952 227.046C111.574 226.965 111.394 226.866 111.214 226.767C111.052 226.65 110.836 226.532 110.647 226.109C110.503 225.677 110.557 225.497 110.557 225.316C110.557 225.145 110.575 224.974 110.575 224.623C110.566 223.965 110.566 223.902 110.548 223.245C110.548 222.731 110.683 222.668 110.854 222.668C111.025 222.668 111.142 222.74 111.133 223.245C111.133 223.929 111.187 223.929 111.187 224.623C111.187 224.965 111.169 225.136 111.151 225.307C111.142 225.47 111.106 225.65 111.187 225.884C111.286 226.109 111.403 226.19 111.511 226.271C111.628 226.343 111.754 226.415 112.06 226.487C112.367 226.55 112.529 226.523 112.691 226.514C112.853 226.496 113.015 226.478 113.303 226.433C113.591 226.37 113.726 226.316 113.852 226.262C113.969 226.199 114.104 226.136 114.275 225.902C114.437 225.659 114.473 225.515 114.518 225.37C114.554 225.226 114.59 225.073 114.572 224.776C114.545 224.479 114.482 224.335 114.428 224.208C114.365 224.082 114.293 223.947 114.095 223.722C113.879 223.506 113.744 223.434 113.609 223.371C113.474 223.308 113.33 223.245 113.042 223.154C112.745 223.073 112.592 223.073 112.439 223.064C112.295 223.064 112.105 223.055 111.916 223.127C111.79 223.19 111.808 223.154 111.727 223.154C111.664 223.154 111.574 223.154 111.484 223.154C111.403 223.145 111.304 223.154 111.259 223.055C111.196 222.965 111.295 222.632 111.646 222.497L111.628 222.488Z" fill="#040000"/>
</svg>
