<svg width="182" height="61" viewBox="0 0 182 61" fill="none" xmlns="http://www.w3.org/2000/svg">
<path d="M120.919 18.9708C115.188 18.9528 109.453 18.9378 103.715 18.9258C97.9768 18.9138 92.2388 18.9077 86.5009 18.9077C80.763 18.9077 75.0251 18.9228 69.2872 18.9528C62.3098 18.9618 61.1304 18.9618 55.3325 18.9708C55.3325 19.142 55.3325 19.3672 55.3325 19.6194C55.3325 20.1329 55.3325 20.7995 55.3325 21.5291C55.2965 30.1227 55.2965 30.1587 55.2605 38.7614C55.2605 40.7251 55.2605 42.2024 55.2605 42.6888C60.0681 42.6888 61.6256 42.6798 67.9817 42.6708C73.7256 42.6708 79.4666 42.6708 85.2045 42.6708C90.9484 42.6828 96.6923 42.6918 102.436 42.6978C108.18 42.6858 113.924 42.6768 119.668 42.6708C121.577 42.6708 122.99 42.6798 124.034 42.7068C124.539 42.7249 124.962 42.7339 125.331 42.7429C125.502 42.7429 125.655 42.7608 125.799 42.7699C125.862 42.7789 125.925 42.7879 125.979 42.7969C125.997 42.7338 126.006 42.6798 126.024 42.6257C126.042 42.5357 126.051 42.4636 126.069 42.4096C126.096 42.3015 126.132 42.2654 126.168 42.2654C126.204 42.2654 126.231 42.3015 126.267 42.4096C126.285 42.4636 126.294 42.5357 126.312 42.6257C126.321 42.7969 126.339 42.9771 126.348 43.1572C126.042 43.1753 125.718 43.1843 125.34 43.2023C124.971 43.2113 124.548 43.2203 124.043 43.2383C122.981 43.2383 121.577 43.2563 119.677 43.2653C111.088 43.2924 111.061 43.2924 102.472 43.3284C93.8834 43.2924 93.8474 43.2924 85.2585 43.2653C79.5206 43.2653 73.7827 43.2623 68.0447 43.2563C60.9774 43.2924 59.5549 43.3014 54.6483 43.3194C54.6483 42.1303 54.6483 40.662 54.6483 38.8424C54.6663 33.1073 54.6843 27.3632 54.7023 21.6101C54.7023 19.9887 54.7023 18.6375 54.7023 18.3583C60.7163 18.3583 61.9677 18.3583 69.2331 18.3583C74.977 18.3583 80.7179 18.3583 86.4559 18.3583C92.1938 18.3403 97.9377 18.3222 103.688 18.3042C109.432 18.3042 115.179 18.2982 120.928 18.2862C122.432 18.2952 123.557 18.3042 124.431 18.3132C124.836 18.3223 125.187 18.3402 125.493 18.3493C125.844 18.3673 126.159 18.3763 126.447 18.3943C126.411 19.178 126.375 19.196 126.33 19.3041C126.285 19.3762 126.24 19.3491 126.195 19.3491C126.15 19.3491 126.105 19.3762 126.06 19.3041C126.015 19.2681 125.979 18.9258 125.943 18.8898C125.916 18.8898 125.88 18.9077 125.853 18.9077C125.736 18.9077 125.619 18.9168 125.493 18.9258C125.187 18.9348 124.836 18.9438 124.431 18.9528C123.557 18.9528 122.441 18.9708 120.928 18.9798L120.919 18.9708Z" fill="black"/>
<path d="M132.011 49.1025C124.515 49.0845 117.015 49.0695 109.513 49.0575C102.01 49.0455 94.5076 49.0394 87.0051 49.0394C79.5026 49.0394 72.0001 49.0544 64.4976 49.0845C55.9897 49.0845 53.784 49.0935 47.4819 49.1025C47.4819 48.3008 47.4819 46.0037 47.4819 42.905C47.5179 31.654 47.5179 31.627 47.5539 20.3761C47.5539 16.4666 47.5539 13.8633 47.5539 12.5481C52.6226 12.5481 55.1795 12.5482 62.805 12.5302C70.3135 12.5302 77.822 12.5302 85.3305 12.5302C92.839 12.5422 100.351 12.5511 107.865 12.5571C115.374 12.5451 122.885 12.5362 130.4 12.5302C131.615 12.5302 132.695 12.5302 133.65 12.5302C133.632 14.0525 133.623 15.2596 133.614 16.2414C133.596 17.1152 133.569 17.7548 133.551 18.2142C133.497 19.133 133.425 19.3402 133.353 19.3402C133.281 19.3402 133.209 19.133 133.164 18.2142C133.137 17.7548 133.119 17.1242 133.101 16.2414C133.101 15.4217 133.083 14.4038 133.065 13.1156C132.29 13.1156 131.399 13.1156 130.4 13.1156C122.909 13.1337 115.41 13.1547 107.901 13.1787C100.405 13.1547 92.9021 13.1337 85.3935 13.1156C77.891 13.1156 70.3885 13.1126 62.886 13.1066C55.0804 13.1336 52.8027 13.1426 48.1661 13.1607C48.1661 14.9623 48.1661 17.1783 48.1841 20.304C48.1661 27.8107 48.1481 35.3203 48.1301 42.8329C48.1301 45.6524 48.1301 47.7333 48.1301 48.4719C54.1351 48.4719 56.2778 48.4719 64.4346 48.4719C71.9431 48.4719 79.4515 48.4719 86.9601 48.4719C94.4686 48.4539 101.98 48.4359 109.495 48.4179C117.009 48.4179 124.521 48.4119 132.029 48.3998C132.263 48.3998 132.497 48.3998 132.713 48.3998C132.812 48.3998 132.902 48.3998 133.001 48.3998C133.019 46.8325 133.029 45.6885 133.038 44.8057C133.056 43.8688 133.083 43.2743 133.119 42.896C133.182 42.1393 133.263 42.2565 133.353 42.2565C133.443 42.2565 133.515 42.1393 133.578 42.896C133.614 43.2743 133.641 43.8688 133.659 44.8057C133.659 45.2831 133.677 45.8326 133.686 46.4812C133.686 47.2379 133.686 48.1026 133.695 49.1025C133.182 49.1025 132.623 49.1025 132.029 49.1025H132.011Z" fill="black"/>
<path d="M138.088 23.0784C138.061 32.4107 138.061 33.2394 138.043 41.4186C137.575 41.4186 136.657 41.4186 135.639 41.4186C128.929 41.4186 122.216 41.4127 115.5 41.4006C108.783 41.3886 102.07 41.4036 95.3599 41.4457C88.6496 41.4877 81.9364 41.4937 75.2201 41.4637C67.0184 41.4277 65.3618 41.4187 59.6989 41.4006C59.6989 40.0224 59.6989 38.3199 59.6989 36.194C59.6899 28.1859 59.6899 26.4204 59.6809 20.1779C60.2031 20.1779 62.0397 20.1779 64.3985 20.1779C71.1147 20.1779 77.831 20.1779 84.5472 20.1779C91.2695 20.1899 97.9917 20.1989 104.714 20.2049C111.436 20.1929 118.159 20.1839 124.881 20.1779C132.326 20.1779 133.326 20.313 133.326 20.4841C133.326 20.6553 132.326 20.7724 124.881 20.7724C118.177 20.7904 111.466 20.8114 104.75 20.8354C94.6936 20.7994 94.6666 20.7994 84.6103 20.7724C77.9 20.7724 71.1868 20.7694 64.4705 20.7634C62.7689 20.7634 61.3825 20.7634 60.2481 20.7634C60.2751 26.5555 60.2841 28.0418 60.3111 36.14C60.3111 38.0947 60.3111 39.6441 60.3111 40.7881C65.7129 40.8061 67.3515 40.8151 75.1391 40.8331C81.8494 40.8331 88.5596 40.8331 95.2698 40.8331C101.986 40.8331 108.702 40.8331 115.419 40.8331C122.135 40.8151 128.857 40.7971 135.585 40.7791C136.486 40.7791 137.287 40.7791 137.386 40.7791C137.386 32.8701 137.386 31.9242 137.368 23.0784C137.368 22.2046 137.368 21.457 137.377 20.8264C136.369 20.8084 135.63 20.7904 135.036 20.7814C134.406 20.7634 134.001 20.7273 133.749 20.7003C133.245 20.6372 133.326 20.5652 133.326 20.4841C133.326 20.403 133.245 20.331 133.749 20.2769C134.001 20.2499 134.406 20.2229 135.036 20.1958C135.369 20.1958 135.738 20.1779 136.171 20.1689C136.72 20.1689 137.341 20.1598 138.061 20.1508C138.061 20.9796 138.061 21.9524 138.07 23.0874L138.088 23.0784Z" fill="black"/>
<path d="M93.5502 39.6711C93.5502 38.6983 93.5953 38.6982 93.5953 37.7164C93.5953 36.7345 93.6133 36.7345 93.6133 35.7617C93.6133 34.7888 93.5683 34.7798 93.5683 33.8069C93.5683 32.8341 93.5502 32.825 93.5502 31.8522C93.5502 30.8793 93.6223 30.8703 93.6223 29.8975C93.6223 28.9246 93.5953 28.9156 93.5953 27.9427C93.5953 26.9699 93.5953 26.9609 93.5953 25.988C93.5953 25.0152 93.6223 25.0061 93.6223 24.0333C93.6223 23.0604 93.5953 23.0514 93.5953 22.0786C93.5953 21.3579 93.7303 21.2589 93.9014 21.2589C94.0724 21.2589 94.1895 21.3579 94.1895 22.0786C94.1895 23.0514 94.2525 23.0514 94.2525 24.0333C94.2525 25.0151 94.1895 25.0152 94.1895 25.988C94.1895 26.9609 94.1805 26.9699 94.1805 27.9427C94.1805 28.9156 94.2525 28.9246 94.2525 29.8975C94.2525 30.8703 94.1985 30.8793 94.1985 31.8522C94.1985 32.825 94.1985 32.8251 94.1985 33.8069C94.1985 34.7888 94.1985 34.7888 94.1985 35.7617C94.1985 36.7345 94.2525 36.7435 94.2525 37.7164C94.2525 38.6892 94.2705 38.6983 94.2705 39.6711C94.2705 40.3918 94.0904 40.3467 93.9194 40.3467C93.7483 40.3467 93.5773 40.3918 93.5773 39.6711H93.5502Z" fill="black"/>
<path d="M130.445 24.871C130.445 24.6818 130.49 24.6818 130.49 24.4837C130.49 24.2855 130.508 24.2945 130.508 24.0963C130.508 23.8981 130.463 23.9072 130.463 23.709C130.463 23.5108 130.445 23.5198 130.445 23.3217C130.445 23.1235 130.517 23.1325 130.517 22.9343C130.517 22.7361 130.49 22.7452 130.49 22.547C130.49 22.3488 130.49 22.3578 130.49 22.1596C130.49 21.9615 130.517 21.9704 130.517 21.7723C130.517 21.5741 130.49 21.5831 130.49 21.3849C130.49 21.2408 130.625 21.2228 130.796 21.2228C130.967 21.2228 131.084 21.2408 131.084 21.3849C131.084 21.5741 131.147 21.5741 131.147 21.7723C131.147 21.9704 131.084 21.9615 131.084 22.1596C131.084 22.3578 131.075 22.3488 131.075 22.547C131.075 22.7452 131.147 22.7361 131.147 22.9343C131.147 23.1325 131.093 23.1235 131.093 23.3217C131.093 23.5198 131.093 23.5108 131.093 23.709C131.093 23.9072 131.093 23.8981 131.093 24.0963C131.093 24.2945 131.147 24.2855 131.147 24.4837C131.147 24.6818 131.165 24.6728 131.165 24.871C131.165 25.0151 130.985 25.0061 130.814 25.0061C130.643 25.0061 130.472 25.0061 130.472 24.871H130.445Z" fill="black"/>
<path d="M130.445 39.8422C130.445 39.1126 130.49 39.1126 130.49 38.383C130.49 37.6533 130.508 37.6533 130.508 36.9237C130.508 36.194 130.463 36.194 130.463 35.4644C130.463 34.7347 130.445 34.7347 130.445 34.0051C130.445 33.2755 130.517 33.2755 130.517 32.5458C130.517 31.8162 130.49 31.8162 130.49 31.0865C130.49 30.3569 130.49 30.3569 130.49 29.6272C130.49 28.8976 130.517 28.8976 130.517 28.168C130.517 27.4383 130.49 27.4383 130.49 26.7087C130.49 26.1682 130.625 26.0961 130.796 26.0961C130.967 26.0961 131.084 26.1682 131.084 26.7087C131.084 27.4383 131.147 27.4383 131.147 28.168C131.147 28.8976 131.084 28.8976 131.084 29.6272C131.084 30.3569 131.075 30.3569 131.075 31.0865C131.075 31.8162 131.147 31.8162 131.147 32.5458C131.147 33.2755 131.093 33.2755 131.093 34.0051C131.093 34.7347 131.093 34.7347 131.093 35.4644C131.093 36.194 131.093 36.194 131.093 36.9237C131.093 37.6533 131.147 37.6533 131.147 38.383C131.147 39.1126 131.165 39.1126 131.165 39.8422C131.165 40.3827 130.985 40.3467 130.814 40.3467C130.643 40.3467 130.472 40.3827 130.472 39.8422H130.445Z" fill="black"/>
<path d="M27.036 32.3656C26.91 32.9962 26.775 33.2935 26.6309 33.5817C26.4779 33.861 26.3338 34.1493 25.9377 34.6537C25.8387 34.7798 25.7486 34.8789 25.6586 34.969C25.5055 35.1311 25.3705 35.2482 25.2444 35.3653L25.1544 35.4464L25.1094 35.4824C25.1094 35.4824 25.0824 35.4554 25.0734 35.4464C25.0284 35.3833 24.9834 35.3203 24.9384 35.2662C24.8573 35.1491 24.7763 35.032 24.6953 34.9239C24.5152 34.6717 24.3441 34.4195 23.993 33.9241C23.2908 32.9512 23.2548 32.9782 22.5616 31.9963C21.8593 31.0325 21.8503 31.0235 21.1481 30.0596C20.4458 29.0867 20.5089 29.0417 19.8156 28.0689C19.7076 27.9157 19.6086 27.7806 19.5185 27.6545C19.4555 27.5734 19.4015 27.4923 19.3475 27.4113C19.3025 27.3392 19.1944 27.2491 19.3205 27.2221C19.4645 27.141 19.5905 27.069 19.7166 26.9969C19.8156 26.9429 19.9147 26.8978 20.0137 26.8528C20.3018 26.7267 20.5989 26.5916 21.2291 26.4835C21.8593 26.3844 22.1834 26.4294 22.4985 26.4384C22.8136 26.4745 23.1377 26.5015 23.7409 26.7177C24.3441 26.9339 24.6052 27.132 24.8663 27.3122C25.1184 27.5104 25.3795 27.6905 25.8026 28.1679C26.2078 28.6544 26.3699 28.9336 26.5229 29.2128C26.667 29.4921 26.82 29.7804 26.964 30.4109C27.0541 30.8793 27.036 31.1496 26.982 31.2937C26.937 31.4468 26.856 31.4739 26.7659 31.4739C26.5679 31.4739 26.5229 31.3478 26.3788 30.537C26.2528 29.9876 26.1087 29.7353 25.9737 29.4921C25.8386 29.2489 25.6856 29.0147 25.3255 28.5823C24.9564 28.1589 24.7313 27.9968 24.5152 27.8166C24.2901 27.6545 24.0651 27.4743 23.5339 27.2762C23.0027 27.087 22.7146 27.0599 22.4355 27.0149C22.1564 27.0059 21.8683 26.9519 21.3101 27.042C20.7519 27.141 20.4908 27.2672 20.2388 27.3933L20.1488 27.4473C20.1488 27.4473 20.1487 27.4473 20.1307 27.4653C20.1307 27.4653 20.1307 27.4743 20.1307 27.4833L20.1488 27.5014C20.1578 27.5194 20.1307 27.4743 20.1757 27.5374C20.2117 27.5914 20.2568 27.6455 20.3018 27.7085C21.004 28.6814 20.959 28.7174 21.6522 29.6903C22.1144 30.3389 22.5765 30.9904 23.0387 31.645C23.5008 32.2996 23.969 32.9482 24.4432 33.5908C24.7853 34.0772 24.9834 34.3294 25.1544 34.5366C25.1724 34.5366 25.1814 34.5636 25.1904 34.5366V34.5186C25.2624 34.4465 25.3435 34.3474 25.4335 34.2393C25.7846 33.7979 25.9016 33.5457 26.0187 33.2935C26.1267 33.0413 26.2348 32.78 26.3428 32.2306C26.4509 31.4198 26.5769 31.4648 26.7659 31.4648C26.919 31.4648 27.1621 31.4018 27.036 32.3566V32.3656Z" fill="black"/>
<path d="M17.0067 30.5911C17.1327 29.9605 17.2677 29.6632 17.4117 29.375C17.5648 29.0957 17.7089 28.8075 18.105 28.303C18.204 28.1769 18.2941 28.0778 18.3841 27.9878C18.5371 27.8256 18.6722 27.7085 18.7982 27.5914L18.8883 27.5104L18.9333 27.4743C18.9333 27.4743 18.9603 27.5014 18.9693 27.5104C19.0143 27.5734 19.0593 27.6364 19.1043 27.6905C19.1853 27.8076 19.2664 27.9247 19.3474 28.0328C19.5275 28.285 19.6986 28.5372 20.0497 29.0327C20.7519 30.0055 20.7879 29.9785 21.4811 30.9604C22.1834 31.9242 22.1924 31.9333 22.8946 32.8971C23.5968 33.87 23.5338 33.915 24.227 34.8878C24.3351 35.041 24.4341 35.1761 24.5241 35.3022C24.5872 35.3833 24.6412 35.4644 24.6952 35.5455C24.7402 35.6175 24.8483 35.7076 24.7222 35.7346C24.5782 35.8157 24.4521 35.8877 24.3261 35.9598C24.2271 36.0138 24.128 36.0589 24.029 36.104C23.7409 36.2301 23.4438 36.3652 22.8136 36.4733C22.1833 36.5723 21.8593 36.5274 21.5442 36.5183C21.229 36.4823 20.9049 36.4552 20.3017 36.239C19.6985 36.0229 19.4374 35.8247 19.1764 35.6445C18.9243 35.4464 18.6632 35.2662 18.2401 34.7888C17.8349 34.3023 17.6729 34.0231 17.5198 33.7439C17.3758 33.4646 17.2227 33.1764 17.0786 32.5458C16.9886 32.0774 17.0066 31.8072 17.0607 31.663C17.1057 31.5099 17.1867 31.4829 17.2767 31.4829C17.4748 31.4829 17.5198 31.609 17.6639 32.4197C17.7899 32.9692 17.934 33.2214 18.069 33.4646C18.204 33.7078 18.3571 33.9421 18.7172 34.3744C19.0863 34.7978 19.3114 34.9599 19.5275 35.1401C19.7526 35.3022 19.9776 35.4824 20.5088 35.6806C21.04 35.8697 21.3281 35.8968 21.6072 35.9418C21.8863 35.9508 22.1744 36.0048 22.7326 35.9148C23.2907 35.8157 23.5518 35.6896 23.8039 35.5634L23.8939 35.5094C23.8939 35.5094 23.8939 35.5094 23.9119 35.4914C23.9119 35.4914 23.9119 35.4824 23.9119 35.4734L23.8939 35.4554C23.8849 35.4373 23.912 35.4824 23.8669 35.4193C23.8309 35.3653 23.7859 35.3112 23.7409 35.2482C23.0387 34.2753 23.0837 34.2393 22.3904 33.2664C21.9283 32.6178 21.4661 31.9663 21.004 31.3117C20.5418 30.6571 20.0737 30.0086 19.5995 29.366C19.2574 28.8796 19.0593 28.6273 18.8883 28.4201C18.8702 28.4201 18.8613 28.3931 18.8523 28.4201V28.4382C18.7802 28.5102 18.6992 28.6093 18.6092 28.7174C18.258 29.1588 18.141 29.411 18.024 29.6632C17.916 29.9155 17.8079 30.1767 17.6998 30.7262C17.5918 31.5369 17.4658 31.4919 17.2767 31.4919C17.1237 31.4919 16.8806 31.5549 17.0067 30.6001V30.5911Z" fill="black"/>
<path d="M19.4374 27.096C19.5454 27.0329 19.6445 26.9248 19.7345 26.9068C19.7975 26.9969 19.8606 27.0869 19.9236 27.177C20.0136 27.3121 20.1036 27.4293 20.1847 27.5464C20.2747 27.6815 20.3467 27.7896 20.4188 27.9067C20.5628 28.1319 20.7068 28.3481 21.0129 28.7805C21.6161 29.6452 21.6252 29.6542 22.2374 30.519C22.8496 31.3838 22.8946 31.3568 23.5068 32.2125C24.128 33.0593 24.137 33.0773 24.7582 33.924C25.0823 34.3744 25.1453 34.5005 25.4875 35.005C25.4965 35.05 25.6045 35.1131 25.5325 35.1491L25.3704 35.2572C25.2534 35.3383 25.1453 35.4104 25.0283 35.4914C24.9383 35.5545 24.8482 35.6175 24.7492 35.6806C24.6772 35.7346 24.5961 35.7887 24.5061 35.8517C24.4251 35.8967 24.3171 36.0409 24.2631 35.8788C23.5788 34.9419 23.5608 34.9239 22.8766 33.9871C22.4624 33.4165 22.0483 32.8431 21.6341 32.2666C21.0399 31.4108 21.013 31.3748 20.4188 30.519C19.8065 29.6813 19.7705 29.6452 19.1583 28.8075C18.6992 28.1679 18.7532 28.0058 18.8972 27.9067C19.0413 27.8076 19.1944 27.8256 19.6445 28.4652C20.2567 29.33 20.3107 29.2939 20.9229 30.1587C21.5441 31.0234 21.4811 31.0595 22.1023 31.9242C22.7145 32.789 22.7145 32.789 23.3267 33.6538C23.6328 34.0861 23.8039 34.2934 23.975 34.4916C24.065 34.5996 24.155 34.7077 24.245 34.8248C24.3081 34.9059 24.3801 34.9959 24.4611 35.113C24.4611 35.113 24.4611 35.113 24.4791 35.113C24.5421 35.077 24.5871 35.041 24.6412 35.005C24.6592 34.9959 24.6862 35.005 24.6952 34.987C24.7582 35.05 24.5421 34.7167 24.245 34.3114C23.8369 33.7349 23.4288 33.1583 23.0206 32.5818C22.6125 32.0053 22.1984 31.4318 21.7782 30.8613C21.157 29.9965 21.121 30.0236 20.4998 29.1678C20.0316 28.5282 20.0316 28.5192 19.5635 27.8797C19.6085 27.8527 19.4104 27.9788 19.3384 28.0058C19.2483 28.0508 19.1763 28.0598 19.1223 28.0598C19.0143 28.0598 18.9603 27.9878 18.9063 27.9157C18.8522 27.8436 18.7802 27.7896 18.8162 27.6905C18.8342 27.6364 18.8702 27.5734 18.9513 27.4923C19.0503 27.3933 19.0863 27.3572 19.4464 27.105L19.4374 27.096Z" fill="black"/>
<path d="M160.038 26.4655C160.668 26.5916 160.965 26.7267 161.253 26.8708C161.541 27.015 161.82 27.1681 162.324 27.5645C162.819 27.9698 163.009 28.231 163.198 28.4832C163.369 28.7445 163.567 29.0057 163.81 29.5913C163.918 29.8885 163.999 30.1137 164.044 30.3119C164.071 30.429 164.089 30.456 164.116 30.6181C164.143 30.7623 164.161 30.8974 164.188 31.0325L164.224 31.2397C164.224 31.2397 164.251 31.3208 164.224 31.3388H164.116C163.963 31.3388 163.801 31.3388 163.63 31.3478C163.414 31.3478 163.171 31.3478 162.837 31.3478C161.649 31.3568 161.631 31.3568 160.443 31.3658C159.245 31.3658 159.245 31.2937 158.039 31.2937C156.85 31.3027 156.832 31.3028 155.644 31.3208C154.879 31.3208 154.492 31.3208 154.105 31.3208C154.078 31.1136 154.159 30.7803 154.195 30.483C154.24 30.2849 154.285 30.0507 154.402 29.7534C154.627 29.1589 154.807 28.8796 154.996 28.6274C155.176 28.3662 155.383 28.1139 155.851 27.6905C156.328 27.2762 156.625 27.1321 156.895 26.9699C157.184 26.8348 157.463 26.6727 158.093 26.5376C158.561 26.4385 158.831 26.4655 158.975 26.5195C159.128 26.5646 159.155 26.6456 159.155 26.7357C159.155 26.9339 159.029 26.9699 158.219 27.123C157.67 27.2401 157.418 27.3933 157.175 27.5194C156.941 27.6725 156.688 27.7987 156.265 28.168C155.86 28.5463 155.671 28.7535 155.5 28.9787C155.329 29.1949 155.158 29.4381 154.96 29.9606C154.861 30.2218 154.816 30.438 154.771 30.6002C154.753 30.6902 154.753 30.6992 154.744 30.7533C154.969 30.7533 155.194 30.7533 155.635 30.7533C156.832 30.7533 156.832 30.6812 158.03 30.6812C159.227 30.6812 159.227 30.7352 160.434 30.7352C161.232 30.7352 162.03 30.7352 162.828 30.7352C163.099 30.7352 163.306 30.7352 163.477 30.7352C163.513 30.7352 163.558 30.7443 163.54 30.6902C163.54 30.7172 163.477 30.3029 163.288 29.7984C163.072 29.276 162.882 29.0598 162.72 28.8346C162.54 28.6184 162.36 28.4022 161.928 28.0419C161.487 27.6996 161.235 27.5734 160.983 27.4653C160.731 27.3482 160.47 27.2492 159.92 27.1411C159.11 27.033 159.146 26.9069 159.155 26.7177C159.155 26.5556 159.092 26.3303 160.047 26.4474L160.038 26.4655Z" fill="black"/>
<path d="M158.264 36.4913C157.634 36.3652 157.337 36.2301 157.049 36.086C156.76 35.9418 156.481 35.7887 155.977 35.3924C155.482 34.987 155.293 34.7258 155.104 34.4736C154.933 34.2123 154.735 33.9511 154.492 33.3656C154.384 33.0683 154.303 32.8431 154.258 32.6449C154.231 32.5278 154.213 32.5008 154.186 32.3387C154.159 32.1946 154.141 32.0594 154.114 31.9243L154.078 31.7171C154.078 31.7171 154.051 31.6361 154.078 31.6181H154.186C154.339 31.6181 154.501 31.618 154.672 31.609C154.888 31.609 155.131 31.609 155.464 31.609C156.652 31.6 156.67 31.6 157.859 31.591C159.056 31.591 159.056 31.6631 160.263 31.6631C161.451 31.6541 161.469 31.654 162.657 31.636C163.423 31.636 163.81 31.636 164.197 31.636C164.224 31.8432 164.143 32.1765 164.107 32.4738C164.062 32.6719 164.017 32.9061 163.9 33.2034C163.675 33.7979 163.495 34.0772 163.306 34.3294C163.126 34.5906 162.919 34.8429 162.45 35.2663C161.973 35.6806 161.676 35.8248 161.406 35.9869C161.118 36.122 160.839 36.2841 160.209 36.4193C159.74 36.5184 159.47 36.4913 159.326 36.4373C159.173 36.3923 159.146 36.3112 159.146 36.2211C159.146 36.0229 159.272 35.9869 160.083 35.8338C160.632 35.7167 160.884 35.5635 161.127 35.4374C161.361 35.2843 161.613 35.1581 162.036 34.7888C162.441 34.4105 162.63 34.2033 162.801 33.9781C162.973 33.7619 163.144 33.5187 163.342 32.9962C163.441 32.735 163.486 32.5188 163.531 32.3567C163.549 32.2666 163.549 32.2576 163.558 32.2035C163.333 32.2035 163.108 32.2035 162.666 32.2035C161.469 32.2035 161.469 32.2756 160.272 32.2756C159.074 32.2756 159.074 32.2216 157.868 32.2216C157.07 32.2216 156.271 32.2216 155.473 32.2216C155.203 32.2216 154.996 32.2216 154.825 32.2216C154.789 32.2216 154.744 32.2126 154.762 32.2666C154.762 32.2396 154.825 32.6539 155.014 33.1584C155.23 33.6808 155.419 33.897 155.581 34.1222C155.761 34.3384 155.941 34.5546 156.373 34.9149C156.814 35.2572 157.067 35.3834 157.319 35.4915C157.571 35.6086 157.832 35.7076 158.381 35.8157C159.191 35.9238 159.155 36.0499 159.146 36.2391C159.146 36.4012 159.209 36.6265 158.255 36.5094L158.264 36.4913Z" fill="black"/>
<path d="M164.224 31.9333C164.206 32.0594 164.224 32.2035 164.188 32.2846C164.071 32.2846 163.963 32.2846 163.864 32.2846C163.702 32.2846 163.567 32.2846 163.432 32.2846C163.279 32.2846 163.135 32.2756 163 32.2666C162.738 32.2576 162.468 32.2396 161.937 32.2396C160.884 32.2396 160.875 32.2396 159.812 32.2215C158.75 32.2215 158.75 32.2666 157.688 32.2666C156.634 32.2756 156.616 32.2756 155.563 32.2846C154.996 32.2846 154.888 32.2666 154.276 32.2485C154.231 32.2305 154.114 32.2846 154.132 32.2035V32.0054C154.132 31.8702 154.123 31.7351 154.123 31.591C154.123 31.4829 154.123 31.4468 154.141 31.2577C154.141 31.1586 154.15 31.0595 154.159 30.9604C154.177 30.8703 154.123 30.6992 154.294 30.7442C155.446 30.7352 155.473 30.7352 156.625 30.7172C157.334 30.7172 158.042 30.7172 158.75 30.7172C159.785 30.7352 159.83 30.7352 160.875 30.7442C161.91 30.7262 161.964 30.7262 163 30.7172C163.783 30.7172 163.891 30.8523 163.891 31.0235C163.891 31.1946 163.783 31.3117 163 31.3117C161.937 31.3117 161.937 31.3748 160.884 31.3748C159.83 31.3748 159.821 31.3117 158.759 31.3117C157.706 31.3117 157.697 31.3117 156.634 31.3027C156.103 31.3027 155.842 31.3208 155.572 31.3388C155.428 31.3388 155.293 31.3568 155.14 31.3658C155.032 31.3658 154.915 31.3658 154.762 31.3748C154.762 31.3748 154.744 31.5279 154.762 31.582C154.762 31.618 154.744 31.618 154.762 31.636C154.672 31.654 155.095 31.6631 155.59 31.6631C156.298 31.6631 157.007 31.6631 157.715 31.6631C158.423 31.6631 159.131 31.6631 159.839 31.6631C160.902 31.6631 160.902 31.609 161.964 31.609C162.765 31.609 162.774 31.609 163.576 31.591C163.576 31.591 163.576 31.5369 163.585 31.5099C163.585 31.4558 163.594 31.4018 163.603 31.3298C163.621 31.2307 163.639 31.1676 163.675 31.1225C163.738 31.0325 163.828 31.0415 163.909 31.0325C163.999 31.0325 164.08 31.0055 164.152 31.0865C164.188 31.1316 164.215 31.1946 164.242 31.3117C164.251 31.3658 164.269 31.4378 164.269 31.5099C164.269 31.5639 164.269 31.609 164.269 31.654C164.269 31.7441 164.269 31.8342 164.26 31.9333H164.224Z" fill="black"/>
<path d="M180.501 42.8239C180.528 21.2048 180.528 18.7366 180.546 0.621552C179.241 0.621552 176.873 0.621552 174.199 0.621552C157.814 0.621552 141.431 0.615529 125.052 0.603519C108.672 0.591508 92.2899 0.606565 75.9044 0.648603C59.5189 0.69064 43.1364 0.696608 26.7569 0.666581C13.4235 0.648565 7.4095 0.639568 0.639234 0.621552C0.639234 6.11641 0.621201 12.1158 0.612198 23.0604C0.621201 41.3286 0.621219 45.9136 0.630222 59.6057C2.13373 59.6057 6.63521 59.6057 12.6492 59.6057C29.0407 59.6057 45.4352 59.6057 61.8327 59.6057C78.2362 59.6177 94.6396 59.6268 111.043 59.6328C127.447 59.6208 143.85 59.6117 160.254 59.6057C169.338 59.6057 174.487 59.6418 177.368 59.6958C180.249 59.7499 180.862 59.831 180.862 59.921C180.862 60.0111 180.249 60.0832 177.368 60.1282C174.487 60.1823 169.338 60.2093 160.254 60.2093C143.88 60.2273 127.504 60.2483 111.124 60.2724C94.7447 60.2483 78.3622 60.2273 61.9767 60.2093C45.5912 60.2093 29.2088 60.2063 12.8293 60.2003C7.57153 60.2003 3.42115 60.2003 0.0630277 60.2003C0.0360186 46.9406 0.0360121 42.8329 0 23.2496C0.00900301 11.8365 0.0179775 5.64802 0.0269805 0.0270503C6.9503 0.0270503 13.1264 0.0450377 26.6129 0.0540456C42.9924 0.0540456 59.3719 0.0540456 75.7514 0.0540456C92.1429 0.0540456 108.537 0.0540456 124.935 0.0540456C141.338 0.0360297 157.742 0.0180159 174.145 0C177.683 0 180.735 0 181.222 0C181.222 18.4844 181.222 21.421 181.24 42.8419C181.24 51.931 181.195 56.2008 181.132 58.1915C181.069 60.1913 180.979 59.912 180.889 59.912C180.798 59.912 180.717 60.1913 180.645 58.1915C180.582 56.1918 180.537 51.931 180.537 42.8419L180.501 42.8239Z" fill="black"/>
</svg>
