<?xml version="1.0" encoding="UTF-8"?>
<svg id="_레이어_2" data-name="레이어 2" xmlns="http://www.w3.org/2000/svg" viewBox="0 0 362.37 37.55">
  <g id="_레이어_1-2" data-name="레이어 1">
    <g>
      <path d="M2.93,2.08c-.45,0-.87,0-1.24,0h-.13s0,0,0,0h0s-.01,0-.01,0c-.03,1.58-.04,2.54-.06,3.61-.02,1.29-.04,2.72-.04,5.2q-.02,5.86-.04,11.73c.05,5.85.05,5.88.11,11.73,0,.48,0,.92,0,1.26,0,.02,0,.04,0,.04,3.7-.02,4.48-.02,8.95-.04,5.87,0,5.87.16,11.73.16.08,0,.15,0,.18,0,0-1.03-.01-4.17-.03-3.99h-.09c-.11,0-.22,0-.33,0-.37,0-.78,0-1.22,0-.89,0-1.97,0-3.39,0-5.51,0-6.17,0-11.02.02,0-.13,0-1.05,0-2.1q.03-5.87.06-11.75t-.07-11.75c0-4.34.3-4.92.69-4.92s.64.58.64,4.92c0,5.86.13,5.86.13,11.73s-.15,5.87-.15,11.73c0,.41,0,.78,0,.83,4.24.01,4.84.01,9.67.03,1.42,0,2.49-.02,3.39-.02,1.15-.02,2.08-.04,2.99-.05.02.91.03,1.8.05,2.87,0,1.03.02,2.24.03,3.81-.46,0-.96,0-1.49,0-5.91,0-5.88-.12-11.75-.12-5.18,0-6.06,0-10.35-.01,0-.22,0-1.31,0-2.61q0-5.87-.02-11.74C.14,16.78.03,16.78.03,10.9c-.01-5.19-.02-6.14-.03-10.37.27,0,1.47,0,2.93,0,4.34,0,4.07.4,4.07.78s.26.77-4.07.77Z"/>
      <path d="M29.32,4.24c0,4.23-.1,4.23-.1,8.45q-.02,4.23-.04,8.45c0,4.23.11,4.23.11,8.45.02,3,.02,3.6.04,6h0c.24,0,.55,0,.9,0,1.16,0,2,.01,2.7.03.35.01.66.02.96.03h.1s0,0,0,0h.02s.06.02.06.02c0-.02.02-.05.03-.09,0-.25.01-.53.02-.82,0-.62.01-1.36.02-2.31q-.03-4.22-.05-8.45t-.02-8.46c.03-4.23.03-4.24.06-8.47,0-1.53-.02-2.51-.02-3.34,0-.41-.01-.79-.02-1.18,0-.16,0-.32,0-.5,0-.03,0-.06,0-.09h-.07c-.13,0-.26,0-.41,0-.44,0-.94,0-1.52,0-3.13,0-3.55-.3-3.55-.69s.42-.64,3.55-.64c1.45-.01,2.49-.02,3.34-.02.01.71.02,1.32.03,1.92.01.39.02.77.04,1.18.02.83.04,1.8.04,3.33,0,4.23-.15,4.23-.15,8.45q-.01,4.23-.03,8.45c0,4.23.16,4.23.16,8.45,0,.97-.01,1.71-.02,2.34-.01.89-.03,1.61-.04,2.3-.81-.01-1.59-.03-2.54-.05-.7,0-1.53-.01-2.68-.02-1.17,0-2.1,0-2.34,0,0-2.94,0-3.69.01-7.37q0-4.23-.02-8.46c0-4.23-.11-4.23-.11-8.47q-.02-4.23-.03-8.47c0-3.13.4-2.93.78-2.93s.77-.19.77,2.93Z"/>
      <path d="M63.38,2.34c-2.24-.64-4.02-.77-5.49-.81-.74,0-1.4.02-2.03.04-.62.07-1.21.08-1.79.19-1.16.18-2.31.43-3.66.97-1.33.56-2.9,1.39-4.46,3.08-1.49,1.75-2.16,3.41-2.57,4.79-.19.7-.34,1.35-.44,1.96-.07.62-.18,1.2-.21,1.79-.07,1.17-.08,2.38-.07,3.91,0,.76,0,1.6,0,2.55-.02.96.02,2,.07,3.18.2,2.35.78,4.04,1.41,5.33.28.67.69,1.18,1.01,1.7.4.45.72.94,1.16,1.31.21.2.42.39.63.59.23.17.47.35.72.53.24.19.5.36.79.52.29.16.57.36.9.5,1.28.65,2.96,1.22,5.29,1.53,2.34.28,4.13.2,5.6.05,1.47-.16,2.64-.39,3.78-.68,1.14-.3,2.27-.66,3.59-1.26.32-.16.67-.32,1.01-.52.16-.08.39-.22.49-.29,0,0,0,0,0,0,0-.91,0-1.94,0-3.11,0-3.61.02-5.88.05-7.8.03-1.71.05-3.12.08-5.09.18,0-1.06-.01-1.95-.02-.98,0-2.08,0-3.34,0-3.12,0-5.15.01-6.95.01,0,1.29.01,2.44.02,3.91,1.05,0,3.06,0,6.11-.01.62,0,1.22,0,1.25,0,0,2.55,0,4.49,0,6.12,0,.73,0,1.39,0,2.01,0,.47,0,.92,0,1.37.03.09-.09.08-.14.11l-.2.07-.39.15-.55.19c-1.19.39-2.45.65-4,.74-.77.04-1.62.04-2.59-.04-.97-.07-2.06-.27-3.24-.72-1.23-.47-2.21-1.15-2.94-1.89-.76-.73-1.2-1.54-1.59-2.26-.7-1.49-.92-2.78-1.05-4.03-.14-1.27-.1-2.52-.1-4.03.02-1.5-.07-3.39.39-5.89.49-2.49,1.56-4.32,2.88-5.37,1.3-1.08,2.62-1.47,3.87-1.72,1.27-.22,2.53-.3,4.12-.2,1.57.13,3.53.45,5.79,1.73.41.24.79.49,1.13.75l.21.16.02.02s.04.05.05.04l.04-.05.03-.03.14-.19c.19-.25.36-.49.53-.71.66-.88,1.16-1.5,1.54-1.93.76-.86,1.04-.96,1.2-.85.16.11.15.4-.42,1.4-.28.5-.71,1.17-1.32,2.09-.41.61-.88,1.29-1.41,2.06-.08.24-.22-.02-.35-.09-.13-.1-.26-.21-.39-.32-.13-.11-.27-.22-.41-.33l-.27-.2c-.31-.23-.64-.45-1.01-.66-2.01-1.14-3.78-1.43-5.22-1.55-1.45-.09-2.65,0-3.76.2-1.11.23-2.21.57-3.24,1.44-1.04.84-1.94,2.3-2.4,4.56-.42,2.28-.35,4.07-.38,5.6-.01,1.53-.06,2.73.06,3.88.1,1.16.3,2.32.88,3.61.6,1.25,1.65,2.7,3.78,3.53,1.02.4,2,.58,2.89.65.88.08,1.68.08,2.41.05,1.45-.07,2.58-.3,3.67-.65l.44-.15c0-.16,0-.33,0-.5,0-.63,0-1.29,0-2.02,0-1.3,0-2.85,0-4.89,0,0-.07,0-.15,0-3.21.02-5.43.03-7.24.04-.03-2.41-.05-4.27-.08-6.54,2.05-.01,4.48-.03,8.23-.05,2.88,0,5.01.02,6.74.02-.02,2.49-.04,4.27-.06,6.44,0,1.92-.02,4.19-.04,7.77,0,1.23,0,2.31,0,3.28,0,.21,0,.43,0,.63-.11.15-.33.23-.49.35-.12.08-.25.16-.37.23-.1.06-.2.11-.29.17-.38.22-.76.4-1.11.58-1.43.65-2.63,1.03-3.84,1.34-1.21.31-2.43.54-3.98.71-1.55.16-3.42.24-5.91-.04-2.49-.31-4.31-.94-5.73-1.65-1.4-.74-2.49-1.46-3.38-2.39-.49-.42-.85-.96-1.3-1.47-.36-.58-.81-1.15-1.12-1.89-.7-1.43-1.34-3.27-1.55-5.78-.15-2.53-.07-4.3-.1-5.84-.02-1.52-.03-2.74.02-4,.07-1.25.24-2.51.64-4.05.44-1.52,1.16-3.37,2.84-5.36,1.76-1.92,3.52-2.86,4.98-3.49,1.49-.6,2.73-.9,3.97-1.11.62-.13,1.25-.15,1.92-.24.67-.04,1.37-.07,2.16-.07,1.57.02,3.48.15,5.92.85,1.8.54,3.04,1.19,3.89,1.73.85.55,1.34.98,1.62,1.28.56.61.34.69.22.85-.12.15-.16.36-.86.01-.35-.17-.87-.47-1.69-.91-.83-.43-1.97-.98-3.62-1.47Z"/>
      <path d="M98.83,27.21c0,2.25-.01,3.96-.01,5.4,0,.72-.01,1.37-.02,1.99,0,.31,0,.61,0,.9,0,.1,0,.1,0,.1v.02s0,.03,0,.03h.05c.19,0,.38.01.57.01.46,0,.93,0,1.42.01.8,0,1.7.01,2.79.02,0-.61,0-1.59,0-2.75q.02-9.42.04-18.83c-.01-3.4-.02-5.57-.03-7.41-.02-1.59-.03-2.9-.05-4.69-1.2,0-2.69.01-4.76.02,0,0-.01,0-.01,0,.02,7.06.02,8.79.04,14.24-.61,0-2.6,0-5.19,0-2.58-.01-4.46-.02-6.02-.03-1.81-.02-3.26-.04-4.8-.06.01-1.27.03-2.61.05-4.25,0-1.38.01-3.03.02-5.15,0-2.13,0-3.72,0-4.87-1.92.01-3.24.02-4.94.03,0,1.22,0,3.23.02,6.45q0,9.42.02,18.84c-.01,4.14-.02,6.32-.03,8.46,1.41,0,2.8.02,4.94.03,0-.64,0-1.67,0-2.88-.03-6.78-.04-8.94-.05-12.88,1.76,0,4.02,0,7.32-.02,6.96,0,7.9.3,7.9.69s-.93.64-7.9.64c-1.5,0-2.76,0-3.85,0-.54,0-1.04,0-1.51.01-.18,0-.36,0-.53,0h-.09c.02,1.62.04,2.88.07,4.42,0,1.78.02,3.89.04,7.09,0,1.67,0,3.09,0,4.3-3.32-.03-5.45-.05-7.67-.07.01-1.33.03-2.7.05-4.39,0-1.43.01-3.13.02-5.37q.01-9.42.03-18.83c-.02-3.56-.03-5.88-.05-7.81,2.6-.03,4.6-.06,7.59-.09,0,1.63.01,3.59.02,6.16,0,2.16-.01,3.82-.02,5.21,0,.69-.01,1.32-.02,1.91,0,.29,0,.57,0,.85,0,.07,0,.07-.01.11h.05s.03,0,.03,0h.2c.32,0,.65.01.98.02.67,0,1.37.01,2.14.02,1.55,0,3.41.01,5.96.02,1.93,0,3.39,0,3.85,0,0-5.41,0-7.14.01-14.19.02,0,.14,0,.25,0,3.61,0,6.05,0,7.22,0,0,4.53,0,6.69.01,13.38q.06,9.42.11,18.86c0,2.11,0,3.82,0,4.21-3.4,0-5.65.01-7.75.02,0-2.68,0-5.22-.01-9.94,0-6.96.4-6.54.78-6.54s.77-.42.77,6.54Z"/>
      <path d="M131.74,2.08c-6.32-.05-6.34-.05-12.66-.1-4.55-.02-5.6-.02-9.1-.03,0,.26,0,1.14,0,2.29,0,.71,0,1.31,0,1.69,1.79-.03,2.87-.04,4.08-.06.7,0,1.43-.02,2.32-.03,1.09,0,2.38,0,4.01-.01v.05q.02,6.69.04,13.38c0,6.34-.16,6.34-.16,12.67,0,1.05,0,1.93,0,2.66,0,.37,0,.7,0,.99,0,.06,0,.12,0,.17,1.67-.01,2.77-.02,4.92-.03,0-.1,0-.66,0-1.32q0-6.34-.02-12.68t.06-12.68c0-1.31,0-2.4,0-3.11,4.03-.02,4.91-.03,10.2-.06h0c0-.32.01-.61.01-.86.01-.45.03-.85.04-1.22.03-.71.08-1.22.15-1.59.12-.73.3-.89.49-.89s.35.16.46.89c.06.37.1.88.13,1.59.01.36.02.76.03,1.22,0,.65,0,1.38.01,2.19-.03,0-.07,0-.11,0-1.56,0-2.8.01-3.85.02-.89.01-1.62.02-2.31.04-1.16.02-2.19.04-3.88.07,0,0,0,.01,0,.02h0c0,.09,0,.18,0,.27,0,.42,0,.89,0,1.41,0,6.33-.15,6.33-.15,12.67q-.01,6.33-.03,12.67c0,.99,0,1.86,0,2.63-.94,0-1.75.02-2.48.02-.55.01-1.05.02-1.52.03-.47.01-.92.02-1.37.03-.69.01-1.39.02-2.17.03,0-1.29-.02-2.86-.04-5.13,0-6.34.12-6.34.12-12.67q0-6.05.01-12.1v-.02c-5.14,0-6.09,0-10.33.02,0-.27,0-1.47,0-2.92,0-1.52,0-2.74-.01-3.61,1.16-.01,2.1-.02,2.98-.03.68-.01,1.31-.02,1.98-.03,1.34-.02,2.86-.04,5.41-.04q6.34-.02,12.68-.03c4.68,0,4.4.4,4.4.78s.29.77-4.4.77Z"/>
      <g>
        <path d="M162.2,20.13c.56-1.68.66-1.65,1.22-3.33.55-1.68.61-1.67,1.14-3.35.26-.84.37-1.27.48-1.7.06-.23.12-.47.2-.74.16-.53.35-1.14.6-1.96.26-.83.45-1.45.61-1.97.04-.13.08-.26.12-.38.02-.04.04-.16.05-.14l.05.16c.07.21.14.41.21.61.28.84.55,1.67,1.1,3.32.09.29.17.55.25.78.05.16.09.31.12.44.06.25.11.47.17.7.1.43.19.86.47,1.7.58,1.67.59,1.68,1.17,3.35q.67,1.98,1.34,3.96c.09.27.17.52.22.65-1.32,0-2.21-.02-2.47-.04-.42-.01-.86-.03-1.67-.03-1.77,0-1.77.07-3.55.07-1.31,0-1.49-.3-1.49-.69s.18-.64,1.49-.64c1.77,0,1.77-.13,3.54-.13.82,0,1.26.03,1.67.07.56.03.46.07.66.08,0-.02-.01-.04-.02-.07q-.46-1.41-.91-2.82c-.56-1.68-.71-1.63-1.27-3.31-.28-.85-.38-1.28-.49-1.72-.06-.22-.12-.44-.18-.7-.07-.23-.15-.49-.25-.84-.05-.17-.08-.25-.1-.33-.03-.18-.05,0-.11.16q-.39,1.27-.79,2.55c-.54,1.7-.45,1.72-1,3.41-.54,1.68-.55,1.69-1.09,3.38-.41,1.24-.76,1.04-1.13.92-.37-.12-.76-.17-.34-1.41Z"/>
        <path d="M180.44,32.46c-2.21-6.03-2.22-6.06-4.43-12.09q-2.25-6.04-4.5-12.07c-.66-1.73-1.13-2.96-1.52-3.99-.2-.51-.38-.97-.56-1.42-.09-.22-.17-.44-.26-.66l-.07-.16v-.02s-.03-.03-.03-.03c-.14.02-3.14.04-4.6.04h0q-2.14,5.84-4.29,11.67c-2.25,6.04-2.4,5.98-4.64,12.02-1.83,4.98-2.01,5.49-3.65,9.97.02,0,.17,0,.34,0,2.3,0,3.69,0,4.59,0,.75-2.1,1.23-3.46,2.47-6.92.41-1.15.76-2.11.98-2.72,4.39.02,5.29.03,10.98.06.73,0,1.4,0,1.77,0,1.58,4.39,1.88,5.2,3.45,9.57.17,0,.5,0,.87,0,4.76,0,5.4.3,5.4.69s-.64.64-5.4.64c-.76,0-1.46,0-1.81,0-.46-1.26-.82-2.27-1.14-3.15-.28-.76-.52-1.4-.77-2.05-.43-1.17-.86-2.33-1.59-4.3,0,0,0,0-.01,0-.22,0-.48,0-.75,0-2.76,0-4.34-.03-5.75-.06-1.29-.02-2.42-.05-4.32-.08-.19.51-.4,1.11-.66,1.81-1.41,3.9-1.95,5.41-2.81,7.79-1.06,0-2.72,0-5.45,0-.83,0-1.59,0-2.2,0,.55-1.53.98-2.72,1.36-3.75.28-.81.52-1.5.76-2.21.49-1.42,1.01-2.93,2.05-5.71,2.25-6.04,2.36-6,4.61-12.04q2.31-6.2,4.62-12.39c.03-.09.07-.19.07-.19,3.21,0,5.03,0,6.46,0,.75,2,1.35,3.57,2.69,7.13,2.32,6.01,2.33,6.03,4.64,12.04q2.28,6.03,4.57,12.07c1.68,4.46,1.2,4.33.84,4.46-.36.14-.62.54-2.29-3.92Z"/>
      </g>
      <g>
        <path d="M195.88,5.74c2.13,0,2.13.1,4.26.1,1.06,0,1.66.05,2.21.13.56.11,1.14.17,2.23.66,1.08.54,1.52,1.06,1.9,1.55.36.51.7,1.1.83,2.31.05.62.03,1,.04,1.33,0,.34,0,.61.01.88-.02.59.02,1.24-.55,2.41-.66,1.14-1.32,1.44-1.84,1.72-.55.26-1.12.46-2.23.69-1.11.19-1.67.21-2.22.24-.56.03-1.07.03-2.14.03-2.33,0-2.49,0-4.67.02,0-.02,0-.27,0-.54,0-.72,0-1.25.01-1.7,0-.33.02-.6.02-.87.02-.53.03-1.07.03-2.13,0-2.13-.07-2.13-.07-4.27,0-1.58.3-1.79.69-1.79s.64.21.64,1.79c0,2.13.13,2.13.13,4.26,0,1.07-.04,1.6-.07,2.13-.02.27-.03.54-.05.87,0,.24-.01.51-.02.88v.06c1.55.01,1.67.01,3.35.03,2.13-.03,2.15-.08,4.11-.36.96-.19,1.4-.36,1.81-.55.39-.21.84-.41,1.28-1.17.39-.79.4-1.29.42-1.76,0-.48.03-1.12-.01-2.06-.11-.94-.33-1.35-.57-1.71-.26-.35-.53-.72-1.36-1.14-.86-.38-1.37-.42-1.86-.47-.51-.04-.97-.05-2.03-.04-2.13.02-2.14.02-4.27.03-1.58,0-1.48-.4-1.48-.78s-.1-.77,1.48-.77Z"/>
        <path d="M204.24,26.74c1.03,2.49,1.68,4.06,2.23,5.4.48,1.2.88,2.18,1.43,3.55,1.05,0,2.35.01,4.11.02.58,0,1.07,0,1.16,0-1.99-4.46-2.34-5.24-4.69-10.49-.38-.84-.71-1.57-1.01-2.22-.15-.34-.3-.65-.43-.95-.12-.27-.24-.53-.35-.78l-.17-.37c-.07-.08.06-.08.1-.12l.18-.09c1.13-.55,1.28-.66,1.71-.95.38-.25.7-.53,1.01-.82.61-.59,1.15-1.25,1.62-2.19.46-.94.89-2.17.91-3.89.02-1.86,0-3.14-.27-4.16-.25-1.03-.61-1.8-1.07-2.5-.46-.7-1.01-1.34-1.85-1.97-.84-.63-1.97-1.26-3.65-1.69-1.69-.43-3.01-.42-4.14-.46-1.15-.02-2.07-.04-2.99-.06-1.84-.04-3.68-.08-7.36-.08-.96,0-1.75,0-1.91,0,.02,4.77.02,5.77.05,11.54q0,7.36.02,14.72c-.02,3.85-.03,5.51-.04,7.54,1.2,0,2.59.01,4.95.03,0-.01,0-.04,0-.06-.03-7.11-.04-7.51-.07-14.06.3,0,.97,0,1.67,0,5.44,0,6.17.3,6.17.69s-.73.64-6.17.64c-.15,0-.28,0-.35,0,.03,2.88.05,4.42.07,6.02.01.88.03,1.78.04,2.89,0,1.23.01,2.69.02,4.61,0,.25,0,.5,0,.67-4.8,0-4.4-.03-7.7-.06.02-1.31.04-2.51.06-4.02,0-1.25.02-2.74.03-4.84q.01-7.35.03-14.71c0-3.21-.03-5.01-.07-6.65-.02-.82-.03-1.59-.05-2.46-.01-1.09-.02-2.32-.04-3.86.94,0,2.01,0,3.24,0,3.68,0,5.52.03,7.36.06.92.01,1.84.03,2.99.04,1.15.03,2.62.02,4.48.48,1.87.47,3.18,1.19,4.16,1.92.99.73,1.63,1.51,2.18,2.32.55.82.96,1.74,1.25,2.92.32,1.19.34,2.68.32,4.49-.01,1.95-.5,3.4-1.05,4.49-.55,1.1-1.2,1.87-1.91,2.55-.36.34-.74.65-1.17.94-.21.15-.44.29-.68.43-.1.06-.21.12-.31.18l-.07.04c-.08.01.01.09.01.13.12.27.25.56.39.87.3.66.63,1.39,1,2.23,1.33,2.94,2.09,4.59,2.8,6.1.35.76.69,1.48,1.08,2.32.52,1.14,1.11,2.42,1.85,4.05-.7,0-1.92,0-3.32,0-2.55,0-4.3,0-5.1,0-1.42-3.37-2.07-4.9-4.13-9.8-2.1-5.02-1.61-4.86-1.25-5.01.36-.15.58-.6,2.68,4.41Z"/>
      </g>
      <path d="M241.61,2.73c-1.66-.65-3-.88-4.12-1.03-1.12-.14-2.04-.19-2.95-.21-.91,0-1.81.01-2.93.15-1.1.18-2.46.41-4.08,1.15-1.63.74-2.65,1.62-3.44,2.39-.19.2-.37.39-.55.57-.17.19-.3.39-.45.58-.14.19-.28.37-.42.55-.12.19-.23.39-.34.58-.11.19-.23.38-.34.58-.09.21-.19.42-.29.63-.1.22-.2.44-.31.67-.08.24-.16.5-.25.76-.38,1.06-.64,2.4-.8,4.21-.1,1.8-.04,3.24-.05,4.41.01,1.17.03,2.11.04,3.05,0,.48.04.92.06,1.4.02.48.05.99.14,1.55.04.28.08.57.12.88.05.31.14.62.22.97.13.69.4,1.42.72,2.25.67,1.65,1.52,2.69,2.26,3.49.19.19.38.38.55.56.18.17.38.31.56.46.35.31.72.54,1.1.77,1.5.87,3.16,1.71,6.75,2,3.63.13,5.46-.18,7.21-.59.87-.22,1.74-.49,2.76-.96.51-.24,1.05-.53,1.65-.91.29-.2.6-.4.92-.64.16-.12.32-.25.48-.38.08-.07.17-.13.25-.21l.19-.18s.09-.06.08-.09l-.1-.14c-.24-.34-.46-.66-.67-.96-.42-.6-.79-1.13-1.12-1.61-.24-.34-.45-.64-.66-.93-.01-.01-.03-.05-.04-.04l-.05.05c-.06.06.02-.01-.24.21-.75.64-1.58,1.22-2.69,1.75-1.12.52-2.55,1-4.49,1.22-1.92.2-3.45.12-4.68-.23-1.22-.35-2.15-.85-2.95-1.5-.79-.66-1.47-1.45-2.07-2.57-.59-1.12-1.07-2.56-1.27-4.51-.17-1.97-.08-3.35-.1-4.53,0-1.16.02-2.14.12-3.1.06-.48.08-.97.2-1.48.08-.51.2-1.05.38-1.64.37-1.16.87-2.65,2.35-4.1.73-.72,1.54-1.17,2.27-1.47.73-.32,1.42-.45,2.04-.56,1.25-.19,2.22-.14,3.18-.1.97.05,1.96.16,3.16.5.6.18,1.24.42,1.94.77.35.17.71.38,1.07.62.18.12.37.24.56.38.1.07.2.15.31.23.03.05.06.03.08-.01.13-.17.25-.34.36-.49.33-.44.61-.82.87-1.17.52-.67.91-1.15,1.21-1.47.61-.65.86-.7,1.01-.59.16.11.18.36-.23,1.14-.21.39-.53.92-.99,1.63-.24.36-.51.76-.81,1.21-.2.29-.41.6-.64.92-.16.23-.33.47-.5.71-.04.1-.1.04-.16-.01l-.18-.14-.36-.29c-.17-.13-.33-.26-.5-.39l-.26-.19c-.17-.13-.34-.23-.5-.34-.33-.21-.65-.39-.96-.55-.62-.31-1.19-.52-1.71-.67-1.06-.29-1.95-.39-2.85-.43-.91-.03-1.83-.06-2.89.11-.53.1-1.11.21-1.71.48-.6.25-1.25.6-1.84,1.18-1.2,1.16-1.66,2.44-2,3.47-.08.27-.15.52-.22.76-.05.25-.1.49-.14.72-.11.46-.14.92-.2,1.36-.1.9-.13,1.8-.14,2.98,0,1.17-.08,2.6.07,4.39.18,1.8.61,3.08,1.11,4.04.5.97,1.07,1.63,1.72,2.19,1.33,1.04,3.01,1.88,6.66,1.5,1.8-.19,3.09-.64,4.09-1.1,1-.49,1.72-1,2.38-1.59l.3-.27.48-.47.49-.48s.08-.09.12-.11l.1.14.2.28c.39.55.8,1.13,1.26,1.77.34.48.71,1,1.13,1.6.21.3.43.62.67.96.21.31.44.63.67.96l.09.13s.1.09.02.13l-.24.22c-.17.15-.33.31-.5.46-.12.11-.25.22-.37.33-.09.08-.17.16-.27.23-.18.14-.36.28-.53.42-.34.27-.69.49-1,.71-.65.41-1.24.74-1.8,1-1.11.52-2.05.82-2.99,1.07-.94.25-1.9.42-3.1.55-1.21.12-2.62.22-4.56.12-3.87-.31-5.73-1.22-7.4-2.21-.42-.26-.84-.52-1.23-.87-.2-.17-.41-.34-.63-.51-.2-.2-.4-.41-.62-.63-.84-.89-1.79-2.08-2.54-3.89-.22-.44-.32-.89-.47-1.29-.15-.41-.24-.8-.32-1.17-.08-.37-.16-.72-.24-1.05-.04-.33-.09-.65-.12-.95-.1-.6-.13-1.14-.14-1.65-.02-.51-.06-1-.05-1.47,0-.94,0-1.88,0-3.05.01-1.18-.04-2.55.06-4.5.16-1.92.43-3.37.82-4.53.09-.29.18-.57.27-.83.11-.26.22-.5.32-.75.1-.24.21-.47.31-.7.12-.22.24-.43.36-.65.24-.44.49-.86.82-1.27.16-.21.31-.43.49-.66.19-.21.4-.42.61-.65.87-.88,2.03-1.88,3.84-2.71,1.81-.82,3.27-1.08,4.47-1.3,1.21-.17,2.19-.21,3.15-.22.96,0,1.92.04,3.13.17,1.2.15,2.67.39,4.51,1.1,1.36.54,2.27,1.12,2.9,1.57.63.46.99.81,1.19,1.06.4.5.21.6.09.75-.12.15-.18.35-.74.1-.28-.13-.68-.36-1.31-.71-.63-.35-1.47-.83-2.7-1.32Z"/>
      <path d="M275.09,27.21c0,2.25-.01,3.96-.01,5.4,0,.72-.01,1.37-.02,1.99,0,.31,0,.61,0,.9,0,.1,0,.1,0,.1v.02s0,.03,0,.03h.05c.19,0,.38.01.57.01.46,0,.93,0,1.42.01.8,0,1.7.01,2.79.02,0-.61,0-1.59,0-2.75q.02-9.42.04-18.83c-.01-3.4-.02-5.57-.03-7.41-.02-1.59-.03-2.9-.05-4.69-1.2,0-2.69.01-4.76.02,0,0-.01,0-.01,0,.02,7.06.02,8.79.04,14.24-.61,0-2.6,0-5.19,0-2.58-.01-4.46-.02-6.02-.03-1.81-.02-3.26-.04-4.8-.06.01-1.27.03-2.61.05-4.25,0-1.38.01-3.03.02-5.15,0-2.13,0-3.72,0-4.87-1.92.01-3.24.02-4.94.03,0,1.22,0,3.23.02,6.45q0,9.42.02,18.84c-.01,4.14-.02,6.32-.03,8.46,1.41,0,2.8.02,4.94.03,0-.64,0-1.67,0-2.88-.03-6.78-.04-8.94-.05-12.88,1.76,0,4.02,0,7.32-.02,6.96,0,7.9.3,7.9.69s-.93.64-7.9.64c-1.5,0-2.76,0-3.85,0-.54,0-1.04,0-1.51.01-.18,0-.36,0-.53,0h-.09c.02,1.62.04,2.88.07,4.42,0,1.78.02,3.89.04,7.09,0,1.67,0,3.09,0,4.3-3.32-.03-5.45-.05-7.67-.07.01-1.33.03-2.7.05-4.39,0-1.43.01-3.13.02-5.37q.01-9.42.03-18.83c-.02-3.56-.03-5.88-.05-7.81,2.6-.03,4.6-.06,7.59-.09,0,1.63.01,3.59.02,6.16,0,2.16-.01,3.82-.02,5.21,0,.69-.01,1.32-.02,1.91,0,.29,0,.57,0,.85,0,.07,0,.07-.01.11h.05s.03,0,.03,0h.2c.32,0,.65.01.98.02.67,0,1.37.01,2.14.02,1.55,0,3.41.01,5.96.02,1.93,0,3.39,0,3.85,0,0-5.41,0-7.14.01-14.19.02,0,.14,0,.25,0,3.61,0,6.05,0,7.22,0,0,4.53,0,6.69.01,13.38q.06,9.42.11,18.86c0,2.11,0,3.82,0,4.21-3.4,0-5.65.01-7.75.02,0-2.68,0-5.22-.01-9.94,0-6.96.4-6.54.78-6.54s.77-.42.77,6.54Z"/>
      <path d="M289.82,4.24c0,4.23-.1,4.23-.1,8.45q-.02,4.23-.04,8.45c0,4.23.11,4.23.11,8.45.02,3,.02,3.6.04,6h0c.24,0,.55,0,.9,0,1.16,0,2,.01,2.7.03.35.01.66.02.96.03h.1s0,0,0,0h.02s.06.02.06.02c0-.02.02-.05.03-.09,0-.25.01-.53.02-.82,0-.62.01-1.36.02-2.31q-.03-4.22-.05-8.45t-.02-8.46c.03-4.23.03-4.24.06-8.47,0-1.53-.02-2.51-.02-3.34,0-.41-.01-.79-.02-1.18,0-.16,0-.32,0-.5,0-.03,0-.06,0-.09h-.07c-.13,0-.26,0-.41,0-.44,0-.94,0-1.52,0-3.13,0-3.55-.3-3.55-.69s.42-.64,3.55-.64c1.45-.01,2.49-.02,3.34-.02.01.71.02,1.32.03,1.92.01.39.02.77.04,1.18.02.83.04,1.8.04,3.33,0,4.23-.15,4.23-.15,8.45q-.01,4.23-.03,8.45c0,4.23.16,4.23.16,8.45,0,.97-.01,1.71-.02,2.34-.01.89-.03,1.61-.04,2.3-.81-.01-1.59-.03-2.54-.05-.7,0-1.53-.01-2.68-.02-1.17,0-2.1,0-2.34,0,0-2.94,0-3.69.01-7.37q0-4.23-.02-8.46c0-4.23-.11-4.23-.11-8.47q-.02-4.23-.03-8.47c0-3.13.4-2.93.78-2.93s.77-.19.77,2.93Z"/>
      <path d="M303.79,6.09q2.62,7.28,5.25,14.58t5.31,14.56c.07.19.14.37.19.52,1.51,0,4.44-.02,4.69-.04.36-1.01.68-1.9,1.08-3,.47-1.27,1.03-2.78,1.84-4.93q2.71-7.26,5.43-14.52c1.21-3.2,1.91-4.98,2.56-6.59.55-1.37,1.04-2.61,1.88-4.74-.44,0-.95,0-1.52,0-1.72,0-3.01,0-3.45,0-1.36,3.95-1.81,5.28-3.62,10.55q-2.59,7.47-5.18,14.95c-.5,1.45-.95,2.74-1.2,3.44-2.13-6.44-2.39-7.24-4.9-14.81-2.39-7.04-2.42-7.11-4.78-14.06,0,0-.01,0-.02,0-.58,0-1.11,0-1.57-.01-.56-.01-1.06-.03-1.51-.04-.88-.03-1.51-.08-1.97-.15-.91-.12-1.1-.3-1.1-.49s.19-.35,1.1-.46c.45-.06,1.09-.1,1.97-.13.44,0,.94-.02,1.51-.03.67,0,1.41,0,2.25-.01.13,0,.25,0,.3,0,.67,1.98,1.18,3.46,1.6,4.71.39,1.12.71,2.03,1.03,2.94.64,1.81,1.29,3.64,2.51,7.28,1.12,3.34,1.7,5.17,2.23,6.87.38,1.22.74,2.34,1.37,4.36.04-.1.08-.23.13-.36q2.5-7.17,5.01-14.33c1.01-2.92,1.6-4.68,2.1-6.21.25-.77.48-1.48.73-2.25.31-.92.63-1.9,1.03-3.09,1.15,0,2.58-.01,4.37-.02,1.5,0,2.8,0,3.56,0-.64,1.67-1.15,2.99-1.6,4.16-.35.88-.65,1.66-.97,2.47-.64,1.62-1.33,3.39-2.52,6.53q-2.74,7.25-5.48,14.49c-1.65,4.4-2.35,6.26-3.31,8.8-1.41,0-3.27,0-6.47,0-.1-.26-.28-.77-.48-1.3q-2.73-7.25-5.46-14.53-2.69-7.28-5.38-14.55c-1.98-5.38-1.48-5.19-1.12-5.32.36-.13.6-.59,2.58,4.78Z"/>
      <path d="M354.99,2.08c-4.13-.02-6.4-.03-8.53-.04-1.94-.02-3.75-.03-6.98-.06,0,.3,0,.87,0,1.51q-.02,9.19-.04,18.37c.02,3.78.03,6,.04,7.99.02,1.76.03,3.31.06,5.8.02,0,.03,0,.05,0,.27,0,.56,0,.87,0,.65,0,1.39,0,2.2,0q9.14-.02,18.28-.04h0c0-.28.01-4.12.03-3.62-1.73-.03-2.99-.06-4.53-.08-1.8-.03-3.92-.05-7.25-.05-2.23,0-3.99,0-4.82,0-.02-4.68-.02-6.87-.04-11.56.49,0,2.29,0,4.57,0,5.3,0,7.35,0,10.78-.01,0-.73,0-1.96,0-3.69-.06,0-.59,0-1.17,0-7.47-.03-9.15-.04-14.14-.06,0-1.39,0-3.19,0-5.52,0-2.18,0-3.91,0-5.18,5.28-.02,6.87-.03,14.48-.06.48,0,.94,0,1.36,0,.58,0,.4,0,.51.01,0-.04.01-.08.02-.12,0-.25.01-.49.02-.71.02-.44.04-.83.05-1.19.04-.69.09-1.2.15-1.56.12-.73.27-.9.43-.9s.31.17.41.9c.05.36.1.87.13,1.56.01.35.03.75.05,1.19,0,.22.01.46.02.71,0,.45,0,.92.01,1.42-.91,0-1.97,0-3.17.01-3.64.02-5.83.03-7.76.05-1.68.02-3.13.04-5.34.07v.02s0,0,0,0v.13c0,.33,0,.68,0,1.06,0,.75,0,1.61,0,2.56,0,1.02,0,1.93,0,2.74,0,.41,0,.79,0,1.15v.24s0,0,0,0v.02c2.05.03,3.43.05,5.07.08,1.88.03,4.06.05,7.64.05,1.27,0,2.4,0,2.53,0,0,2.93,0,5.03,0,6.28-3.81,0-6.11,0-12.01-.02-1.35,0-2.46,0-3.37.01.06,3.72.08,5.25.14,8.92h.02s.01,0,.01,0h.11c.31,0,.64,0,.98,0,.69,0,1.44,0,2.27,0,3.34.02,5.47.03,7.28.04,2.02.02,3.68.04,5.98.06,0,1.67-.01,3.7-.02,6.44-.33,0-.73,0-1.13,0q-9.25,0-18.5-.01c-2.27,0-4.06,0-4.54,0,0-5.94,0-7.54-.02-15.09q-.06-9.19-.11-18.4c0-1.48,0-2.78,0-2.96,7.45-.01,8.47-.02,16.94-.03,6.79,0,6.38.4,6.38.78s.41.77-6.38.77Z"/>
    </g>
  </g>
</svg>