<?xml version="1.0" encoding="UTF-8"?>
<svg id="_레이어_2" data-name="레이어 2" xmlns="http://www.w3.org/2000/svg" viewBox="0 0 969.78 136.65">
  <g id="_레이어_1-2" data-name="레이어 1">
    <g>
      <g>
        <path d="M16.56,26.61c18.69.05,22.59.06,35.55.09,0,.91,0,1.9,0,2.97,0,.82,0,1.72-.04,2.7-.1,1.94-.33,4.18-1.18,6.54-.99,2.86-2.61,5.03-4.2,6.7-1.61,1.68-3.23,2.92-4.72,3.99-3.03,2.08-5.56,3.49-8.07,4.96-5.04,2.88-10.15,5.65-20.47,10.91-1.42.72-2.73,1.39-3.82,1.94,3.37,5.87,5.47,9.54,7.37,12.85,1.29-.66,2.54-1.29,3.84-1.95,1.48-.77,3.03-1.58,4.74-2.47,3.42-1.81,7.52-3.99,13.13-7.12,5.96-3.34,10.11-5.78,13.56-7.98,1.72-1.11,3.26-2.17,4.68-3.31.7-.58,1.38-1.18,1.98-1.84.14-.17.3-.33.43-.51.15-.21.21-.23.5-.76l.36-.64c.12-.08.24-.13.37-.2l.19-.1c.07-.01.2,0,.26,0h.39c.23.43.52.9.77,1.3.15.19.29.4.46.59.33.39.69.79,1.12,1.2.84.82,1.87,1.67,3.08,2.56,2.43,1.8,5.61,3.78,9.71,6.14,7.33,4.23,12.05,6.78,16.04,8.95,2.01,1.06,3.83,2.03,5.72,3.04.95.49,1.92.99,2.94,1.52.85.43,1.75.88,2.71,1.36,1.78-3.09,3.95-6.87,6.91-12.04.16-.28.32-.56.32-.57-4.63-2.37-8.13-4.16-11.08-5.67-3.1-1.61-5.6-2.94-8.11-4.31-2.51-1.37-5.02-2.78-8.1-4.6-1.52-.93-3.23-1.91-5.07-3.21-1.82-1.31-3.85-2.85-5.71-5.09-1.47-1.75-2.49-3.61-3.14-5.37-.65-1.77-.95-3.43-1.12-4.9-.15-1.48-.18-2.79-.18-3.92,0-1.39,0-2.59,0-3.63,9.06,0,14.66,0,29.33-.01,2.49,0,4.68,0,6.65,0,.01-5.99.02-9.89.03-13.64-5.98,0-11.61-.02-23.41-.03q-23.19.03-46.39.07c-8.56,0-13.42-.08-16.14-.2-2.72-.12-3.29-.3-3.29-.49s.57-.35,3.29-.46c2.72-.11,7.57-.17,16.14-.17q23.15-.07,46.31-.13c12.57.04,18.51.06,24.84.08-.02,4.49-.04,9.16-.06,16.29-2.31,0-4.9,0-7.82,0-14.09,0-19.43-.01-28.19-.02,0,.66,0,1.42,0,2.31,0,1.12.02,2.35.15,3.75.31,2.76,1.13,6.25,3.88,9.55,1.74,2.14,3.71,3.65,5.49,4.93,1.79,1.27,3.49,2.25,5.02,3.17,3.08,1.81,5.58,3.2,8.09,4.55,2.5,1.35,5,2.66,8.1,4.26,3.3,1.68,7.22,3.68,12.42,6.32-.25.43-.6,1.05-.97,1.69-3.3,5.76-5.7,9.94-7.63,13.3-1.37-.68-2.64-1.31-3.86-1.92-1.02-.52-1.99-1.02-2.94-1.51-1.89-1-3.72-1.97-5.73-3.03-4-2.16-8.72-4.71-16.02-8.91-4.15-2.39-7.4-4.4-9.92-6.26-1.26-.93-2.34-1.82-3.25-2.71-.46-.44-.87-.88-1.24-1.33-.19-.22-.35-.45-.51-.67-.06-.09-.07-.1-.1-.15-.01-.04-.07-.12-.08-.04-.02.04-.04.09-.08.14.02-.02-.19.26-.34.46-.15.21-.32.39-.49.58-.67.74-1.39,1.37-2.12,1.97-1.48,1.19-3.04,2.26-4.78,3.38-3.48,2.22-7.63,4.65-13.57,7.98-5.56,3.1-9.64,5.27-13.09,7.08-1.73.9-3.31,1.71-4.83,2.5-1.72.86-3.38,1.7-5.12,2.57-2.04-3.58-4.44-7.78-8.61-15.09,1.01-.51,2.86-1.45,4.88-2.48,10.33-5.26,15.4-8.05,20.41-10.95,2.48-1.47,5.02-2.92,7.95-4.94,1.45-1.04,3.01-2.23,4.53-3.81,1.5-1.58,3-3.56,3.92-6.19.93-2.6,1.09-5.09,1.14-7.01.03-.96,0-1.84.01-2.53,0-.37,0-.65,0-.84-12.82.01-17.06.01-34.12.03-.68,0-1.33,0-1.89,0,0-2.29.02-4.28.02-6.01.02-1.5.04-2.77.05-3.85.04-2.15.11-3.52.18-4.4.15-1.75.34-1.5.53-1.5s.38-.25.52,1.5c.07.87.13,2.25.17,4.4.01,1.08.03,2.35.05,3.85,0,1.28.01,2.76.02,4.46.1,0,.22,0,.34,0Z"/>
        <path d="M40.2,101.52q-16.35-.05-32.72-.1c-2.69,0-4.9,0-6.07,0-.01,5.85-.02,8.91-.02,13.67,1.75,0,5.19,0,10.38,0q16.36-.05,32.73-.11t32.73-.04,32.74.16c4.33,0,7.44,0,9.43,0-.01-5.06-.02-8.17-.03-13.69-.82,0-3.51,0-7.02,0q-16.38,0-32.75.02c-4.8,0-8.27,0-11.07-.01.02-7.45.02-10.82.05-23.06,0-1.02,0-1.96,0-2.61-7.96.02-11.19.03-16.34.05,0,2.68,0,6.1.02,11.22,0,12.1-.3,13.73-.69,13.73s-.64-1.62-.64-13.73c-.02-5.74-.03-9.57-.03-12.57,6.01-.03,9.78-.05,19.08-.1,0,.98,0,2.4,0,3.95-.02,5.97-.03,9.76-.05,12.97-.03,2.99-.05,5.44-.08,8.83,2.47,0,5.5.02,9.65.03q16.37.01,32.73.03c3.42,0,6.18-.01,8.41-.02.05,6.77.08,10.25.12,16.32-2.75,0-6.12.02-10.68.03q-16.36-.06-32.74-.12-16.36,0-32.72-.01-16.38,0-32.75.02c-5.24.01-8.9.02-11.78.02-.03-5.7-.05-9.25-.08-16.38,2.04,0,4.5,0,7.42,0q16.39-.02,32.78-.03c12.1,0,11.36.4,11.36.78s.74.77-11.36.77Z"/>
      </g>
      <g>
        <path d="M211.35,20.87c-3.27,0-5.66-.01-7.54-.02-.03,4.63-.04,7.11-.08,13.42.55,0,1.56,0,2.7,0,7.25,0,10.71.01,14.78.02,0,2.84,0,6.21-.02,11.92-.08,0-1.19,0-2.37,0-4.08.01-6.91.02-9.27.02-2.11.02-3.8.03-5.79.05,0,2.37.02,5.3.03,10.05,0,1.57,0,2.9,0,3.35,7.64-.02,10.29-.02,17.54-.04,0,.53,0,2.85,0,5.7-.01,3.41-.02,5.94-.03,8.06,0,1.05-.02,2-.03,2.9,0,.45-.01.89-.02,1.32v.52s-.02.07-.02.07h.06s.02,0,.02,0h.13s.31,0,.31,0c.41,0,.83,0,1.26.01.86,0,1.78.02,2.8.02,2.04,0,4.47.01,7.69.02,1.96,0,3.58,0,3.91,0-.02-8.84-.02-10.67-.05-21.34q0-13.26-.02-26.53t.06-26.55c0-.54,0-1.04,0-1.34-8.06.03-10.33.04-16.19.06,0,1.62,0,3.71,0,6.4,0,9.8-.3,11.12-.69,11.12s-.64-1.32-.64-11.12c0-3.26-.01-5.78-.02-7.74,6.84-.04,9.5-.06,18.92-.11,0,.59,0,1.61,0,2.68q-.07,13.24-.15,26.51-.01,13.26-.03,26.51c0,5.79.03,9.05.07,11.99.02,1.47.03,2.86.05,4.45.01,1.8.02,3.82.04,6.37-1.52,0-3.24,0-5.2,0-6.84-.03-10.33-.04-13.75-.06.02-3.58.03-7.06.06-14.16,0-2.19,0-3.97,0-4.38-7.2,0-9.84,0-17.49-.01,0-.61,0-2.46,0-4.61,0-5.74,0-9.13,0-11.47,4.82,0,8.15,0,16.31-.01.5,0,.97,0,1.18,0-.02-4.36-.04-6.95-.05-9.32-1.63.01-3.17.03-5.08.04-2.17,0-4.77.01-8.32.02-2.08,0-3.9,0-4.17,0-.01-7.31-.02-10.53-.02-16.37,1.71,0,4.74,0,9.07,0,9.8,0,9.2.4,9.2.78s.6.77-9.2.77Z"/>
        <path d="M175.07,101.77c.25-.33.47-.66.7-.94.25-.26.49-.51.71-.74.43-.49.9-.78,1.28-1.12.38-.34.78-.56,1.13-.8.36-.23.69-.47,1.04-.64.7-.39,1.4-.77,2.31-1.16.45-.22.95-.42,1.53-.63.57-.23,1.22-.47,1.97-.69,3.01-.92,4.57-1.15,6.13-1.37.78-.11,1.55-.21,2.53-.27.98-.1,2.15-.13,3.72-.13,3.14.03,4.69.29,6.25.47,1.54.27,3.12.46,6.12,1.46,2.99,1.04,4.37,1.88,5.74,2.69.33.22.67.45,1.02.69.35.24.69.55,1.09.87.76.66,1.66,1.54,2.52,2.99.89,1.45.99,2.85,1.04,3.88-.02.96-.04,1.73-.06,2.51-.07,1.56-.28,3.57-2.47,6-.28.29-.54.57-.79.83-.27.23-.53.44-.77.64-.47.42-.93.71-1.34,1-.4.29-.79.53-1.16.73-.37.21-.71.4-1.06.6-1.42.68-2.85,1.41-5.88,2.26-3.04.82-4.62.95-6.17,1.17-1.56.12-3.13.33-6.27.2-1.57-.09-2.75-.19-3.72-.34-.97-.12-1.75-.27-2.52-.44-1.53-.33-3.08-.67-6.03-1.79-2.93-1.19-4.27-2.1-5.58-3.01-.62-.51-1.27-.99-1.96-1.76-.69-.74-1.49-1.74-2.05-3.34-.09-.3-.17-.59-.25-.85-.03-.28-.05-.55-.08-.8-.06-.52-.04-.92-.02-1.26.03-.7.08-1.2.15-1.57.12-.72.3-.88.49-.88s.35.15.46.88c.06.36.1.87.13,1.57,0,.36.02.75.09,1.14.02.2.05.42.07.65.07.22.14.46.22.7.46,1.32,1.15,2.21,1.78,2.86.61.68,1.21,1.11,1.79,1.57,1.23.82,2.47,1.66,5.26,2.79,2.81,1.07,4.3,1.42,5.77,1.76.74.17,1.48.33,2.42.46.94.16,2.07.26,3.59.35,3.04.13,4.56-.06,6.08-.17,1.5-.19,3.04-.32,5.97-1.1,2.93-.82,4.28-1.53,5.62-2.21.33-.18.64-.38.99-.58.35-.2.7-.42,1.07-.7.37-.27.81-.54,1.24-.93.22-.18.45-.38.7-.59.22-.23.46-.48.71-.74.96-1.07,1.49-2.01,1.75-2.83.14-.41.27-.78.28-1.14.04-.36.1-.69.09-1.09.01-.77.03-1.55.04-2.51-.03-.46-.04-.92-.16-1.46-.08-.26-.16-.54-.25-.84-.1-.29-.29-.58-.44-.9-.72-1.24-1.51-2.03-2.2-2.64-.36-.29-.66-.57-.98-.81-.33-.22-.63-.43-.94-.64-1.27-.77-2.56-1.58-5.43-2.58-2.88-.97-4.4-1.17-5.89-1.46-1.51-.19-3.01-.47-6.06-.5-1.52,0-2.66.04-3.61.15-.95.07-1.7.18-2.45.31-1.5.24-3,.51-5.89,1.39-.73.21-1.34.45-1.89.67-.55.21-1.03.4-1.45.62-.86.38-1.51.75-2.15,1.13-.33.17-.63.39-.95.62-.32.23-.69.44-1.02.75-.33.31-.77.59-1.14,1.02-.2.2-.4.42-.62.65-.2.24-.38.52-.6.81-.59.86-.88,1.56-1.05,2.08-.05.12-.1.24-.15.35-.02.1-.05.2-.07.3-.05.18-.1.32-.14.43-.2.45-.39.4-.58.39-.19,0-.39.08-.49-.47-.02-.14-.04-.32-.04-.55,0-.12,0-.25,0-.39.03-.14.06-.29.1-.45.13-.67.44-1.56,1.14-2.59Z"/>
        <path d="M159.31,118.29c1.11,2.53,2.44,4.18,3.59,5.47,1.18,1.28,2.22,2.22,3.34,3.07,1.12.84,2.27,1.65,3.82,2.5,1.54.85,3.46,1.78,6.13,2.72,2.68.94,4.76,1.43,6.5,1.81,1.74.38,3.15.6,4.55.81,2.82.38,5.67.72,11.38.71,5.71-.1,8.55-.55,11.35-1,1.4-.26,2.8-.53,4.52-.97,1.72-.44,3.78-1,6.41-2.03,2.63-1.04,4.5-2.05,5.99-2.98,1.5-.92,2.62-1.77,3.67-2.69,1.06-.91,2.05-1.9,3.12-3.27,1.05-1.37,2.23-3.13,3.09-5.75.87-2.64.92-4.72.95-6.49.02-1.8.04-3.24.06-4.68.03-1.45.02-2.81-.3-4.53-.33-1.7-.89-3.75-2.35-6.14-1.45-2.39-3-3.86-4.3-5.03-1.32-1.16-2.48-1.96-3.68-2.7-1.19-.75-2.44-1.42-4.05-2.16-1.61-.74-3.58-1.53-6.31-2.33-2.73-.79-4.83-1.2-6.59-1.5-1.76-.29-3.17-.47-4.59-.61-1.42-.13-2.84-.25-4.63-.31-1.78-.07-3.93-.1-6.78.01-5.71.29-8.53.8-11.32,1.34-1.4.27-2.78.62-4.49,1.1-1.7.51-3.74,1.18-6.31,2.37-2.57,1.2-4.35,2.38-5.77,3.42-1.42,1.05-2.43,2.03-3.39,3.05-.96,1.02-1.81,2.14-2.7,3.63-.86,1.5-1.78,3.41-2.26,6.16-.35,2.02-.31,3.64-.35,4.96-.03,1.3-.08,2.24-.15,2.92-.12,1.35-.3,1.63-.49,1.63s-.35-.29-.46-1.63c-.06-.67-.1-1.62-.13-2.92-.02-1.28-.11-3.02.27-5.19.51-2.93,1.5-4.99,2.41-6.59.94-1.6,1.84-2.79,2.85-3.88,1.01-1.08,2.07-2.12,3.55-3.23,1.47-1.1,3.33-2.32,5.98-3.57,2.66-1.23,4.75-1.91,6.5-2.44,1.76-.49,3.17-.84,4.6-1.11,2.86-.54,5.73-1.04,11.53-1.34,2.9-.12,5.07-.09,6.88-.01,1.81.07,3.26.19,4.7.33,2.88.34,5.79.61,11.4,2.16,2.79.81,4.83,1.62,6.5,2.37,1.66.75,2.97,1.43,4.22,2.2,1.26.75,2.48,1.59,3.88,2.79,1.38,1.22,3.02,2.77,4.59,5.32,1.57,2.55,2.2,4.76,2.56,6.58.36,1.82.37,3.36.35,4.79-.01,1.44-.03,2.88-.04,4.68-.02,1.8-.07,4.1-.99,6.93-.93,2.83-2.18,4.73-3.3,6.19-1.13,1.46-2.19,2.5-3.31,3.46-1.11.97-2.29,1.85-3.85,2.81-1.56.96-3.5,2.01-6.21,3.09-2.72,1.07-4.83,1.65-6.59,2.09-1.76.44-3.2.71-4.63.96-1.43.23-2.87.44-4.68.62-1.8.19-3.98.33-6.88.37-5.81.02-8.71-.3-11.59-.64-1.44-.2-2.88-.4-4.67-.78-1.78-.37-3.92-.87-6.68-1.83-2.76-.97-4.75-1.92-6.37-2.8-1.62-.87-2.84-1.7-4.03-2.58-1.19-.88-2.31-1.86-3.58-3.22-1.24-1.37-2.68-3.14-3.89-5.9-.87-2.04-1.2-3.65-1.34-4.83-.13-1.18-.12-1.94-.05-2.43.11-.96.31-.82.51-.82.19,0,.38-.12.56.78.1.57.21,1.24.39,2.25.21,1.08.56,2.56,1.36,4.43Z"/>
        <path d="M179.61,28.09c-.05,5.85-.05,5.87-.1,11.72q-.02,5.86-.04,11.72c0,1.89.01,3.26.02,4.36-1.54.02-2.67.04-4.04.05-1.15,0-2.51.02-4.63.03q-5.86.02-11.72.04c-1.61-.01-2.77-.02-3.75-.03-1.22-.02-2.21-.04-3.25-.06.01-.87.03-1.79.05-2.91,0-.86.01-1.88.02-3.2q-.03-5.86-.05-11.72t-.02-11.73c0-1.28,0-2.34,0-3.03,3.95.02,4.84.03,10.07.06q5.86-.03,11.74-.07c4.33,0,4.92.3,4.92.69s-.58.64-4.92.64c-5.86,0-5.86.13-11.72.13-2.48,0-3.91-.03-5.18-.06-1.09-.02-2.04-.05-3.6-.08v.1c0,.11,0,.22,0,.33,0,.39,0,.8,0,1.26q-.01,5.86-.03,11.72c0,5.86.16,5.86.16,11.72,0,1.34-.01,2.38-.02,3.24,0,.43-.01.82-.02,1.19v.25s0,.02,0,.02v.06s.05.01.05.01h.02s.13,0,.13,0h.31c.42.01.85.02,1.33.03.97,0,2.12.01,3.71.02q5.86,0,11.72.01c3.71,0,4.87,0,7.42-.01,0-.48,0-1.52,0-3.04,0-5.87-.11-5.87-.11-11.74q-.02-5.87-.03-11.74c0-4.33.4-4.07.78-4.07s.77-.26.77,4.07Z"/>
        <path d="M195.57,61.29q.05-12.44.1-24.9t.04-24.91c0-.65,0-1.24,0-1.53-10.06.05-10.89.05-22.11.1q-12.45.02-24.91.04c-3.42-.01-5.9-.02-7.96-.03-1.03-.01-1.95-.02-2.84-.03-.44,0-.87-.01-1.3-.02h-.52s-.08-.02-.08-.02v.06s-.01.05-.01.05v.27c0,.37-.01.74-.02,1.13,0,.77-.01,1.6-.02,2.51,0,1.83-.01,4-.02,6.81q.03,12.45.05,24.9c0,11.76,0,12.1.02,23.51,0,0,.04,0,.09,0q12.44.03,24.89.06,12.47-.03,24.94-.07c9.21,0,10.44.3,10.44.69s-1.24.64-10.44.64q-12.44.07-24.9.13-12.44-.07-24.91-.15c-.71,0-1.39,0-1.41,0,.01-11.97.01-12.37.03-24.73,0-12.45-.16-12.45-.16-24.91.03-6.04.04-9.32.05-12.3,3.65.02,6.91.03,14.01.07q12.45,0,24.9.01c11.73,0,12.72,0,23.47-.02,0,.11,0,1.36,0,2.73q.06,12.46.11,24.94.02,12.47.03,24.94c0,9.21-.4,8.65-.78,8.65s-.77.56-.77-8.65Z"/>
      </g>
      <g>
        <path d="M371.99,121.65q.05-15.04.1-30.08t.04-30.1-.11-30.1c-.02-14.35-.02-14.64-.04-28.7h0c-4.06-.01-7.01-.02-9.45-.03-2.23-.02-4-.04-5.88-.06v.08c0,.18-.01.35-.01.53,0,.44,0,.89-.01,1.36,0,.93-.01,1.93-.02,3.03,0,2.21-.01,4.83-.02,8.23q.03,15.04.05,30.09,0,15.06.02,30.12-.03,15.07-.06,30.14c.03,12.95.04,14.47.06,25.26.72,0,2.02,0,3.49,0,11.13,0,12.62.3,12.62.69s-1.49.64-12.62.64c-2.03,0-3.82,0-4.82,0-.05-11.33-.06-12.94-.13-26.54q.07-15.04.15-30.1.01-15.05.03-30.1-.08-15.04-.16-30.1c.03-7.23.04-11.15.05-14.72,4.39.02,8.3.03,16.84.07.65,0,1.28,0,1.3,0,0,14.64,0,15-.01,30q0,15.06.02,30.12.06,15.06.11,30.14.02,15.07.03,30.14c0,11.13-.4,10.45-.78,10.45s-.77.68-.77-10.45Z"/>
        <path d="M276.92,45.36c.22-3.69.6-5.53.97-7.35.24-.91.44-1.82.85-2.93.37-1.11.93-2.44,2-4.04,1.09-1.61,2.34-2.49,3.37-3.12,1.07-.59,2.01-.89,2.95-1.12.47-.08.95-.16,1.45-.25.51-.03,1.04-.05,1.63-.08.59,0,1.25.06,1.99.1.74.15,1.58.22,2.49.57,1.83.64,3.08,1.51,3.91,2.39.46.41.79.84,1.1,1.25.34.4.59.8.82,1.22.95,1.65,1.76,3.43,2.46,7.1.18.92.29,1.72.37,2.44.1.72.17,1.35.21,1.93.11,1.15.17,2.07.2,3,.11,1.84.11,3.69.11,7.34,0,3.66-.04,5.49-.08,7.31-.06,1.83-.06,3.68-.34,7.36-.33,3.68-.72,5.51-1.18,7.32-.29.89-.52,1.81-1.02,2.89-.46,1.09-1.16,2.38-2.48,3.8-.66.73-1.39,1.2-2.01,1.64-.69.33-1.26.71-1.86.85-.58.19-1.09.38-1.6.45-.5.07-.98.22-1.46.22-.48.03-.95.05-1.46.08-.51-.03-1.04-.05-1.64-.08-.59-.07-1.25-.19-1.99-.35-.36-.12-.75-.24-1.16-.38-.41-.12-.81-.38-1.25-.58-.45-.2-.8-.5-1.16-.75-.18-.13-.34-.25-.51-.37-.14-.14-.29-.28-.42-.41-.27-.27-.54-.51-.75-.77-.2-.27-.4-.52-.58-.77-.39-.47-.61-.97-.87-1.4-.27-.44-.44-.88-.63-1.32-.72-1.75-1.33-3.56-1.85-7.24-.48-3.68-.49-5.53-.57-7.37-.05-1.85-.07-3.68-.06-7.34,0-5.41.3-6.13.69-6.13s.64.73.64,6.13c0,3.65.03,5.48.1,7.29.1,1.81.13,3.63.59,7.2.5,3.56,1.06,5.25,1.7,6.88.17.4.32.82.56,1.22.24.39.42.86.77,1.27.16.22.33.44.51.68.18.24.42.44.65.68.12.12.24.24.37.37.13.12.29.21.44.33.31.21.61.49,1,.66,1.49.85,2.83,1.01,3.89,1.18.55.03,1.04.06,1.51.09.47-.02.9-.04,1.34-.07.44,0,.86-.12,1.32-.19.46-.05.92-.21,1.43-.38.53-.13,1.03-.45,1.63-.74.55-.38,1.19-.78,1.77-1.42,1.18-1.25,1.82-2.43,2.24-3.44.46-1,.67-1.87.93-2.72.41-1.73.77-3.49,1.09-7.08.28-3.6.27-5.42.32-7.24.03-1.83.06-3.66.06-7.31,0-3.66,0-5.47-.08-7.28-.03-.91-.08-1.81-.18-2.94-.04-.56-.1-1.18-.19-1.88-.08-.7-.18-1.48-.35-2.36-.66-3.53-1.4-5.18-2.24-6.7-.21-.38-.43-.76-.72-1.11-.28-.36-.56-.77-.96-1.12-.72-.79-1.8-1.54-3.41-2.12-.8-.31-1.57-.38-2.23-.51-.68-.05-1.29-.08-1.83-.09-.55.04-1.04.07-1.5.1-.45.07-.88.17-1.3.25-.83.22-1.64.49-2.56,1.01-.88.55-1.95,1.29-2.91,2.72-.96,1.42-1.47,2.65-1.81,3.7-.37,1.04-.55,1.92-.76,2.78-.33,1.76-.66,3.52-.88,7.14-.14,2.67-.21,3.93-.38,4.52-.16.59-.35.51-.54.51-.19,0-.39.08-.52-.51-.13-.6-.25-1.88-.11-4.6Z"/>
        <path d="M264.47,81.31c.12.38.22.76.35,1.13.14.36.29.71.43,1.06.29.69.53,1.38.83,2.01.67,1.23,1.2,2.45,1.94,3.44.35.51.68,1.01,1.01,1.49.38.44.75.87,1.11,1.28.67.88,1.49,1.52,2.21,2.19,3.01,2.55,6,3.82,9.04,4.7,3.05.9,6.29,1.18,10.29,1.11,1-.06,2.06-.03,3.16-.23,1.1-.16,2.28-.26,3.47-.61.6-.15,1.23-.29,1.87-.47.62-.23,1.25-.47,1.91-.71.67-.21,1.31-.56,1.97-.9.65-.35,1.37-.65,1.99-1.14.58-.41,1.15-.8,1.7-1.18.5-.45.98-.89,1.46-1.31.23-.22.48-.41.69-.64.2-.23.4-.47.6-.69.39-.46.78-.9,1.15-1.33.63-.96,1.28-1.83,1.8-2.72.47-.92.96-1.78,1.36-2.63,1.56-3.45,2.22-6.51,2.86-9.48.47-3.01.84-5.96.92-9.49.01-.44.02-.89.04-1.35,0-.31.02-.62.02-.93l.02-.65v-.16s0-.06,0-.08h.08s.33,0,.33,0c1.1,0,2.26,0,3.47,0,2.32,0,4.86,0,7.73,0,0,.31,0,2.99,0,5.97q.05,26.11.11,52.23c0,1.58,0,3.05,0,3.86,7.53,0,12.02-.01,15.31-.02,0-8.87-.01-15.04-.03-30.07q.08-26.11.16-52.24c-.02-18.76-.03-23.8-.04-37.52-1.8,0-6.68,0-13.36,0-1.01,0-1.97,0-2.1,0,0,20.88,0,24.25.02,43.84-.34,0-3.17,0-6.35,0-1.84,0-3.57,0-5.19,0-.24.07-.16-.18-.18-.33l-.02-.5c0-.27-.02-.54-.03-.81-.01-.35-.02-.69-.03-1.02-.02-.67-.04-1.32-.06-1.96-.08-1.26-.2-2.44-.29-3.57-.08-1.12-.3-2.16-.42-3.16-.68-3.97-1.47-7.12-2.78-10.05-1.29-2.91-2.87-5.77-5.71-8.56-.76-.64-1.46-1.43-2.41-2.01-.45-.32-.92-.64-1.4-.97-.5-.3-1.05-.56-1.6-.85-1.07-.64-2.35-1.01-3.66-1.53-.67-.21-1.39-.36-2.11-.55-.36-.09-.73-.19-1.11-.27-.38-.05-.78-.11-1.17-.16-.8-.1-1.56-.25-2.31-.29-.75-.03-1.49-.06-2.2-.09-.35-.01-.7-.03-1.05-.04-.34.02-.68.03-1.02.05-.67.03-1.31.06-1.94.09-1.25.07-2.41.31-3.52.44-1.09.21-2.1.51-3.07.73-3.82,1.17-6.59,2.89-8.93,5.01-2.33,2.14-4.29,4.73-5.96,8.37-1.65,3.64-2.95,8.36-3.51,14.81-.42,4.75-.3,8.53-.36,11.5-.03,2.96-.08,5.09-.15,6.62-.12,3.06-.3,3.71-.49,3.71s-.35-.65-.46-3.71c-.06-1.53-.1-3.66-.13-6.62,0-2.95-.16-6.75.27-11.61.57-6.56,1.9-11.43,3.6-15.22,1.72-3.79,3.78-6.53,6.24-8.82,2.47-2.26,5.41-4.1,9.42-5.34,1.02-.25,2.08-.54,3.21-.78,1.15-.14,2.36-.38,3.65-.47.65-.03,1.32-.06,2.01-.09.69-.04,1.4-.06,2.13-.01.73.03,1.49.06,2.27.1.78.03,1.58.2,2.41.3.41.06.82.12,1.22.17.4.07.78.18,1.17.27.76.19,1.51.37,2.22.56.69.26,1.37.51,2.02.76.32.13.65.23.96.38.3.16.6.31.89.46.58.31,1.15.6,1.7.89.51.35,1,.7,1.49,1.03,1,.62,1.77,1.43,2.56,2.13,3.02,2.95,4.68,5.95,6.03,8.98.31.77.62,1.55.93,2.33.24.81.49,1.63.74,2.47.29.84.43,1.73.64,2.65.2.92.43,1.88.55,2.9.13,1.02.34,2.09.44,3.23.09,1.14.19,2.35.3,3.63.03,1.11.07,2.28.11,3.53.01.02.07,0,.1.01h.34c.37,0,.75,0,1.13,0,.77,0,1.56,0,2.37,0,2.6,0,4.91,0,5.2,0,.01-19.51.01-22.86.03-43.8.2,0,1.65,0,3.18,0,6.17,0,10.94-.02,14.83-.02.04,6.86.06,11.48.09,17.01.01,5.33.03,11.52.05,21.62q-.06,26.12-.12,52.24c0,15.81,0,22.24,0,31.62-3.84,0-9.15,0-18.05,0,0-1.06,0-2.97,0-5.03q0-26.13-.02-52.26c0-2.04,0-3.91,0-4.86-2.37,0-4.47,0-6.38,0-.93,0-1.81,0-2.65,0-.02,0-.04,0-.05,0v.06s0,.35,0,.35c-.01.46-.02.91-.03,1.35-.05,3.53-.4,6.51-.86,9.57-.12.76-.31,1.52-.47,2.3-.17.78-.31,1.58-.58,2.38-.24.81-.49,1.64-.75,2.5-.34.84-.69,1.72-1.05,2.64-.36.92-.91,1.81-1.4,2.79-.23.5-.57.95-.89,1.44-.32.48-.66.97-1,1.48-1.54,1.88-3.35,3.99-5.99,5.62-.67.52-1.42.86-2.12,1.23-.7.36-1.37.75-2.08.97-.7.26-1.37.51-2.02.75-.67.2-1.33.34-1.96.51-1.26.37-2.49.49-3.64.65-1.15.21-2.24.2-3.28.25-4.15.1-7.51-.18-10.75-1.1-3.21-.9-6.42-2.23-9.66-4.96-.77-.72-1.66-1.4-2.38-2.33-.38-.44-.78-.9-1.18-1.37-.36-.5-.71-1.04-1.08-1.58-.79-1.06-1.35-2.34-2.06-3.64-.32-.66-.57-1.38-.88-2.11-.15-.36-.3-.73-.45-1.11-.13-.38-.24-.78-.37-1.17-1.47-4.7-1.84-8.31-2.05-10.92-.08-1.31-.17-2.39-.17-3.27,0-.88.02-1.57.05-2.1.09-2.13.3-1.84.49-1.84.19,0,.38-.29.58,1.81.05.53.1,1.2.15,2.07.06.86.2,1.91.31,3.2.29,2.55.7,6.06,2.12,10.58Z"/>
      </g>
      <g>
        <path d="M509.63,26.25c.01-9.51.02-15.77.03-20.96-5.43-.02-9.69-.03-15.51-.05,0,4.52-.01,10.24-.02,18.29q-.02,28.82-.04,57.64c.05,22.96.06,27.33.1,43.91,2.92,0,7.11,0,12.28-.01,1.6,0,3.09,0,3.19,0-.02-24.68-.02-26.49-.04-52.97,0-4.34,0-8.06,0-11.33,5.19.01,9.32.03,12.99.04-.03,10.52-.06,17.22-.12,36.36.02,16.82.02,23.64.03,34.29,3.21,0,8.31,0,15.62-.02,0-.25,0-2.53,0-5.07q0-28.84-.02-57.68t.06-57.72c0-3.18,0-5.99,0-8.45-6.82.01-11.46.02-15.66.02.01,8.24.02,15.2.04,31.04-.02,5.55-.04,9.91-.05,13.33-1.47-.02-2.78-.03-3.96-.04-.98-.02-1.86-.04-2.63-.06-1.54-.04-2.67-.09-3.48-.15-1.64-.11-2.04-.24-2.04-.39s.4-.27,2.04-.37c.82-.05,1.95-.09,3.48-.13,1.4-.02,3.15-.05,5.36-.09-.01-3.1-.03-7.06-.04-12.1-.04-16.54-.06-23.79-.08-32.41,4.94-.01,10.4-.03,18.42-.05,0,2.85,0,6.08,0,9.74q-.07,28.82-.15,57.64-.01,28.82-.03,57.64c0,2.46,0,4.73,0,6.54-7.82.02-13.4.03-18.18.05-.03-10.05-.05-16.9-.11-35.4.05-18.36.06-24.81.09-35.15-2.76,0-5.98-.02-10.18-.03,0,2.72,0,5.96,0,9.73,0,27.26,0,29.02-.01,54.52-.14,0-2.17,0-4.34,0-6.92,0-12.25,0-13.84,0,0-17.38,0-22.54-.02-45.08q-.06-28.86-.11-57.72c0-9.92,0-16.56,0-19.83,7.06,0,12.33-.01,18.47-.02,0,5.82,0,12.48,0,22.47,0,10.65-.1,15.66-.25,18-.15,2.34-.34,2.01-.54,2.01s-.39.32-.53-2.01c-.14-2.34-.24-7.34-.24-18Z"/>
        <path d="M467.54,14.99q-17.73-.05-35.48-.1c-.9,0-1.73,0-1.79,0-.02,15.06-.02,16.18-.04,32.36q.05,17.74.11,35.49c0,7.02.01,11.11.02,14.03,5.82,0,9.98-.01,19.95-.03,8.86,0,13.29-.13,17.71-.3,2.21-.09,4.42-.21,7.18-.42,2.75-.22,6.06-.52,10.43-1.18.45-.07.88-.14,1.31-.21.06,0,.11,0,.08-.08-.02-.12-.03-.25-.04-.37-.11-.95-.22-1.84-.32-2.68-.2-1.68-.38-3.16-.55-4.51-.3-2.43-.54-4.37-.77-6.25l-1.08.17c-.58.08-1.17.17-1.78.25-1.21.17-2.48.32-3.9.48-2.83.31-6.21.63-10.78.88-5.17.28-8.84.33-11.97.38-3.37.01-6.16.02-9.4.03,0-3.25,0-7.77,0-15.54q.03-17.77.06-35.54c0-1.27,0-2.47,0-3.02,15.26-.03,16.33-.03,32.7-.07v-.04c0-1.51,0-2.85.01-4.05.01-1.3.03-2.45.04-3.45.03-2.01.08-3.46.15-4.5.12-2.08.3-2.52.49-2.52s.35.44.46,2.52c.06,1.04.1,2.49.13,4.5,0,1.01.02,2.15.03,3.45,0,1.4,0,2.97.01,4.73v.69c-16.32.07-17.38.07-32.63.13,0,.29,0,.91,0,1.57q-.07,17.74-.15,35.49c0,7.18,0,11.33-.01,14.35,2.76,0,5.14,0,8.03-.01,3.1-.04,6.74-.09,11.86-.36,4.62-.25,8.02-.58,10.84-.9,1.41-.16,2.68-.32,3.87-.5,1.44-.22,2.79-.43,4.17-.63.29,2.31.59,4.67.97,7.61.17,1.34.35,2.81.55,4.47.1.83.21,1.71.32,2.64.04.35.09.7.13,1.07.03.24.06.47.09.71-.18.08-.46.09-.69.14-.61.1-1.25.2-1.9.31-4.42.67-7.75.97-10.52,1.2-2.78.22-5,.34-7.22.44-4.45.18-8.89.32-17.78.32-10.72,0-15.15,0-21.45,0,0-3.16,0-7.64,0-15.28q0-17.76-.02-35.51c-.06-17.13-.06-18.12-.11-33.89.57,0,1.82,0,3.15,0q17.77-.02,35.54-.03c13.12,0,12.32.4,12.32.78s.8.77-12.32.77Z"/>
      </g>
      <g>
        <path d="M657.06,30.38q.05-13.2.1-26.42c0-.64,0-1.23,0-1.4-7.7-.01-10.18-.02-16.34-.03,0,.77,0,3.04,0,6.08q.05,13.21.11,26.43t.04,26.43-.16,26.43c0,3.84.01,6.47.01,7.73,5.61-.01,8.28-.02,16.34-.04,0,0,0-.03,0-.06q0-13.07-.02-26.13c.02-7.69.03-11.1.04-15.09,3.04,0,6.48.01,12.67.03,1.79,0,3.3,0,4.43,0-.02-6.06-.03-8.38-.06-14.09-1.27,0-3.08,0-5.32,0-9.77,0-11.08-.3-11.08-.69s1.31-.64,11.08-.64c2.8,0,5.06,0,6.65-.01.05,6.8.06,9.56.11,16.81-1.47,0-3.44,0-5.77,0-2.93,0-5.21-.01-7.13-.02-.96,0-1.82-.01-2.64-.02-.41,0-.8,0-1.18-.01h-.29c-.11,0-.05,0-.08,0h-.06c-.02,1.64-.04,3.18-.06,5.11,0,2.2-.02,4.86-.03,8.53q-.01,13.31-.03,26.63c0,.34,0,.68,0,.91-4.88.02-8.02.04-10.71.05-2.78.03-5.08.05-8.25.08,0-2.31-.02-5.13-.03-9q.06-13.21.12-26.44,0-13.21.01-26.42,0-13.22-.02-26.44c0-3.14-.01-5.59-.01-7.45,7.01-.04,9.63-.05,19.04-.1,0,.61,0,1.66,0,2.77q.02,13.23.03,26.46c0,9.77-.4,9.17-.78,9.17s-.77.6-.77-9.17Z"/>
        <path d="M578.92,55.91c.97-2.17,1.89-2.98,2.71-3.78.86-.77,1.78-1.51,3.83-2.51,2.09-.93,3.24-1.08,4.34-1.31.56-.1,1.12-.13,1.82-.22.7,0,1.55-.11,2.67-.03,2.25.1,3.37.35,4.47.6.55.15,1.11.27,1.77.55.67.24,1.47.59,2.45,1.19,1.95,1.23,2.73,2.15,3.48,3.03.17.24.35.47.54.72.17.26.33.55.52.87.18.32.33.7.52,1.12.13.45.34.93.42,1.53.14.58.12,1.14.15,1.59,0,.43-.01.8-.02,1.15-.02.68-.04,1.23-.06,1.78-.07,1.12-.13,2.43-1.22,4.49-1.17,2.01-2.11,2.75-2.96,3.52-.89.71-1.84,1.41-3.96,2.27-.53.23-1.01.35-1.43.48-.42.14-.8.23-1.15.29-.35.07-.66.14-.96.2-.3.04-.58.07-.86.11-.28.03-.56.07-.86.1-.3.01-.62.03-.97.04-.7.05-1.55,0-2.68-.05-2.26-.2-3.35-.61-4.44-.93-1.05-.44-2.17-.77-4.04-2.1-1.84-1.38-2.53-2.35-3.2-3.3-.15-.25-.3-.5-.46-.77-.14-.28-.27-.58-.43-.92-.25-.69-.56-1.54-.61-2.75-.04-3.3.29-3.69.67-3.7.4-.01.62.46.66,3.64.03,1,.3,1.73.53,2.31.14.28.26.54.38.78.14.23.28.44.41.66.6.82,1.22,1.66,2.86,2.9,1.68,1.2,2.7,1.53,3.65,1.95.99.32,1.99.73,4.11.91,1.06.06,1.86.11,2.52.06.67-.01,1.2-.04,1.72-.12.26-.03.53-.06.81-.09.28-.05.57-.11.89-.18.33-.06.68-.13,1.07-.26.39-.12.85-.23,1.33-.44,1.95-.79,2.8-1.44,3.59-2.11.75-.7,1.56-1.39,2.58-3.14.47-.89.72-1.6.85-2.21.15-.62.16-1.07.19-1.62.01-.55.03-1.1.04-1.78,0-.34,0-.72.01-1.15-.03-.41,0-.83-.12-1.33-.17-.99-.51-1.69-.79-2.26-.16-.28-.31-.53-.44-.76-.16-.22-.31-.43-.46-.64-.65-.79-1.33-1.61-3.09-2.73-.43-.29-.85-.48-1.22-.67-.36-.2-.7-.32-1.01-.44-.6-.26-1.12-.39-1.62-.53-1.02-.26-2.06-.51-4.18-.61-1.06-.07-1.86.03-2.52.05-.66.1-1.18.15-1.7.26-1.02.25-2.08.42-3.98,1.27-1.87.91-2.68,1.59-3.41,2.3-.7.73-1.48,1.46-2.3,3.3-.55,1.37-.61,2.06-.79,2.37-.17.32-.36.28-.56.28-.19,0-.39.06-.51-.33-.1-.37-.23-1.28.42-2.92Z"/>
        <path d="M593.77,107.16c0-3.16.01-5.51.02-7.47.01-1.68.03-3.03.04-4.39-2.81-.01-5.7-.02-11.34-.05-2.53,0-4.47,0-5.06,0-.01,7.01-.02,9.13-.03,18.27.02,4.62.03,7.51.03,9.97.02,2.21.03,4.04.06,6.65,1.74,0,3.82,0,6.6-.02q12.32-.02,24.65-.04c12.33,0,12.33.16,24.66.16q12.32-.03,24.64-.05c1,0,1.9,0,2.21,0,0-6.29,0-8.65-.01-13.76-.81,0-2.99,0-5.98,0q-12.34-.03-24.68-.06t-24.68.07c-9.11,0-10.34-.3-10.34-.69s1.22-.64,10.34-.64q12.31-.07,24.64-.13,12.31.07,24.65.15c3.68,0,6.35,0,7.35,0,0,6.03-.01,8.83-.02,16.33-.47,0-1.85,0-3.38,0-12.33,0-12.33.16-24.65.16q-12.32-.06-24.66-.12-12.32,0-24.64-.01c-4.02,0-6.82,0-8.03,0,0-6.26,0-8.94-.01-17.88-.05-10.33-.06-12.34-.1-19.74,1.54,0,3.71,0,6.42-.01,6.43,0,9.71-.01,12.87-.02,0,3.4,0,6.67.02,13.34,0,9.11-.4,8.56-.78,8.56s-.77.56-.77-8.56Z"/>
        <path d="M564.14,69.68c.13.55.41,1.02.58,1.48.21.45.35.91.59,1.28.46.76.77,1.48,1.21,2.04.42.57.77,1.11,1.15,1.58.4.45.78.88,1.16,1.3.36.45.82.79,1.26,1.21.45.41.91.86,1.51,1.26,1.14.86,2.57,1.84,4.66,2.82.52.24,1.01.47,1.47.69.48.18.93.34,1.35.5.85.31,1.59.59,2.3.76.7.19,1.33.36,1.92.52.6.14,1.17.23,1.74.34.57.1,1.14.23,1.75.31.61.07,1.26.14,1.98.22.36.04.74.08,1.14.12.4.01.83.03,1.28.05.91,0,1.93.13,3.09.05,4.66-.07,6.94-.66,9.2-1.1.56-.16,1.11-.31,1.7-.48.59-.17,1.22-.32,1.89-.6.67-.26,1.43-.5,2.25-.86.8-.41,1.75-.76,2.74-1.34.99-.58,1.87-1.06,2.57-1.62.73-.52,1.37-.98,1.88-1.48,1.1-.91,1.84-1.79,2.6-2.63.37-.43.67-.92,1.03-1.4.38-.47.69-1.03,1.03-1.65.17-.31.36-.63.55-.98.15-.36.32-.75.49-1.15.4-.8.62-1.76.96-2.85.49-2.23.56-3.89.58-5.37.02-1.47.04-2.65.06-3.83.02-.6,0-1.16-.03-1.77-.03-.6-.02-1.25-.17-1.95-.12-.7-.2-1.49-.49-2.33-.13-.43-.25-.88-.41-1.36-.2-.46-.41-.96-.63-1.48-.2-.54-.5-.99-.74-1.43-.26-.43-.46-.86-.72-1.22-.54-.71-.97-1.37-1.44-1.91-.48-.53-.92-1-1.33-1.45-.44-.42-.88-.79-1.31-1.17-.22-.19-.43-.38-.65-.57-.24-.17-.48-.34-.73-.52-.51-.34-1-.76-1.62-1.12-.62-.36-1.3-.77-2.09-1.2-.82-.36-1.71-.84-2.79-1.26-1.09-.37-2.02-.79-2.9-1-.87-.23-1.64-.44-2.34-.63-1.43-.24-2.56-.52-3.71-.64-.58-.06-1.15-.12-1.77-.19-.31-.03-.62-.07-.95-.1-.33-.01-.68-.02-1.04-.04-.73-.02-1.52-.05-2.43-.08-.91.03-1.92.06-3.09.1-2.32.18-4.05.37-5.47.66-1.44.22-2.55.54-3.67.84-2.19.68-4.51,1.27-8.41,3.75-1.89,1.31-3.2,2.45-4.18,3.49-.47.54-.93,1-1.3,1.48-.35.49-.69.96-1.02,1.42-.35.45-.58.99-.89,1.5-.15.27-.31.53-.46.82-.13.3-.26.61-.4.94-.14.33-.28.67-.44,1.04-.11.38-.23.78-.36,1.21-.3.84-.43,1.83-.63,2.95-.1.83-.11,1.59-.17,2.25-.04.68-.03,1.3-.05,1.83-.03,1.07-.08,1.84-.15,2.39-.12,1.1-.3,1.34-.49,1.34s-.35-.23-.46-1.34c-.06-.55-.1-1.32-.13-2.39,0-.54-.04-1.13-.02-1.84.04-.71.05-1.52.15-2.41.21-1.2.35-2.25.67-3.15.13-.46.26-.88.38-1.29.16-.39.32-.76.46-1.11.15-.35.29-.68.42-1,.15-.31.32-.6.48-.88.33-.55.57-1.12.94-1.61.35-.5.7-.99,1.08-1.52.39-.51.87-1,1.37-1.57,1.03-1.11,2.41-2.32,4.4-3.7,4.09-2.61,6.5-3.19,8.78-3.89,1.16-.29,2.32-.63,3.8-.84,1.47-.3,3.25-.49,5.63-.68,1.19-.04,2.23-.08,3.16-.11.93.03,1.75.06,2.49.09.37.01.73.03,1.07.04.34.04.66.07.98.1.63.07,1.22.13,1.82.2,1.19.12,2.35.41,3.82.67,1.44.38,3.19.8,5.43,1.68,1.12.42,2.05.92,2.91,1.3.83.44,1.54.87,2.19,1.24.66.36,1.18.8,1.72,1.16.53.36,1.02.71,1.47,1.12.46.4.92.78,1.4,1.22.44.47.91.97,1.42,1.53.51.56.97,1.27,1.55,2.02.29.38.51.84.78,1.3.26.47.59.95.8,1.52.24.56.46,1.09.68,1.59.19.51.31,1,.45,1.46.31.91.41,1.74.54,2.5.16.75.17,1.44.2,2.08.03.65.07,1.26.04,1.84-.01,1.18-.03,2.36-.04,3.83-.01,1.46-.08,3.33-.59,5.7-.36,1.16-.6,2.2-1.02,3.06-.19.44-.36.85-.53,1.23-.19.38-.4.72-.58,1.05-.7,1.35-1.49,2.28-2.21,3.25-.82.89-1.6,1.82-2.76,2.79-.29.24-.57.53-.9.78-.34.25-.7.5-1.08.78-.74.59-1.66,1.1-2.7,1.71-.51.32-1.02.56-1.51.78-.48.22-.93.43-1.36.63-.86.38-1.65.62-2.35.89-.7.28-1.35.45-1.97.61-.61.17-1.19.32-1.77.48-2.34.44-4.7,1.02-9.48,1.1-1.19.08-2.24-.03-3.17-.04-.47-.01-.9-.03-1.32-.04-.41-.04-.8-.08-1.18-.11-.74-.07-1.41-.14-2.05-.2-.63-.07-1.22-.2-1.81-.29-.59-.11-1.18-.2-1.81-.32-.62-.16-1.27-.33-2-.52-.73-.17-1.51-.44-2.4-.77-.44-.16-.91-.33-1.41-.51-.48-.22-1-.46-1.54-.72-2.19-1.03-3.71-2.05-4.92-2.95-.63-.42-1.13-.89-1.62-1.32-.47-.44-.97-.8-1.36-1.27-.41-.45-.82-.9-1.26-1.38-.41-.5-.8-1.07-1.25-1.68-.48-.6-.83-1.37-1.32-2.19-.26-.4-.42-.89-.64-1.38-.19-.5-.48-1.01-.63-1.61-1.12-3.46-.89-5.23-.82-6,.1-.79.31-.67.5-.67.19,0,.38-.1.57.64.22.73.19,2.35,1.23,5.54Z"/>
        <path d="M601.48,7.55c0-2.62.01-4.51.02-6.02-2.03-.02-3.52-.04-5.33-.05-2.07,0-4.52-.02-8.34-.03-1.19,0-2.21,0-2.55,0-.01,6.16-.02,8.25-.03,14.11-.41,0-2.25,0-4.49,0q-10.6.05-21.21.11c-1.38,0-2.54,0-2.89,0,.02,5.7.02,7.49.04,13.46h0s0,0,0,0h0s.09,0,.09,0c.47,0,1.08,0,1.72,0,10.61,0,10.61.16,21.22.16q10.6-.03,21.21-.05t21.22-.02c3.54,0,5.79.01,7.58.02.01-3.57.02-5.9.05-12.32,0-.57,0-1.1,0-1.36-8.41.03-9.16.03-18.62.07-7.84,0-8.89-.3-8.89-.69s1.05-.64,8.89-.64c4.89,0,7.52-.03,10.02-.06,1.25-.01,2.47-.03,3.92-.04,1.66,0,3.58-.02,6.07-.03,0,.52,0,1.57,0,2.72-.02,3.43-.03,5.74-.04,7.68-.03,2.17-.05,3.9-.07,6.01-2.18-.01-4.79-.02-8.84-.04q-10.61-.01-21.21-.03c-10.61,0-10.61.16-21.21.16q-10.6-.06-21.22-.12c-1.65,0-3.09,0-3.3,0,0-7.17,0-9.33.01-16.23.51,0,2.18,0,4.18,0q10.61,0,21.22-.02c1.38,0,2.54,0,3.28,0-.04-5.99-.06-7.89-.1-14.24.93,0,2.33,0,3.92,0,7.62-.01,10.05-.02,15.24-.02,0,1.2,0,3.77,0,7.55,0,7.84-.4,7.36-.78,7.36s-.77.48-.77-7.36Z"/>
      </g>
      <g>
        <path d="M829.42,121.58q.05-15.14.1-30.28t.04-30.3-.11-30.3c-.02-14.01-.02-14.7-.04-28.03-.09,0,.34,0-.71,0-4.16-.01-7.18-.02-9.68-.03-2.24-.02-4.03-.04-5.92-.06v.08c0,.18-.01.36-.01.54,0,.44,0,.9-.01,1.37,0,.94-.01,1.95-.02,3.05,0,2.22-.01,4.87-.02,8.28q.03,15.14.05,30.29,0,15.16.02,30.32-.03,15.17-.06,30.34c.03,12.67.04,14.46.06,24.57.95,0,2.54,0,4.39,0,11.2,0,12.7.3,12.7.69s-1.5.64-12.7.64c-2.41,0-4.48,0-5.72,0-.05-10.62-.06-12.52-.13-25.85q.07-15.14.15-30.3.01-15.15.03-30.3-.08-15.14-.16-30.3c.03-7.28.04-11.23.05-14.81,4.4.02,8.33.03,16.89.07,1.11,0,2.16,0,2.22,0,0,13.9,0,14.67-.01,29.33q0,15.16.02,30.32.06,15.16.11,30.34.02,15.17.03,30.34c0,11.2-.4,10.52-.78,10.52s-.77.68-.77-10.52Z"/>
        <path d="M733.56,100.81c.59.89,1.15,1.72,1.68,2.51.23.34.45.67.66.99,0,0,0,.01.02,0,1.41-.87,2.65-1.63,3.78-2.33,2.28-1.4,4.1-2.5,5.9-3.66,3.61-2.28,7.26-4.51,14.23-9.43,3.51-2.43,5.99-4.45,8.1-6.07,1.03-.84,1.92-1.64,2.78-2.36.85-.75,1.7-1.39,2.43-2.16,1.51-1.49,3.09-2.91,4.77-4.95.43-.5.9-1.01,1.37-1.58.43-.6.88-1.22,1.36-1.89,1.03-1.29,1.89-2.93,2.93-4.75.48-.93.82-1.86,1.21-2.71.18-.43.36-.84.53-1.24.13-.42.25-.82.37-1.22.24-.79.47-1.52.68-2.22.22-.7.3-1.39.45-2.03.6-2.57.74-4.69,1-6.79.31-4.24.35-8.47.32-17.04-.01-8.8-.02-12.88-.02-17.61-3.5,0-7.55,0-15.1.02q-17.11-.08-34.24-.16c-4.32,0-7.48,0-9.48,0,.01,5.28.02,8.49.03,13.97,1.06,0,4.09,0,8.19,0,17.13,0,17.47,0,34.26-.02v1.27c0,4.33-.02,7.57-.02,10.27-.02,2.69-.1,4.85-.3,7.01-.13,1.08-.17,2.16-.42,3.3-.1.57-.21,1.16-.32,1.77-.1.61-.33,1.23-.5,1.89-.31,1.34-.94,2.71-1.59,4.3-.41.75-.85,1.54-1.32,2.39-.22.43-.51.84-.81,1.25-.3.42-.6.85-.92,1.29-2.65,3.47-5.05,5.69-7.06,7.47-1.03.88-1.95,1.66-2.82,2.41-.91.7-1.76,1.36-2.61,2.01-3.42,2.61-6.94,5.1-14.18,9.72-5.35,3.39-8.5,5.14-10.27,6.08-1.78.93-2.23,1-2.33.84s.18-.52,1.84-1.65c1.65-1.14,4.72-3,10.05-6.38,7.19-4.59,10.67-7.07,14.04-9.66.84-.65,1.68-1.3,2.57-2,.85-.73,1.76-1.51,2.76-2.37,1.98-1.75,4.31-3.93,6.86-7.24.58-.86,1.22-1.62,1.66-2.43.45-.8.87-1.55,1.26-2.26.61-1.51,1.23-2.8,1.52-4.07.17-.63.38-1.21.49-1.8.11-.59.22-1.15.32-1.7.24-1.09.3-2.15.43-3.19.41-4.2.36-8.48.37-17.04v-.16c-16.04-.01-16.42-.01-32.83-.03-3.96,0-7.07.01-9.59.02-.05-6.66-.07-10.25-.12-16.6,2.78,0,6.19-.01,10.72-.02q17.11.06,34.24.12c8.3,0,12.73,0,16.6,0,0,5.03,0,9.44,0,18.87.02,8.55-.02,12.87-.36,17.17-.28,2.14-.42,4.31-1.04,6.95-.15.66-.26,1.37-.46,2.09-.22.72-.46,1.49-.71,2.3-.13.41-.26.82-.39,1.25-.16.42-.36.84-.54,1.29-.39.88-.76,1.83-1.24,2.81-1.09,1.89-1.96,3.59-3.02,4.92-.49.69-.96,1.34-1.4,1.96-.46.59-.95,1.11-1.39,1.63-1.72,2.11-3.3,3.58-4.84,5.1-.75.79-1.59,1.46-2.45,2.22-.87.75-1.77,1.56-2.81,2.42-2.13,1.65-4.63,3.7-8.16,6.15-7.02,4.96-10.67,7.22-14.28,9.55-1.8,1.17-3.62,2.3-5.9,3.71-1.15.71-2.41,1.49-3.84,2.38-.35.22-.71.44-1.08.67l-.14.09s-.06-.08-.1-.11l-.18-.27-.37-.55c-.28-.42-.57-.85-.87-1.3-.53-.79-1.09-1.62-1.68-2.51-7.04-10.51-6.29-10.09-5.96-10.31.32-.22.21-1.07,7.25,9.44Z"/>
      </g>
      <g>
        <path d="M866.11,101.26c0,1.82,0,3.34,0,4.32,8.19.04,9.93.05,20.63.1q13.24.02,26.49.04c11.78-.05,13.42-.06,22.86-.1,0,1.1,0,2.95,0,5.09.02,11.15.02,12.59.04,22.31h0s0,0,0,0c.11,0,.23,0,.36,0,.61,0,1.41,0,2.26,0,3.64.01,6.27.02,8.47.03,1.09.01,2.08.02,3.02.03.47,0,.93.01,1.39.02h.6s.08.02.08.02v-.07s0-.02,0-.02v-.08s0-.29,0-.29c0-.39,0-.79.01-1.2,0-.82.01-1.7.02-2.67,0-1.94.01-4.25.02-7.24q-.03-13.24-.05-26.48c0-1.16,0-2.19,0-2.32-10.13,0-11.42,0-22.83.02q-13.26-.03-26.52-.06t-26.52.07c-9.79,0-11.11-.3-11.11-.69s1.31-.64,11.11-.64q13.23-.07,26.47-.13,13.23.07,26.49.15c12.09.01,13.41.01,24.18.03,0,.19,0,1.75,0,3.49q.08,13.23.16,26.49c-.03,6.41-.04,9.88-.05,13.04-3.87-.02-7.32-.03-14.86-.07-2.06,0-3.85,0-4.12,0,0-10.26,0-11.81.01-23.62,0-1.92,0-3.51,0-3.83-8.91,0-10.71,0-21.43.02q-13.25.06-26.52.11c-11.11.01-13.24.02-22.22.03,0-.56,0-2.93,0-5.86,0-9.79.4-9.19.78-9.19s.77-.6.77,9.19Z"/>
        <path d="M947,60.49c2.21,0,4.28,0,6.2,0,0-5.01,0-9.14.01-12.47-21.99-.03-28.85-.04-60.96-.09-3.49,0-6.7,0-9.1,0,0-4.47,0-7.46,0-8.47,27.52.01,33.9.02,67.8.03.05,0,.11,0,.14,0-.02-15.92-.03-25.37-.04-33.28-12.81.02-22.67.03-46.72.07-17.67,0-27.64.01-37.55.02,0,3.92,0,7.9.01,12.48,5.45,0,14.83,0,29.65-.01,18.72.03,29.12.05,38.62.07,0,2.88-.02,5.67-.03,8.54-9.38-.02-19.77-.03-38.39-.07-13.68,0-22.73.01-29.57.01.01,11.22.02,19.39.03,33.28,1.87,0,8.62,0,17.25,0,6.85,0,12.6,0,16.93,0,0,4.55,0,7.88,0,10.17-18.14,0-27.17,0-50.81.01,0,.26,0,3.09,0,6.19,0,2.77,0,5.33,0,6.58,34.06.03,36.87.03,74.88.06,21.9-.02,32.04-.03,43.07-.04,0-3.93-.01-7.97-.02-12.8-6.32,0-13.99,0-24.28.01-6.31-.01-11.5-.03-15.75-.04-4.47-.04-7.96-.08-10.67-.1.02-1.13.04-2.14.05-3.06.02-.74.04-1.41.06-2,.04-1.17.08-2.05.13-2.69.09-1.28.2-1.63.31-1.63s.22.35.3,1.63c.04.64.08,1.51.12,2.69.03,1.05.06,2.36.09,3.99.15,0,.32,0,.48-.01.34,0,.7,0,1.07-.01.74,0,1.52-.02,2.36-.02,1.68-.01,3.57-.02,5.69-.04,4.25,0,9.43-.02,15.75-.03,10.87,0,18.95-.02,25.62-.02.01,5.85.03,10.74.04,15.49-11.33.02-21.77.04-44.28.07-39.03-.08-41.53-.08-76.32-.15,0-2.07,0-4.76,0-7.64,0-3.87,0-7.41,0-7.74,23.59,0,32.59.01,50.85.02,0-1.71,0-4.22,0-7.63-3.96,0-9.18,0-15.36,0-7.55,0-13.77,0-18.81.01-.05-15.4-.07-23.76-.11-35.9,7.67-.01,16.94-.02,30.65-.04,18.25.03,28.3.04,37.27.05,0-1.93.01-3.82.02-5.76-9.15-.01-19.15-.03-36.95-.05-15.66,0-25.51,0-31.32,0,0-5.57,0-10.43,0-15.25,10.15,0,20.46,0,38.63,0,24.16,0,34.4,0,48.32-.01,0,7.62,0,17.94,0,35.85h-.91c-34.65.05-40.09.06-66.89.11,0,1.46,0,3.38,0,5.65,2.23,0,4.78,0,7.54,0,31.32-.01,39.25-.02,62.64-.03,0,2.18,0,7.52,0,15.56-1.89,0-4.72,0-7.75,0-15.29,0-22.47-.1-25.83-.25s-2.89-.34-2.89-.54-.47-.39,2.89-.53c3.36-.14,10.54-.24,25.83-.24Z"/>
      </g>
    </g>
  </g>
</svg>