<svg width="398" height="291" viewBox="0 0 398 291" fill="none" xmlns="http://www.w3.org/2000/svg">
<path d="M397.213 0.693604H0.675171V145.217H397.213V0.693604Z" fill="white"/>
<path d="M396.52 106.726C396.565 53.6425 396.565 51.7328 396.61 1.29715C395.898 1.29715 394.215 1.29715 392.477 1.29715C355.559 1.28514 318.644 1.27315 281.731 1.26114C244.819 1.24913 207.904 1.28214 170.985 1.36021C134.067 1.43828 97.1485 1.45033 60.2302 1.39628C30.1331 1.35124 16.5655 1.3332 1.29643 1.31518C1.27843 13.7102 1.26042 27.2582 1.23341 51.949C1.25142 98.286 1.26042 105.61 1.27843 144.623C2.61087 144.623 9.72325 144.623 18.1771 144.623C55.1134 144.623 92.0528 144.617 128.995 144.605C165.962 144.623 202.925 144.641 239.885 144.659C276.852 144.641 313.815 144.62 350.775 144.596C371.248 144.596 382.853 144.668 389.344 144.776C395.835 144.884 397.213 145.046 397.213 145.218C397.213 145.389 395.835 145.533 389.344 145.632C382.853 145.731 371.239 145.785 350.775 145.785C313.875 145.827 276.975 145.866 240.074 145.902C203.162 145.86 166.247 145.815 129.328 145.767L18.5822 145.74C11.6409 145.74 5.54586 145.74 0.144048 145.74C0.09003 107.204 0.0810271 101.241 0 52.3003C0.027009 26.6186 0.0360131 12.6923 0.0450161 0.0450838C15.6202 0.0630998 29.5119 0.0721144 59.861 0.108146C96.7674 0.108146 133.674 0.111103 170.58 0.117108C207.516 0.117108 244.456 0.11114 281.398 0.0991295C318.359 0.0630976 355.322 0.0300266 392.288 0C395.088 0 397.762 0 397.888 0C397.906 50.9851 397.906 53.3542 397.915 106.699C397.915 127.184 397.825 136.795 397.69 141.29C397.555 145.785 397.384 145.163 397.204 145.163C397.024 145.163 396.853 145.785 396.727 141.29C396.601 136.795 396.511 127.175 396.511 106.699L396.52 106.726Z" fill="black"/>
<path d="M173.011 205.356C178.743 205.374 184.478 205.389 190.216 205.401C195.953 205.413 201.691 205.419 207.429 205.419C213.167 205.419 218.905 205.404 224.643 205.374C231.972 205.365 233.214 205.365 239.3 205.356C239.3 205.635 239.3 206.986 239.3 208.616C239.264 217.21 239.264 217.246 239.228 225.849C239.228 228.092 239.228 229.785 239.228 230.335C234.204 230.335 232.584 230.344 225.94 230.353C220.196 230.353 214.455 230.353 208.717 230.353C202.973 230.341 197.229 230.332 191.485 230.326C185.741 230.338 179.997 230.347 174.253 230.353C172.345 230.353 170.931 230.344 169.887 230.317C169.383 230.299 168.959 230.29 168.59 230.281C168.212 230.263 167.879 230.245 167.564 230.227C167.582 230.037 167.591 229.866 167.609 229.686C167.627 229.596 167.636 229.524 167.654 229.47C167.681 229.362 167.717 229.326 167.753 229.326C167.789 229.326 167.816 229.362 167.852 229.47C167.87 229.524 167.879 229.596 167.897 229.686C167.906 229.749 167.924 229.803 167.933 229.866C167.996 229.866 168.059 229.848 168.122 229.839C168.266 229.839 168.428 229.821 168.59 229.821C168.959 229.812 169.383 229.803 169.887 229.785C170.949 229.785 172.354 229.767 174.253 229.758C182.842 229.731 182.869 229.731 191.458 229.695C200.047 229.731 200.083 229.731 208.672 229.758C214.41 229.758 220.148 229.761 225.886 229.767C232.611 229.731 233.961 229.722 238.625 229.704C238.625 228.695 238.625 227.443 238.625 225.885C238.643 220.15 238.661 214.405 238.679 208.652C238.679 207.31 238.679 206.202 238.679 205.968C232.899 205.968 231.701 205.968 224.715 205.968C218.971 205.968 213.23 205.968 207.492 205.968C201.754 205.986 196.011 206.004 190.261 206.022C184.517 206.022 178.77 206.028 173.02 206.04C171.516 206.031 170.391 206.022 169.518 206.013C169.113 206.004 168.761 205.986 168.455 205.977C168.329 205.977 168.212 205.959 168.095 205.959L168.005 205.941C168.005 205.941 167.933 206.31 167.888 206.355C167.843 206.427 167.798 206.4 167.753 206.4C167.708 206.4 167.663 206.427 167.618 206.355C167.573 206.238 167.537 206.229 167.501 205.446C167.789 205.437 168.095 205.419 168.455 205.401C168.761 205.392 169.113 205.383 169.518 205.374C170.391 205.374 171.507 205.356 173.02 205.346L173.011 205.356Z" fill="white"/>
<path d="M161.919 235.487C169.416 235.505 176.915 235.52 184.418 235.532C191.92 235.544 199.423 235.55 206.925 235.55C214.428 235.55 221.93 235.535 229.433 235.505C237.59 235.505 239.705 235.496 245.746 235.487C245.746 234.776 245.746 232.74 245.746 229.992C245.782 218.741 245.782 218.714 245.818 207.463C245.818 203.833 245.818 201.428 245.818 200.212C240.939 200.212 238.481 200.212 231.134 200.23C223.626 200.23 216.117 200.23 208.609 200.23C201.1 200.218 193.589 200.209 186.074 200.203C178.566 200.215 171.054 200.224 163.54 200.23C162.549 200.23 161.676 200.23 160.902 200.23C160.884 201.509 160.875 202.518 160.866 203.329C160.848 204.202 160.821 204.842 160.803 205.301C160.749 206.22 160.677 206.427 160.605 206.427C160.533 206.427 160.461 206.22 160.416 205.301C160.389 204.842 160.371 204.211 160.353 203.329C160.353 202.365 160.335 201.167 160.317 199.644C161.253 199.644 162.324 199.644 163.54 199.644C171.03 199.626 178.53 199.605 186.038 199.581C193.535 199.605 201.037 199.626 208.546 199.644C216.048 199.644 223.551 199.647 231.053 199.653C239.201 199.626 241.578 199.617 246.421 199.599C246.421 201.563 246.421 203.977 246.439 207.391C246.421 214.898 246.403 222.408 246.385 229.92C246.385 233.019 246.385 235.307 246.385 236.127C240.173 236.127 237.95 236.127 229.514 236.127C222.005 236.127 214.497 236.127 206.988 236.127C199.48 236.145 191.968 236.163 184.454 236.181C176.939 236.181 169.428 236.187 161.919 236.199C161.325 236.199 160.767 236.199 160.245 236.199C160.245 235.199 160.254 234.334 160.263 233.577C160.272 232.929 160.281 232.379 160.29 231.902C160.308 230.965 160.335 230.371 160.371 229.992C160.434 229.236 160.515 229.353 160.605 229.353C160.695 229.353 160.767 229.236 160.83 229.992C160.866 230.371 160.893 230.965 160.911 231.902C160.92 232.776 160.929 233.929 160.947 235.505C161.244 235.505 161.577 235.505 161.928 235.505L161.919 235.487Z" fill="white"/>
<path d="M156.544 210.157C156.517 219.183 156.517 219.984 156.499 227.893C156.85 227.893 157.544 227.893 158.3 227.893C165.01 227.893 171.723 227.899 178.44 227.911C185.156 227.923 191.869 227.908 198.579 227.866C205.29 227.824 212.003 227.818 218.719 227.848C226.615 227.884 228.217 227.893 233.664 227.911C233.664 226.686 233.664 225.173 233.664 223.281C233.655 215.571 233.655 213.877 233.646 207.86C233.196 207.86 231.584 207.86 229.523 207.86C222.806 207.86 216.09 207.86 209.374 207.86C202.652 207.848 195.929 207.839 189.207 207.833C182.485 207.845 175.763 207.854 169.04 207.86C161.595 207.86 160.596 207.725 160.596 207.553C160.596 207.382 161.595 207.265 169.04 207.265C175.745 207.247 182.455 207.226 189.171 207.202C199.228 207.238 199.255 207.238 209.311 207.265C216.021 207.265 222.734 207.268 229.451 207.274C231.368 207.274 232.944 207.274 234.222 207.274C234.249 213.274 234.258 214.805 234.285 223.2C234.285 225.443 234.285 227.209 234.285 228.515C228.64 228.497 226.93 228.488 218.791 228.47C212.081 228.47 205.371 228.47 198.66 228.47C191.944 228.47 185.228 228.47 178.512 228.47C171.795 228.488 165.073 228.506 158.345 228.524C157.111 228.524 156.004 228.524 155.869 228.524C155.869 220.309 155.869 219.336 155.851 210.148C155.851 209.013 155.851 208.04 155.86 207.211C156.58 207.211 157.202 207.229 157.751 207.229C158.183 207.238 158.552 207.247 158.885 207.256C159.515 207.274 159.92 207.31 160.173 207.337C160.677 207.4 160.596 207.472 160.596 207.553C160.596 207.635 160.677 207.707 160.173 207.761C159.92 207.788 159.515 207.815 158.885 207.842C158.291 207.851 157.544 207.869 156.535 207.887C156.535 208.526 156.535 209.274 156.544 210.148V210.157Z" fill="white"/>
<path d="M199.696 226.749C199.696 225.777 199.741 225.777 199.741 224.795C199.741 223.813 199.759 223.813 199.759 222.84C199.759 221.867 199.714 221.858 199.714 220.885C199.714 219.912 199.696 219.903 199.696 218.931C199.696 217.958 199.768 217.949 199.768 216.976C199.768 216.003 199.741 215.994 199.741 215.021C199.741 214.048 199.741 214.039 199.741 213.066C199.741 212.093 199.768 212.084 199.768 211.112C199.768 210.139 199.741 210.13 199.741 209.157C199.741 208.436 199.876 208.337 200.047 208.337C200.218 208.337 200.335 208.436 200.335 209.157C200.335 210.13 200.398 210.13 200.398 211.112C200.398 212.093 200.335 212.093 200.335 213.066C200.335 214.039 200.326 214.048 200.326 215.021C200.326 215.994 200.398 216.003 200.398 216.976C200.398 217.949 200.344 217.958 200.344 218.931C200.344 219.903 200.344 219.903 200.344 220.885C200.344 221.867 200.344 221.867 200.344 222.84C200.344 223.813 200.398 223.822 200.398 224.795C200.398 225.768 200.416 225.777 200.416 226.749C200.416 227.47 200.236 227.425 200.065 227.425C199.894 227.425 199.723 227.47 199.723 226.749H199.696Z" fill="white"/>
<path d="M162.792 211.958C162.792 211.769 162.837 211.769 162.837 211.571C162.837 211.373 162.855 211.382 162.855 211.184C162.855 210.985 162.81 210.995 162.81 210.796C162.81 210.598 162.792 210.607 162.792 210.409C162.792 210.211 162.865 210.22 162.865 210.022C162.865 209.823 162.837 209.832 162.837 209.634C162.837 209.436 162.837 209.445 162.837 209.247C162.837 209.049 162.865 209.058 162.865 208.86C162.865 208.661 162.837 208.67 162.837 208.472C162.837 208.328 162.973 208.31 163.144 208.31C163.315 208.31 163.432 208.328 163.432 208.472C163.432 208.661 163.495 208.661 163.495 208.86C163.495 209.058 163.432 209.049 163.432 209.247C163.432 209.445 163.423 209.436 163.423 209.634C163.423 209.832 163.495 209.823 163.495 210.022C163.495 210.22 163.441 210.211 163.441 210.409C163.441 210.607 163.441 210.598 163.441 210.796C163.441 210.995 163.441 210.985 163.441 211.184C163.441 211.382 163.495 211.373 163.495 211.571C163.495 211.769 163.513 211.76 163.513 211.958C163.513 212.103 163.333 212.093 163.162 212.093C162.991 212.093 162.819 212.094 162.819 211.958H162.792Z" fill="white"/>
<path d="M162.792 226.921C162.792 226.191 162.837 226.191 162.837 225.461C162.837 224.732 162.855 224.732 162.855 224.002C162.855 223.272 162.81 223.272 162.81 222.543C162.81 221.813 162.792 221.813 162.792 221.083C162.792 220.354 162.865 220.354 162.865 219.624C162.865 218.894 162.837 218.894 162.837 218.165C162.837 217.435 162.837 217.435 162.837 216.706C162.837 215.976 162.865 215.976 162.865 215.246C162.865 214.517 162.837 214.517 162.837 213.787C162.837 213.246 162.973 213.174 163.144 213.174C163.315 213.174 163.432 213.246 163.432 213.787C163.432 214.517 163.495 214.517 163.495 215.246C163.495 215.976 163.432 215.976 163.432 216.706C163.432 217.435 163.423 217.435 163.423 218.165C163.423 218.894 163.495 218.894 163.495 219.624C163.495 220.354 163.441 220.354 163.441 221.083C163.441 221.813 163.441 221.813 163.441 222.543C163.441 223.272 163.441 223.272 163.441 224.002C163.441 224.732 163.495 224.732 163.495 225.461C163.495 226.191 163.513 226.191 163.513 226.921C163.513 227.461 163.333 227.425 163.162 227.425C162.991 227.425 162.819 227.461 162.819 226.921H162.792Z" fill="white"/>
<path d="M135.396 219.453C135.27 220.084 135.135 220.381 134.991 220.669C134.838 220.948 134.694 221.237 134.298 221.741C134.199 221.867 134.109 221.966 134.019 222.056C133.866 222.218 133.731 222.336 133.605 222.453L133.515 222.534L133.47 222.57C133.47 222.57 133.443 222.543 133.434 222.534C133.389 222.471 133.344 222.408 133.299 222.354C133.218 222.236 133.136 222.119 133.055 222.011C132.875 221.759 132.704 221.507 132.353 221.011C131.651 220.039 131.615 220.066 130.922 219.084C130.22 218.12 130.21 218.111 129.508 217.147C128.806 216.174 128.869 216.129 128.176 215.156C128.068 215.003 127.969 214.868 127.879 214.742C127.816 214.661 127.762 214.58 127.708 214.499C127.663 214.427 127.555 214.336 127.681 214.309C127.825 214.228 127.951 214.156 128.077 214.084C128.176 214.03 128.275 213.985 128.374 213.94C128.662 213.814 128.959 213.679 129.589 213.571C130.219 213.472 130.544 213.517 130.859 213.526C131.174 213.562 131.498 213.589 132.101 213.805C132.704 214.021 132.965 214.219 133.227 214.4C133.479 214.598 133.74 214.778 134.163 215.255C134.568 215.742 134.73 216.021 134.883 216.3C135.027 216.579 135.18 216.868 135.324 217.498C135.414 217.967 135.396 218.237 135.342 218.381C135.297 218.534 135.216 218.561 135.126 218.561C134.928 218.561 134.883 218.435 134.739 217.624C134.613 217.075 134.469 216.823 134.334 216.579C134.199 216.336 134.046 216.102 133.686 215.67C133.317 215.246 133.091 215.084 132.875 214.904C132.65 214.742 132.425 214.562 131.894 214.364C131.363 214.174 131.075 214.147 130.796 214.102C130.517 214.093 130.228 214.039 129.67 214.129C129.112 214.228 128.851 214.355 128.599 214.481L128.509 214.535C128.509 214.535 128.509 214.535 128.491 214.553C128.491 214.553 128.491 214.562 128.491 214.571L128.509 214.589C128.518 214.607 128.491 214.562 128.536 214.625C128.572 214.679 128.617 214.733 128.662 214.796C129.364 215.769 129.319 215.805 130.012 216.778C130.475 217.426 130.937 218.078 131.399 218.732C131.861 219.387 132.329 220.036 132.803 220.678C133.145 221.165 133.344 221.417 133.515 221.624C133.533 221.624 133.542 221.651 133.551 221.624V221.606C133.623 221.534 133.704 221.435 133.794 221.327C134.145 220.885 134.262 220.633 134.379 220.381C134.487 220.129 134.595 219.867 134.703 219.318C134.811 218.507 134.937 218.552 135.126 218.552C135.279 218.552 135.522 218.489 135.396 219.444V219.453Z" fill="white"/>
<path d="M125.367 217.669C125.493 217.039 125.628 216.742 125.772 216.453C125.925 216.174 126.069 215.886 126.465 215.381C126.564 215.255 126.654 215.156 126.744 215.066C126.897 214.904 127.032 214.787 127.158 214.67L127.248 214.589L127.293 214.553C127.293 214.553 127.32 214.58 127.329 214.589C127.374 214.652 127.42 214.715 127.465 214.769C127.546 214.886 127.627 215.003 127.708 215.111C127.888 215.363 128.059 215.616 128.41 216.111C129.112 217.084 129.148 217.057 129.841 218.039C130.544 219.003 130.553 219.012 131.255 219.975C131.957 220.948 131.894 220.993 132.587 221.966C132.695 222.119 132.794 222.254 132.884 222.381C132.947 222.462 133.001 222.543 133.055 222.624C133.1 222.696 133.208 222.786 133.082 222.813C132.938 222.894 132.812 222.966 132.686 223.038C132.587 223.092 132.488 223.137 132.389 223.182C132.101 223.308 131.804 223.444 131.174 223.552C130.544 223.651 130.219 223.606 129.904 223.597C129.589 223.561 129.265 223.534 128.662 223.317C128.059 223.101 127.798 222.903 127.537 222.723C127.284 222.525 127.023 222.345 126.6 221.867C126.195 221.381 126.033 221.101 125.88 220.822C125.736 220.543 125.583 220.255 125.439 219.624C125.349 219.156 125.367 218.886 125.421 218.741C125.466 218.588 125.547 218.561 125.637 218.561C125.835 218.561 125.88 218.687 126.024 219.498C126.15 220.048 126.294 220.3 126.429 220.543C126.564 220.786 126.717 221.02 127.077 221.453C127.447 221.876 127.672 222.038 127.888 222.218C128.113 222.381 128.338 222.561 128.869 222.759C129.4 222.948 129.688 222.975 129.967 223.02C130.246 223.029 130.535 223.083 131.093 222.993C131.651 222.894 131.912 222.768 132.164 222.642L132.254 222.588C132.254 222.588 132.254 222.588 132.272 222.57C132.272 222.57 132.272 222.561 132.272 222.552L132.254 222.534C132.245 222.516 132.272 222.561 132.227 222.498C132.191 222.444 132.146 222.39 132.101 222.327C131.399 221.354 131.444 221.318 130.751 220.345C130.288 219.696 129.826 219.045 129.364 218.39C128.902 217.735 128.434 217.087 127.96 216.444C127.618 215.958 127.42 215.706 127.248 215.499C127.23 215.499 127.221 215.472 127.212 215.499V215.517C127.14 215.589 127.059 215.688 126.969 215.796C126.618 216.237 126.501 216.489 126.384 216.742C126.276 216.994 126.168 217.255 126.06 217.805C125.952 218.615 125.826 218.57 125.637 218.57C125.484 218.57 125.241 218.633 125.367 217.678V217.669Z" fill="white"/>
<path d="M127.798 214.174C127.906 214.111 128.005 214.003 128.095 213.985C128.158 214.075 128.221 214.165 128.284 214.255C128.374 214.391 128.464 214.508 128.545 214.625C128.635 214.76 128.707 214.868 128.779 214.985C128.923 215.21 129.067 215.426 129.373 215.859C129.976 216.724 129.985 216.733 130.598 217.597C131.21 218.462 131.255 218.435 131.867 219.291C132.488 220.138 132.497 220.156 133.118 221.002C133.442 221.453 133.506 221.579 133.848 222.083C133.857 222.128 133.965 222.191 133.893 222.227L133.731 222.336C133.614 222.417 133.505 222.489 133.388 222.57C133.298 222.633 133.208 222.696 133.109 222.759C133.037 222.813 132.956 222.867 132.866 222.93C132.785 222.975 132.677 223.119 132.623 222.957C131.939 222.02 131.921 222.002 131.237 221.065C130.823 220.495 130.408 219.921 129.994 219.345C129.4 218.489 129.373 218.453 128.779 217.597C128.167 216.76 128.131 216.724 127.518 215.886C127.059 215.246 127.113 215.084 127.257 214.985C127.401 214.886 127.555 214.904 128.005 215.544C128.617 216.408 128.671 216.372 129.283 217.237C129.895 218.102 129.841 218.138 130.462 219.003C131.075 219.867 131.075 219.867 131.687 220.732C131.993 221.165 132.164 221.372 132.335 221.57C132.425 221.678 132.515 221.786 132.605 221.903C132.668 221.984 132.74 222.074 132.821 222.191C132.821 222.191 132.821 222.191 132.839 222.191C132.902 222.155 132.947 222.119 133.001 222.083C133.019 222.074 133.046 222.083 133.055 222.065C133.118 222.128 132.902 221.795 132.605 221.39C132.197 220.813 131.789 220.237 131.381 219.66C130.973 219.084 130.559 218.51 130.138 217.94C129.517 217.075 129.481 217.102 128.86 216.246C128.392 215.607 128.392 215.598 127.924 214.958C127.969 214.931 127.771 215.057 127.699 215.084C127.609 215.129 127.536 215.138 127.482 215.138C127.374 215.138 127.32 215.066 127.266 214.994C127.212 214.922 127.14 214.868 127.176 214.769C127.194 214.715 127.23 214.652 127.311 214.571C127.41 214.472 127.446 214.436 127.807 214.183L127.798 214.174Z" fill="white"/>
<path d="M268.407 213.544C269.037 213.67 269.334 213.805 269.622 213.949C269.91 214.093 270.19 214.246 270.694 214.643C271.189 215.048 271.378 215.309 271.567 215.562C271.738 215.823 271.936 216.084 272.179 216.67C272.287 216.967 272.368 217.192 272.413 217.39C272.44 217.507 272.458 217.534 272.485 217.696C272.512 217.841 272.53 217.976 272.557 218.111L272.593 218.318C272.593 218.318 272.62 218.399 272.593 218.417H272.485C272.332 218.417 272.17 218.417 271.999 218.426C271.783 218.426 271.54 218.426 271.207 218.426C270.018 218.435 270 218.435 268.812 218.444C267.615 218.444 267.615 218.372 266.408 218.372C265.22 218.381 265.202 218.381 264.013 218.399C263.248 218.399 262.861 218.399 262.474 218.399C262.447 218.192 262.528 217.859 262.564 217.561C262.609 217.363 262.654 217.129 262.771 216.832C262.996 216.237 263.176 215.958 263.365 215.706C263.545 215.444 263.752 215.192 264.221 214.769C264.698 214.354 264.995 214.21 265.265 214.048C265.553 213.913 265.832 213.751 266.462 213.616C266.93 213.517 267.201 213.544 267.345 213.598C267.498 213.643 267.525 213.724 267.525 213.814C267.525 214.012 267.399 214.048 266.588 214.201C266.039 214.318 265.787 214.472 265.544 214.598C265.31 214.751 265.058 214.877 264.635 215.246C264.229 215.625 264.04 215.832 263.869 216.057C263.698 216.273 263.527 216.516 263.329 217.039C263.23 217.3 263.185 217.516 263.14 217.678C263.122 217.768 263.122 217.777 263.113 217.832C263.338 217.832 263.563 217.832 264.004 217.832C265.202 217.832 265.202 217.76 266.399 217.76C267.597 217.76 267.597 217.814 268.803 217.814C269.601 217.814 270.4 217.814 271.198 217.814C271.477 217.814 271.675 217.814 271.846 217.814C271.882 217.814 271.927 217.823 271.909 217.768C271.909 217.795 271.846 217.381 271.657 216.877C271.441 216.354 271.252 216.138 271.09 215.913C270.91 215.697 270.73 215.48 270.298 215.12C269.856 214.778 269.604 214.652 269.352 214.544C269.1 214.427 268.839 214.327 268.29 214.219C267.48 214.111 267.525 213.985 267.525 213.796C267.525 213.634 267.462 213.409 268.416 213.526L268.407 213.544Z" fill="white"/>
<path d="M266.624 223.579C265.994 223.453 265.697 223.317 265.409 223.173C265.121 223.029 264.842 222.876 264.337 222.48C263.842 222.074 263.653 221.813 263.464 221.561C263.293 221.3 263.095 221.038 262.852 220.453C262.744 220.156 262.663 219.93 262.618 219.732C262.591 219.615 262.573 219.588 262.546 219.426C262.519 219.282 262.501 219.147 262.474 219.012L262.438 218.804C262.438 218.804 262.411 218.723 262.438 218.705H262.546C262.699 218.705 262.861 218.705 263.032 218.696C263.248 218.696 263.491 218.696 263.824 218.696C265.013 218.687 265.031 218.687 266.219 218.678C267.416 218.678 267.416 218.75 268.623 218.75C269.811 218.741 269.829 218.741 271.018 218.723C271.783 218.723 272.17 218.723 272.557 218.723C272.584 218.93 272.503 219.264 272.467 219.561C272.422 219.759 272.377 219.993 272.26 220.291C272.035 220.885 271.855 221.165 271.666 221.417C271.486 221.678 271.279 221.93 270.811 222.354C270.333 222.768 270.036 222.912 269.766 223.074C269.478 223.209 269.199 223.371 268.569 223.507C268.101 223.606 267.831 223.579 267.687 223.525C267.534 223.48 267.506 223.398 267.506 223.308C267.506 223.11 267.633 223.074 268.443 222.921C268.992 222.804 269.244 222.651 269.487 222.525C269.721 222.372 269.973 222.245 270.396 221.876C270.802 221.498 270.991 221.291 271.162 221.065C271.333 220.849 271.504 220.606 271.702 220.084C271.801 219.822 271.846 219.606 271.891 219.444C271.909 219.354 271.909 219.345 271.918 219.291C271.693 219.291 271.468 219.291 271.027 219.291C269.829 219.291 269.829 219.363 268.632 219.363C267.434 219.363 267.434 219.309 266.228 219.309C265.43 219.309 264.632 219.309 263.833 219.309C263.554 219.309 263.356 219.309 263.185 219.309C263.149 219.309 263.104 219.3 263.122 219.354C263.122 219.327 263.185 219.741 263.374 220.246C263.59 220.768 263.779 220.984 263.941 221.21C264.121 221.426 264.301 221.642 264.734 222.002C265.175 222.345 265.427 222.471 265.679 222.579C265.931 222.696 266.192 222.795 266.741 222.903C267.551 223.011 267.506 223.137 267.506 223.326C267.506 223.489 267.57 223.714 266.615 223.597L266.624 223.579Z" fill="white"/>
<path d="M272.584 219.012C272.566 219.138 272.584 219.282 272.548 219.363C272.431 219.363 272.323 219.363 272.224 219.363C272.062 219.363 271.927 219.363 271.792 219.363C271.639 219.363 271.495 219.354 271.36 219.345C271.099 219.336 270.829 219.318 270.298 219.318C269.244 219.318 269.235 219.318 268.173 219.3C267.11 219.3 267.11 219.345 266.048 219.345C264.995 219.354 264.977 219.354 263.923 219.363C263.356 219.363 263.248 219.345 262.636 219.327C262.591 219.309 262.474 219.363 262.492 219.282V219.084C262.492 218.949 262.483 218.813 262.483 218.669C262.483 218.561 262.483 218.525 262.501 218.336C262.501 218.237 262.51 218.138 262.519 218.039C262.537 217.949 262.483 217.777 262.654 217.823C263.806 217.814 263.833 217.814 264.986 217.796C265.694 217.796 266.402 217.796 267.11 217.796C268.146 217.814 268.191 217.814 269.235 217.823C270.271 217.805 270.325 217.805 271.36 217.796C272.143 217.796 272.251 217.931 272.251 218.102C272.251 218.273 272.143 218.39 271.36 218.39C270.298 218.39 270.298 218.453 269.244 218.453C268.191 218.453 268.182 218.39 267.119 218.39C266.066 218.39 266.057 218.39 264.995 218.381C264.464 218.381 264.202 218.399 263.932 218.417C263.788 218.417 263.653 218.435 263.5 218.444C263.392 218.444 263.275 218.444 263.122 218.453C263.122 218.453 263.104 218.606 263.122 218.66C263.122 218.696 263.104 218.696 263.122 218.714C263.032 218.732 263.455 218.741 263.95 218.741C264.659 218.741 265.367 218.741 266.075 218.741C266.783 218.741 267.492 218.741 268.2 218.741C269.262 218.741 269.262 218.687 270.325 218.687C271.126 218.687 271.135 218.687 271.936 218.669C271.936 218.669 271.936 218.615 271.945 218.588C271.945 218.534 271.954 218.48 271.963 218.408C271.981 218.309 271.999 218.246 272.035 218.201C272.098 218.111 272.188 218.12 272.269 218.111C272.359 218.111 272.44 218.084 272.512 218.165C272.548 218.21 272.575 218.273 272.602 218.39C272.611 218.444 272.629 218.516 272.629 218.588C272.629 218.642 272.629 218.687 272.629 218.732C272.629 218.822 272.629 218.912 272.62 219.012H272.584Z" fill="white"/>
<path d="M288.871 229.902C288.898 208.283 288.898 205.815 288.916 187.7C287.61 187.7 285.242 187.7 282.568 187.7C266.183 187.7 249.8 187.694 233.421 187.682C217.042 187.67 200.659 187.685 184.274 187.727C167.888 187.769 151.506 187.775 135.126 187.745C121.793 187.727 115.779 187.718 109.008 187.7C109.008 193.195 108.99 199.194 108.981 210.139C108.99 228.407 108.99 232.992 108.999 246.684C110.503 246.684 115.004 246.684 121.018 246.684C137.41 246.684 153.804 246.684 170.202 246.684C186.605 246.696 203.009 246.705 219.412 246.711C235.816 246.699 252.219 246.69 268.623 246.684C277.707 246.684 282.857 246.72 285.737 246.774C288.618 246.828 289.231 246.909 289.231 246.999C289.231 247.089 288.618 247.161 285.737 247.207C282.857 247.261 277.707 247.288 268.623 247.288C252.249 247.306 235.873 247.327 219.493 247.351C203.114 247.327 186.731 247.306 170.346 247.288C153.96 247.288 137.578 247.285 121.198 247.279C115.941 247.279 111.79 247.279 108.432 247.279C108.405 234.019 108.405 229.911 108.369 210.328C108.378 198.915 108.387 192.726 108.396 187.105C115.319 187.105 121.496 187.123 134.982 187.132C151.362 187.132 167.741 187.132 184.12 187.132C200.512 187.132 216.906 187.132 233.304 187.132C249.707 187.114 266.111 187.096 282.514 187.078C286.053 187.078 289.105 187.078 289.591 187.078C289.591 205.563 289.591 208.499 289.609 229.92C289.609 239.009 289.564 243.279 289.501 245.27C289.438 247.27 289.348 246.99 289.258 246.99C289.168 246.99 289.087 247.27 289.015 245.27C288.952 243.27 288.907 239.009 288.907 229.92L288.871 229.902Z" fill="white"/>
<path d="M243.352 250.657L235.879 260.998L222.528 224.056L259.449 237.415L249.104 244.892L262.159 257.944L256.397 263.709L243.352 250.657Z" fill="black"/>
<path d="M223.275 224.813L258.495 237.559L249.275 244.225L248.42 244.846L249.167 245.594L261.529 257.962L256.406 263.088L244.045 250.72L243.297 249.972L242.676 250.828L236.014 260.052L223.275 224.813ZM221.771 223.308L235.735 261.953L243.396 251.341L256.388 264.34L262.78 257.944L249.789 244.946L260.394 237.28L221.771 223.308Z" fill="white"/>
<path d="M49.4265 0.018006C96.1761 0.0480326 142.929 0.0780647 189.684 0.108091C236.44 0.138118 283.214 0.150109 330.005 0.144103C363.578 0.126087 381.224 0.108082 397.834 0.0990745C397.843 18.9888 397.861 36.6354 397.888 73.8563C397.9 120.656 397.912 167.455 397.924 214.255C397.879 253.124 397.861 270.653 397.843 290.372C381.809 290.354 364.271 290.336 332.319 290.309C285.558 290.327 238.796 290.342 192.034 290.354C145.231 290.354 98.4299 290.36 51.6322 290.372C28.1073 290.372 12.3701 290.363 0.0719615 290.354C0.0809645 263.168 0.0899686 247.494 0.116978 200.148C0.0989716 153.289 0.0779631 106.429 0.0539551 59.5697C0.0539551 33.6177 0.12598 18.8987 0.234016 10.6744C0.288034 6.55778 0.360058 4.06258 0.432082 2.60329C0.504106 1.13499 0.585135 0.702621 0.675165 0.702621C0.765195 0.702621 0.846221 1.13499 0.909242 2.60329C0.981266 4.07159 1.04429 6.55778 1.0893 10.6744C1.18834 18.9077 1.24235 33.6177 1.24235 59.5697C1.28437 106.345 1.32338 153.123 1.35939 199.905C1.30537 247.08 1.28737 262.339 1.26036 289.156C13.5855 289.156 28.7646 289.174 51.2001 289.192C97.9737 289.198 144.747 289.207 191.521 289.219C238.295 289.171 285.068 289.123 331.842 289.075C363.659 289.102 380.908 289.111 396.583 289.12C396.601 269.753 396.61 252.466 396.646 214.723C396.646 167.936 396.649 121.151 396.655 74.3698C396.655 37.8245 396.655 20.4391 396.655 1.27912C380.899 1.27912 363.542 1.27912 330.429 1.27912C283.595 1.31515 236.761 1.34819 189.928 1.37822C143.094 1.39023 96.2602 1.39924 49.4265 1.40524C23.4888 1.40524 11.3167 1.31516 5.61782 1.18004C-0.072087 1.04492 0.711175 0.873763 0.711175 0.693604C0.711175 0.513444 -0.0810898 0.342294 5.61782 0.216183C11.3077 0.0900709 23.4888 0 49.4265 0V0.018006Z" fill="white"/>
<path d="M229.288 61.5342C223.557 61.5162 217.822 61.5012 212.084 61.4892C206.346 61.4772 200.608 61.4712 194.87 61.4712C189.132 61.4712 183.394 61.4862 177.656 61.5162C170.679 61.5252 169.499 61.5252 163.702 61.5342C163.702 61.7054 163.702 61.9306 163.702 62.1828C163.702 62.6963 163.702 63.3628 163.702 64.0925C163.666 72.6861 163.666 72.7221 163.63 81.3247C163.63 83.2885 163.63 84.7658 163.63 85.2522C168.437 85.2522 169.995 85.2432 176.351 85.2342C182.095 85.2342 187.836 85.2342 193.574 85.2342C199.317 85.2462 205.061 85.2552 210.805 85.2612C216.549 85.2492 222.293 85.2402 228.037 85.2342C229.946 85.2342 231.359 85.2432 232.404 85.2702C232.908 85.2882 233.331 85.2972 233.7 85.3062C233.871 85.3062 234.024 85.3243 234.168 85.3333C234.231 85.3423 234.294 85.3513 234.348 85.3603C234.366 85.2972 234.375 85.2432 234.393 85.1891C234.411 85.0991 234.42 85.027 234.438 84.973C234.465 84.8649 234.501 84.8289 234.537 84.8289C234.573 84.8289 234.6 84.8649 234.636 84.973C234.654 85.027 234.663 85.0991 234.681 85.1891C234.69 85.3603 234.708 85.5405 234.717 85.7206C234.411 85.7386 234.087 85.7476 233.709 85.7657C233.34 85.7747 232.917 85.7837 232.413 85.8017C231.35 85.8017 229.946 85.8197 228.046 85.8287C219.457 85.8557 219.43 85.8558 210.841 85.8918C202.252 85.8558 202.216 85.8557 193.628 85.8287C187.89 85.8287 182.152 85.8257 176.414 85.8197C169.346 85.8557 167.924 85.8648 163.017 85.8828C163.017 84.6937 163.017 83.2254 163.017 81.4058C163.035 75.6707 163.053 69.9266 163.071 64.1736C163.071 62.5521 163.071 61.2009 163.071 60.9217C169.085 60.9217 170.337 60.9217 177.602 60.9217C183.346 60.9217 189.087 60.9217 194.825 60.9217C200.563 60.9037 206.307 60.8856 212.057 60.8676C217.801 60.8676 223.548 60.8616 229.298 60.8496C230.801 60.8586 231.926 60.8676 232.8 60.8766C233.205 60.8856 233.556 60.9037 233.862 60.9127C234.213 60.9307 234.528 60.9397 234.816 60.9577C234.78 61.7414 234.744 61.7594 234.699 61.8675C234.654 61.9396 234.609 61.9125 234.564 61.9125C234.519 61.9125 234.474 61.9396 234.429 61.8675C234.384 61.8315 234.348 61.4892 234.312 61.4532C234.285 61.4532 234.249 61.4712 234.222 61.4712C234.105 61.4712 233.988 61.4802 233.862 61.4892C233.556 61.4982 233.205 61.5072 232.8 61.5162C231.926 61.5162 230.81 61.5342 229.298 61.5432L229.288 61.5342Z" fill="black"/>
<path d="M240.38 91.6569C232.884 91.6389 225.384 91.6239 217.882 91.6118C210.379 91.5998 202.877 91.5938 195.374 91.5938C187.872 91.5938 180.369 91.6089 172.867 91.6389C164.359 91.6389 162.153 91.6479 155.851 91.6569C155.851 90.8552 155.851 88.5581 155.851 85.4594C155.887 74.2084 155.887 74.1814 155.923 62.9305C155.923 59.021 155.923 56.4177 155.923 55.1025C160.992 55.1025 163.549 55.1025 171.174 55.0845C178.683 55.0845 186.191 55.0845 193.7 55.0845C201.208 55.0965 208.72 55.1056 216.234 55.1116C223.743 55.0995 231.254 55.0905 238.769 55.0845C239.984 55.0845 241.065 55.0845 242.019 55.0845C242.001 56.6069 241.992 57.8139 241.983 58.7958C241.965 59.6696 241.938 60.3092 241.92 60.7686C241.866 61.6874 241.794 61.8946 241.722 61.8946C241.65 61.8946 241.578 61.6874 241.533 60.7686C241.506 60.3092 241.488 59.6786 241.47 58.7958C241.47 57.9761 241.452 56.9582 241.434 55.67C240.659 55.67 239.768 55.67 238.769 55.67C231.278 55.6881 223.779 55.7091 216.27 55.7331C208.774 55.7091 201.271 55.6881 193.763 55.67C186.26 55.67 178.758 55.667 171.255 55.661C163.45 55.6881 161.172 55.6971 156.535 55.7151C156.535 57.5167 156.535 59.7327 156.553 62.8584C156.535 70.3651 156.517 77.8747 156.499 85.3874C156.499 88.2069 156.499 90.2877 156.499 91.0264C162.504 91.0264 164.647 91.0264 172.804 91.0264C180.312 91.0264 187.821 91.0264 195.329 91.0264C202.838 91.0083 210.349 90.9903 217.864 90.9723C225.378 90.9723 232.89 90.9663 240.398 90.9543C240.632 90.9543 240.867 90.9543 241.083 90.9543C241.182 90.9543 241.272 90.9543 241.371 90.9543C241.389 89.3869 241.398 88.2429 241.407 87.3601C241.425 86.4233 241.452 85.8288 241.488 85.4504C241.551 84.6938 241.632 84.8108 241.722 84.8108C241.812 84.8108 241.884 84.6938 241.947 85.4504C241.983 85.8288 242.01 86.4233 242.028 87.3601C242.028 87.8375 242.046 88.387 242.055 89.0356C242.055 89.7922 242.055 90.657 242.064 91.6569C241.551 91.6569 240.993 91.6569 240.398 91.6569H240.38Z" fill="black"/>
<path d="M246.448 65.6329C246.421 74.9651 246.421 75.7939 246.403 83.9731C245.935 83.9731 245.017 83.9731 243.999 83.9731C237.289 83.9731 230.576 83.9671 223.86 83.9551C217.143 83.9431 210.43 83.9581 203.72 84.0001C197.01 84.0421 190.296 84.0482 183.58 84.0181C175.378 83.9821 173.722 83.9731 168.059 83.9551C168.059 82.5768 168.059 80.8744 168.059 78.7485C168.05 70.7404 168.05 68.9748 168.041 62.7323C168.563 62.7323 170.4 62.7323 172.759 62.7323C179.475 62.7323 186.191 62.7323 192.907 62.7323C199.63 62.7443 206.352 62.7533 213.074 62.7593C219.796 62.7473 226.519 62.7383 233.241 62.7323C240.686 62.7323 241.686 62.8674 241.686 63.0386C241.686 63.2097 240.686 63.3268 233.241 63.3268C226.537 63.3448 219.826 63.3659 213.11 63.3899C203.054 63.3538 203.027 63.3538 192.97 63.3268C186.26 63.3268 179.547 63.3238 172.831 63.3178C171.129 63.3178 169.743 63.3178 168.608 63.3178C168.635 69.1099 168.644 70.5963 168.671 78.6944C168.671 80.6492 168.671 82.1985 168.671 83.3425C174.073 83.3605 175.712 83.3695 183.499 83.3876C190.209 83.3876 196.92 83.3876 203.63 83.3876C210.346 83.3876 217.062 83.3876 223.779 83.3876C230.495 83.3695 237.217 83.3515 243.945 83.3335C244.846 83.3335 245.647 83.3335 245.746 83.3335C245.746 75.4245 245.746 74.4787 245.728 65.6329C245.728 64.7591 245.728 64.0114 245.737 63.3809C244.729 63.3628 243.99 63.3448 243.396 63.3358C242.766 63.3178 242.361 63.2818 242.109 63.2548C241.605 63.1917 241.686 63.1196 241.686 63.0386C241.686 62.9575 241.605 62.8854 242.109 62.8314C242.361 62.8044 242.766 62.7773 243.396 62.7503C243.729 62.7503 244.098 62.7323 244.531 62.7233C245.08 62.7233 245.701 62.7143 246.421 62.7053C246.421 63.534 246.421 64.5069 246.43 65.6419L246.448 65.6329Z" fill="black"/>
<path d="M201.91 82.2255C201.91 81.2527 201.955 81.2527 201.955 80.2708C201.955 79.2889 201.973 79.2889 201.973 78.316C201.973 77.3432 201.928 77.3342 201.928 76.3613C201.928 75.3885 201.91 75.3795 201.91 74.4066C201.91 73.4338 201.982 73.4247 201.982 72.4519C201.982 71.479 201.955 71.47 201.955 70.4971C201.955 69.5243 201.955 69.5153 201.955 68.5424C201.955 67.5696 201.982 67.5605 201.982 66.5877C201.982 65.6148 201.955 65.6058 201.955 64.633C201.955 63.9123 202.09 63.8132 202.262 63.8132C202.433 63.8132 202.55 63.9123 202.55 64.633C202.55 65.6058 202.613 65.6058 202.613 66.5877C202.613 67.5695 202.55 67.5696 202.55 68.5424C202.55 69.5153 202.541 69.5243 202.541 70.4971C202.541 71.47 202.613 71.479 202.613 72.4519C202.613 73.4247 202.559 73.4338 202.559 74.4066C202.559 75.3795 202.559 75.3795 202.559 76.3613C202.559 77.3432 202.559 77.3432 202.559 78.316C202.559 79.2889 202.613 79.298 202.613 80.2708C202.613 81.2437 202.631 81.2527 202.631 82.2255C202.631 82.9462 202.451 82.9011 202.28 82.9011C202.108 82.9011 201.937 82.9462 201.937 82.2255H201.91Z" fill="black"/>
<path d="M238.814 67.4345C238.814 67.2453 238.859 67.2453 238.859 67.0471C238.859 66.849 238.877 66.858 238.877 66.6598C238.877 66.4616 238.832 66.4706 238.832 66.2724C238.832 66.0743 238.814 66.0833 238.814 65.8851C238.814 65.6869 238.886 65.6959 238.886 65.4978C238.886 65.2996 238.859 65.3086 238.859 65.1104C238.859 64.9123 238.859 64.9213 238.859 64.7231C238.859 64.5249 238.886 64.5339 238.886 64.3357C238.886 64.1376 238.859 64.1466 238.859 63.9484C238.859 63.8043 238.994 63.7863 239.165 63.7863C239.336 63.7863 239.453 63.8043 239.453 63.9484C239.453 64.1376 239.516 64.1376 239.516 64.3357C239.516 64.5339 239.453 64.5249 239.453 64.7231C239.453 64.9213 239.444 64.9123 239.444 65.1104C239.444 65.3086 239.516 65.2996 239.516 65.4978C239.516 65.6959 239.462 65.6869 239.462 65.8851C239.462 66.0833 239.462 66.0743 239.462 66.2724C239.462 66.4706 239.462 66.4616 239.462 66.6598C239.462 66.858 239.516 66.849 239.516 67.0471C239.516 67.2453 239.534 67.2363 239.534 67.4345C239.534 67.5786 239.354 67.5696 239.183 67.5696C239.012 67.5696 238.841 67.5696 238.841 67.4345H238.814Z" fill="black"/>
<path d="M238.814 82.3967C238.814 81.667 238.859 81.667 238.859 80.9374C238.859 80.2078 238.877 80.2078 238.877 79.4781C238.877 78.7485 238.832 78.7485 238.832 78.0188C238.832 77.2892 238.814 77.2892 238.814 76.5595C238.814 75.8299 238.886 75.8299 238.886 75.1002C238.886 74.3706 238.859 74.3706 238.859 73.6409C238.859 72.9113 238.859 72.9113 238.859 72.1816C238.859 71.452 238.886 71.452 238.886 70.7223C238.886 69.9927 238.859 69.9927 238.859 69.263C238.859 68.7226 238.994 68.6505 239.165 68.6505C239.336 68.6505 239.453 68.7226 239.453 69.263C239.453 69.9927 239.516 69.9927 239.516 70.7223C239.516 71.452 239.453 71.452 239.453 72.1816C239.453 72.9113 239.444 72.9113 239.444 73.6409C239.444 74.3706 239.516 74.3706 239.516 75.1002C239.516 75.8299 239.462 75.8299 239.462 76.5595C239.462 77.2892 239.462 77.2892 239.462 78.0188C239.462 78.7485 239.462 78.7485 239.462 79.4781C239.462 80.2078 239.516 80.2078 239.516 80.9374C239.516 81.667 239.534 81.667 239.534 82.3967C239.534 82.9372 239.354 82.9011 239.183 82.9011C239.012 82.9011 238.841 82.9372 238.841 82.3967H238.814Z" fill="black"/>
<path d="M135.396 74.9291C135.27 75.5596 135.135 75.8569 134.991 76.1452C134.838 76.4244 134.694 76.7127 134.298 77.2171C134.199 77.3432 134.109 77.4423 134.019 77.5324C133.866 77.6945 133.731 77.8116 133.605 77.9287L133.515 78.0098L133.47 78.0458C133.47 78.0458 133.443 78.0188 133.434 78.0098C133.389 77.9468 133.344 77.8837 133.299 77.8296C133.218 77.7125 133.136 77.5954 133.055 77.4873C132.875 77.2351 132.704 76.9829 132.353 76.4875C131.651 75.5146 131.615 75.5416 130.922 74.5598C130.22 73.5959 130.21 73.5869 129.508 72.623C128.806 71.6502 128.869 71.6051 128.176 70.6323C128.068 70.4792 127.969 70.344 127.879 70.2179C127.816 70.1368 127.762 70.0558 127.708 69.9747C127.663 69.9026 127.555 69.8126 127.681 69.7855C127.825 69.7045 127.951 69.6324 128.077 69.5603C128.176 69.5063 128.275 69.4612 128.374 69.4162C128.662 69.2901 128.959 69.155 129.589 69.0469C130.219 68.9478 130.544 68.9928 130.859 69.0018C131.174 69.0379 131.498 69.0649 132.101 69.2811C132.704 69.4973 132.965 69.6954 133.227 69.8756C133.479 70.0738 133.74 70.2539 134.163 70.7314C134.568 71.2178 134.73 71.497 134.883 71.7763C135.027 72.0555 135.18 72.3438 135.324 72.9743C135.414 73.4428 135.396 73.713 135.342 73.8571C135.297 74.0103 135.216 74.0373 135.126 74.0373C134.928 74.0373 134.883 73.9112 134.739 73.1005C134.613 72.551 134.469 72.2988 134.334 72.0555C134.199 71.8123 134.046 71.5781 133.686 71.1457C133.317 70.7223 133.091 70.5602 132.875 70.3801C132.65 70.2179 132.425 70.0378 131.894 69.8396C131.363 69.6504 131.075 69.6234 130.796 69.5783C130.517 69.5693 130.228 69.5153 129.67 69.6054C129.112 69.7045 128.851 69.8306 128.599 69.9567L128.509 70.0107C128.509 70.0107 128.509 70.0107 128.491 70.0287C128.491 70.0287 128.491 70.0377 128.491 70.0467L128.509 70.0648C128.518 70.0828 128.491 70.0377 128.536 70.1008C128.572 70.1548 128.617 70.2089 128.662 70.2719C129.364 71.2448 129.319 71.2809 130.012 72.2537C130.475 72.9023 130.937 73.5539 131.399 74.2085C131.861 74.863 132.329 75.5116 132.803 76.1542C133.145 76.6406 133.344 76.8928 133.515 77.1C133.533 77.1 133.542 77.127 133.551 77.1V77.082C133.623 77.0099 133.704 76.9108 133.794 76.8027C134.145 76.3613 134.262 76.1091 134.379 75.8569C134.487 75.6047 134.595 75.3435 134.703 74.794C134.811 73.9832 134.937 74.0283 135.126 74.0283C135.279 74.0283 135.522 73.9652 135.396 74.9201V74.9291Z" fill="black"/>
<path d="M125.367 73.1455C125.493 72.5149 125.628 72.2177 125.772 71.9294C125.925 71.6502 126.069 71.3619 126.465 70.8575C126.564 70.7314 126.654 70.6323 126.744 70.5422C126.897 70.3801 127.032 70.263 127.158 70.1459L127.248 70.0648L127.293 70.0287C127.293 70.0287 127.32 70.0558 127.329 70.0648C127.374 70.1278 127.42 70.1909 127.465 70.2449C127.546 70.362 127.627 70.4791 127.708 70.5872C127.888 70.8395 128.059 71.0917 128.41 71.5871C129.112 72.56 129.148 72.533 129.841 73.5148C130.544 74.4787 130.553 74.4877 131.255 75.4515C131.957 76.4244 131.894 76.4695 132.587 77.4423C132.695 77.5955 132.794 77.7305 132.884 77.8566C132.947 77.9377 133.001 78.0188 133.055 78.0999C133.1 78.1719 133.208 78.262 133.082 78.2891C132.938 78.3701 132.812 78.4422 132.686 78.5143C132.587 78.5683 132.488 78.6133 132.389 78.6584C132.101 78.7845 131.804 78.9196 131.174 79.0277C130.544 79.1268 130.219 79.0818 129.904 79.0728C129.589 79.0367 129.265 79.0097 128.662 78.7935C128.059 78.5773 127.798 78.3791 127.537 78.199C127.284 78.0008 127.023 77.8207 126.6 77.3432C126.195 76.8568 126.033 76.5775 125.88 76.2983C125.736 76.019 125.583 75.7308 125.439 75.1002C125.349 74.6318 125.367 74.3616 125.421 74.2174C125.466 74.0643 125.547 74.0373 125.637 74.0373C125.835 74.0373 125.88 74.1634 126.024 74.9741C126.15 75.5236 126.294 75.7758 126.429 76.019C126.564 76.2623 126.717 76.4965 127.077 76.9289C127.447 77.3522 127.672 77.5144 127.888 77.6945C128.113 77.8567 128.338 78.0368 128.869 78.235C129.4 78.4242 129.688 78.4512 129.967 78.4962C130.246 78.5052 130.535 78.5593 131.093 78.4692C131.651 78.3702 131.912 78.244 132.164 78.1179L132.254 78.0729C132.254 78.0729 132.254 78.0729 132.272 78.0549C132.272 78.0549 132.272 78.0458 132.272 78.0368L132.254 78.0188C132.245 78.0008 132.272 78.0458 132.227 77.9828C132.191 77.9287 132.146 77.8747 132.101 77.8116C131.399 76.8388 131.444 76.8027 130.751 75.8299C130.288 75.1813 129.826 74.5297 129.364 73.8751C128.902 73.2206 128.434 72.572 127.96 71.9294C127.618 71.443 127.42 71.1908 127.248 70.9836C127.23 70.9836 127.221 70.9566 127.212 70.9836V71.0016C127.14 71.0737 127.059 71.1728 126.969 71.2809C126.618 71.7223 126.501 71.9745 126.384 72.2267C126.276 72.4789 126.168 72.7401 126.06 73.2896C125.952 74.1003 125.826 74.0553 125.637 74.0553C125.484 74.0553 125.241 74.1184 125.367 73.1635V73.1455Z" fill="black"/>
<path d="M127.798 69.6504C127.906 69.5873 128.005 69.4793 128.095 69.4612C128.158 69.5513 128.221 69.6414 128.284 69.7315C128.374 69.8666 128.464 69.9837 128.545 70.1008C128.635 70.2359 128.707 70.344 128.779 70.4611C128.923 70.6863 129.067 70.9025 129.373 71.3349C129.976 72.1997 129.985 72.2087 130.598 73.0734C131.21 73.9382 131.255 73.9112 131.867 74.767C132.488 75.6137 132.497 75.6317 133.118 76.4785C133.442 76.9289 133.506 77.055 133.848 77.5594C133.857 77.6045 133.965 77.6675 133.893 77.7035L133.731 77.8116C133.614 77.8927 133.505 77.9648 133.388 78.0458C133.298 78.1089 133.208 78.172 133.109 78.235C133.037 78.2891 132.956 78.3431 132.866 78.4062C132.785 78.4512 132.677 78.5953 132.623 78.4332C131.939 77.4963 131.921 77.4784 131.237 76.5415C130.823 75.971 130.408 75.3975 129.994 74.821C129.4 73.9652 129.373 73.9292 128.779 73.0734C128.167 72.2357 128.131 72.1997 127.518 71.3619C127.059 70.7224 127.113 70.5602 127.257 70.4611C127.401 70.3621 127.555 70.3801 128.005 71.0196C128.617 71.8844 128.671 71.8484 129.283 72.7131C129.895 73.5779 129.841 73.6139 130.462 74.4787C131.075 75.3435 131.075 75.3435 131.687 76.2082C131.993 76.6406 132.164 76.8478 132.335 77.046C132.425 77.1541 132.515 77.2622 132.605 77.3793C132.668 77.4603 132.74 77.5504 132.821 77.6675C132.821 77.6675 132.821 77.6675 132.839 77.6675C132.902 77.6315 132.947 77.5955 133.001 77.5594C133.019 77.5504 133.046 77.5594 133.055 77.5414C133.118 77.6045 132.902 77.2712 132.605 76.8658C132.197 76.2893 131.789 75.7128 131.381 75.1363C130.973 74.5598 130.559 73.9863 130.138 73.4158C129.517 72.551 129.481 72.578 128.86 71.7223C128.392 71.0827 128.392 71.0737 127.924 70.4341C127.969 70.4071 127.771 70.5332 127.699 70.5602C127.609 70.6053 127.536 70.6143 127.482 70.6143C127.374 70.6143 127.32 70.5422 127.266 70.4701C127.212 70.3981 127.14 70.344 127.176 70.2449C127.194 70.1909 127.23 70.1278 127.311 70.0468C127.41 69.9477 127.446 69.9116 127.807 69.6594L127.798 69.6504Z" fill="black"/>
<path d="M268.407 69.0199C269.037 69.146 269.334 69.2811 269.622 69.4252C269.91 69.5694 270.19 69.7225 270.694 70.1189C271.189 70.5242 271.378 70.7854 271.567 71.0377C271.738 71.2989 271.936 71.5601 272.179 72.1457C272.287 72.4429 272.368 72.6681 272.413 72.8663C272.44 72.9834 272.458 73.0104 272.485 73.1726C272.512 73.3167 272.53 73.4518 272.557 73.5869L272.593 73.7941C272.593 73.7941 272.62 73.8752 272.593 73.8932H272.485C272.332 73.8932 272.17 73.8932 271.999 73.9022C271.783 73.9022 271.54 73.9022 271.207 73.9022C270.018 73.9112 270 73.9112 268.812 73.9202C267.615 73.9202 267.615 73.8482 266.408 73.8482C265.22 73.8572 265.202 73.8572 264.013 73.8752C263.248 73.8752 262.861 73.8752 262.474 73.8752C262.447 73.668 262.528 73.3347 262.564 73.0374C262.609 72.8393 262.654 72.6051 262.771 72.3078C262.996 71.7133 263.176 71.434 263.365 71.1818C263.545 70.9206 263.752 70.6683 264.221 70.245C264.698 69.8306 264.995 69.6865 265.265 69.5243C265.553 69.3892 265.832 69.2271 266.462 69.0919C266.93 68.9929 267.201 69.0199 267.345 69.0739C267.498 69.119 267.525 69.2 267.525 69.2901C267.525 69.4883 267.399 69.5244 266.588 69.6775C266.039 69.7946 265.787 69.9477 265.544 70.0738C265.31 70.2269 265.058 70.3531 264.635 70.7224C264.229 71.1007 264.04 71.3079 263.869 71.5331C263.698 71.7493 263.527 71.9925 263.329 72.515C263.23 72.7762 263.185 72.9924 263.14 73.1545C263.122 73.2446 263.122 73.2536 263.113 73.3077C263.338 73.3077 263.563 73.3077 264.004 73.3077C265.202 73.3077 265.202 73.2356 266.399 73.2356C267.597 73.2356 267.597 73.2897 268.803 73.2897C269.601 73.2897 270.4 73.2897 271.198 73.2897C271.477 73.2897 271.675 73.2897 271.846 73.2897C271.882 73.2897 271.927 73.2987 271.909 73.2446C271.909 73.2717 271.846 72.8573 271.657 72.3528C271.441 71.8304 271.252 71.6142 271.09 71.389C270.91 71.1728 270.73 70.9566 270.298 70.5963C269.856 70.254 269.604 70.1279 269.352 70.0198C269.1 69.9027 268.839 69.8036 268.29 69.6955C267.48 69.5874 267.525 69.4613 267.525 69.2721C267.525 69.11 267.462 68.8848 268.416 69.0019L268.407 69.0199Z" fill="black"/>
<path d="M266.624 79.0548C265.994 78.9286 265.697 78.7935 265.409 78.6494C265.121 78.5053 264.842 78.3522 264.337 77.9558C263.842 77.5505 263.653 77.2892 263.464 77.037C263.293 76.7757 263.095 76.5145 262.852 75.929C262.744 75.6317 262.663 75.4065 262.618 75.2084C262.591 75.0913 262.573 75.0642 262.546 74.9021C262.519 74.758 262.501 74.6229 262.474 74.4877L262.438 74.2805C262.438 74.2805 262.411 74.1995 262.438 74.1815H262.546C262.699 74.1815 262.861 74.1815 263.032 74.1725C263.248 74.1725 263.491 74.1725 263.824 74.1725C265.013 74.1634 265.031 74.1634 266.219 74.1544C267.416 74.1544 267.416 74.2265 268.623 74.2265C269.811 74.2175 269.829 74.2175 271.018 74.1995C271.783 74.1995 272.17 74.1995 272.557 74.1995C272.584 74.4067 272.503 74.7399 272.467 75.0372C272.422 75.2354 272.377 75.4696 272.26 75.7669C272.035 76.3614 271.855 76.6406 271.666 76.8929C271.486 77.1541 271.279 77.4063 270.811 77.8297C270.333 78.2441 270.036 78.3882 269.766 78.5503C269.478 78.6854 269.199 78.8476 268.569 78.9827C268.101 79.0818 267.831 79.0548 267.687 79.0007C267.534 78.9557 267.506 78.8746 267.506 78.7845C267.506 78.5864 267.633 78.5503 268.443 78.3972C268.992 78.2801 269.244 78.127 269.487 78.0008C269.721 77.8477 269.973 77.7216 270.396 77.3522C270.802 76.9739 270.991 76.7668 271.162 76.5416C271.333 76.3254 271.504 76.0822 271.702 75.5597C271.801 75.2985 271.846 75.0822 271.891 74.9201C271.909 74.83 271.909 74.821 271.918 74.767C271.693 74.767 271.468 74.767 271.027 74.767C269.829 74.767 269.829 74.839 268.632 74.839C267.434 74.839 267.434 74.785 266.228 74.785C265.43 74.785 264.632 74.785 263.833 74.785C263.554 74.785 263.356 74.785 263.185 74.785C263.149 74.785 263.104 74.776 263.122 74.83C263.122 74.803 263.185 75.2174 263.374 75.7218C263.59 76.2443 263.779 76.4605 263.941 76.6857C264.121 76.9019 264.301 77.118 264.734 77.4784C265.175 77.8207 265.427 77.9468 265.679 78.0549C265.931 78.172 266.192 78.2711 266.741 78.3792C267.551 78.4873 267.506 78.6134 267.506 78.8026C267.506 78.9647 267.57 79.1899 266.615 79.0728L266.624 79.0548Z" fill="black"/>
<path d="M272.584 74.4877C272.566 74.6139 272.584 74.758 272.548 74.839C272.431 74.839 272.323 74.839 272.224 74.839C272.062 74.839 271.927 74.839 271.792 74.839C271.639 74.839 271.495 74.83 271.36 74.821C271.099 74.812 270.829 74.794 270.298 74.794C269.244 74.794 269.235 74.794 268.173 74.776C267.11 74.776 267.11 74.821 266.048 74.821C264.995 74.83 264.977 74.83 263.923 74.839C263.356 74.839 263.248 74.821 262.636 74.803C262.591 74.785 262.474 74.839 262.492 74.758V74.5598C262.492 74.4247 262.483 74.2896 262.483 74.1454C262.483 74.0373 262.483 74.0013 262.501 73.8122C262.501 73.7131 262.51 73.614 262.519 73.5149C262.537 73.4248 262.483 73.2537 262.654 73.2987C263.806 73.2897 263.833 73.2897 264.986 73.2717C265.694 73.2717 266.402 73.2717 267.11 73.2717C268.146 73.2897 268.191 73.2897 269.235 73.2987C270.271 73.2807 270.325 73.2807 271.36 73.2717C272.143 73.2717 272.251 73.4068 272.251 73.5779C272.251 73.7491 272.143 73.8662 271.36 73.8662C270.298 73.8662 270.298 73.9292 269.244 73.9292C268.191 73.9292 268.182 73.8662 267.119 73.8662C266.066 73.8662 266.057 73.8662 264.995 73.8572C264.464 73.8572 264.202 73.8752 263.932 73.8932C263.788 73.8932 263.653 73.9112 263.5 73.9202C263.392 73.9202 263.275 73.9202 263.122 73.9292C263.122 73.9292 263.104 74.0824 263.122 74.1364C263.122 74.1725 263.104 74.1725 263.122 74.1905C263.032 74.2085 263.455 74.2175 263.95 74.2175C264.659 74.2175 265.367 74.2175 266.075 74.2175C266.783 74.2175 267.492 74.2175 268.2 74.2175C269.262 74.2175 269.262 74.1634 270.325 74.1634C271.126 74.1634 271.135 74.1635 271.936 74.1454C271.936 74.1454 271.936 74.0914 271.945 74.0644C271.945 74.0103 271.954 73.9563 271.963 73.8842C271.981 73.7851 271.999 73.722 272.035 73.677C272.098 73.5869 272.188 73.596 272.269 73.587C272.359 73.587 272.44 73.5599 272.512 73.641C272.548 73.686 272.575 73.7491 272.602 73.8662C272.611 73.9202 272.629 73.9923 272.629 74.0644C272.629 74.1184 272.629 74.1635 272.629 74.2085C272.629 74.2986 272.629 74.3887 272.62 74.4877H272.584Z" fill="black"/>
<path d="M288.871 85.3783C288.898 63.7592 288.898 61.291 288.916 43.176C287.61 43.176 285.242 43.176 282.568 43.176C266.183 43.176 249.8 43.17 233.421 43.158C217.042 43.146 200.659 43.161 184.274 43.203C167.888 43.2451 151.506 43.2511 135.126 43.221C121.793 43.203 115.779 43.194 109.008 43.176C109.008 48.6709 108.99 54.6702 108.981 65.6149C108.99 83.883 108.99 88.4681 108.999 102.16C110.503 102.16 115.004 102.16 121.018 102.16C137.41 102.16 153.804 102.16 170.202 102.16C186.605 102.172 203.009 102.181 219.412 102.187C235.816 102.175 252.219 102.166 268.623 102.16C277.707 102.16 282.857 102.196 285.737 102.25C288.618 102.304 289.231 102.385 289.231 102.475C289.231 102.566 288.618 102.638 285.737 102.683C282.857 102.737 277.707 102.764 268.623 102.764C252.249 102.782 235.873 102.803 219.493 102.827C203.114 102.803 186.731 102.782 170.346 102.764C153.96 102.764 137.578 102.761 121.198 102.755C115.941 102.755 111.79 102.755 108.432 102.755C108.405 89.495 108.405 85.3873 108.369 65.804C108.378 54.3909 108.387 48.2024 108.396 42.5815C115.319 42.5815 121.496 42.5995 134.982 42.6085C151.362 42.6085 167.741 42.6085 184.12 42.6085C200.512 42.6085 216.906 42.6085 233.304 42.6085C249.707 42.5905 266.111 42.5725 282.514 42.5544C286.053 42.5544 289.105 42.5544 289.591 42.5544C289.591 61.0388 289.591 63.9754 289.609 85.3964C289.609 94.4854 289.564 98.7552 289.501 100.746C289.438 102.737 289.348 102.466 289.258 102.466C289.168 102.466 289.087 102.746 289.015 100.746C288.943 98.7462 288.907 94.4854 288.907 85.3964L288.871 85.3783Z" fill="black"/>
<path d="M243.352 106.133L235.879 116.483L222.528 79.5322L259.449 92.891L249.104 100.368L262.159 113.429L256.397 119.185L243.352 106.133Z" fill="white"/>
<path d="M223.275 80.2889L258.495 93.0352L249.275 99.701L248.42 100.323L249.167 101.07L261.529 113.438L256.406 118.564L244.045 106.196L243.297 105.448L242.676 106.304L236.014 115.528L223.275 80.2889ZM221.771 78.7845L235.735 117.429L243.396 106.817L256.388 119.816L262.78 113.42L249.789 100.422L260.394 92.7559L221.771 78.7845Z" fill="black"/>
</svg>
