<svg width="182" height="61" viewBox="0 0 182 61" fill="none" xmlns="http://www.w3.org/2000/svg">
<path d="M64.6507 18.9708C70.3826 18.9528 76.1175 18.9378 81.8555 18.9258C87.5934 18.9138 93.3313 18.9077 99.0692 18.9077C104.807 18.9077 110.545 18.9228 116.283 18.9528C123.26 18.9618 124.44 18.9618 130.238 18.9708C130.238 19.142 130.238 19.3672 130.238 19.6194C130.238 20.1329 130.238 20.7995 130.238 21.5291C130.274 30.1227 130.274 30.1587 130.31 38.7614C130.31 40.7251 130.31 42.2024 130.31 42.6888C125.502 42.6888 123.945 42.6798 117.588 42.6708C111.844 42.6708 106.104 42.6708 100.366 42.6708C94.6217 42.6828 88.8778 42.6918 83.1339 42.6978C77.39 42.6858 71.6461 42.6768 65.9021 42.6708C63.9935 42.6708 62.58 42.6798 61.5357 42.7068C61.0315 42.7249 60.6083 42.7339 60.2392 42.7429C60.0682 42.7429 59.9151 42.7608 59.7711 42.7699C59.7081 42.7789 59.645 42.7879 59.591 42.7969C59.573 42.7338 59.564 42.6798 59.546 42.6257C59.528 42.5357 59.519 42.4636 59.501 42.4096C59.474 42.3015 59.438 42.2654 59.4019 42.2654C59.3659 42.2654 59.3389 42.3015 59.3029 42.4096C59.2849 42.4636 59.2759 42.5357 59.2579 42.6257C59.2489 42.7969 59.2309 42.9771 59.2219 43.1572C59.528 43.1753 59.8521 43.1843 60.2303 43.2023C60.5994 43.2113 61.0225 43.2203 61.5267 43.2383C62.5891 43.2383 63.9935 43.2563 65.8931 43.2653C74.482 43.2924 74.509 43.2924 83.0979 43.3284C91.6867 43.2924 91.7228 43.2924 100.312 43.2653C106.05 43.2653 111.787 43.2623 117.525 43.2563C124.593 43.2924 126.015 43.3014 130.922 43.3194C130.922 42.1303 130.922 40.662 130.922 38.8424C130.904 33.1073 130.886 27.3632 130.868 21.6101C130.868 19.9887 130.868 18.6375 130.868 18.3583C124.854 18.3583 123.602 18.3583 116.337 18.3583C110.593 18.3583 104.852 18.3583 99.1143 18.3583C93.3764 18.3403 87.6324 18.3222 81.8825 18.3042C76.1386 18.3042 70.3916 18.2982 64.6417 18.2862C63.1382 18.2952 62.0128 18.3042 61.1395 18.3132C60.7344 18.3223 60.3833 18.3402 60.0772 18.3493C59.7261 18.3673 59.4109 18.3763 59.1228 18.3943C59.1589 19.178 59.1949 19.196 59.2399 19.3041C59.2849 19.3762 59.3299 19.3491 59.375 19.3491C59.42 19.3491 59.465 19.3762 59.51 19.3041C59.555 19.2681 59.591 18.9258 59.627 18.8898C59.654 18.8898 59.6901 18.9077 59.7171 18.9077C59.8341 18.9077 59.9511 18.9168 60.0772 18.9258C60.3833 18.9348 60.7344 18.9438 61.1395 18.9528C62.0128 18.9528 63.1292 18.9708 64.6417 18.9798L64.6507 18.9708Z" fill="white"/>
<path d="M53.5588 49.1025C61.0553 49.0845 68.5548 49.0695 76.0574 49.0575C83.5599 49.0455 91.0624 49.0394 98.5649 49.0394C106.067 49.0394 113.57 49.0544 121.072 49.0845C129.58 49.0845 131.786 49.0935 138.088 49.1025C138.088 48.3008 138.088 46.0037 138.088 42.905C138.052 31.654 138.052 31.627 138.016 20.3761C138.016 16.4666 138.016 13.8633 138.016 12.5481C132.947 12.5481 130.391 12.5482 122.765 12.5302C115.256 12.5302 107.748 12.5302 100.239 12.5302C92.731 12.5422 85.2194 12.5511 77.7049 12.5571C70.1964 12.5451 62.6849 12.5362 55.1704 12.5302C53.955 12.5302 52.8746 12.5302 51.9203 12.5302C51.9383 14.0525 51.9473 15.2596 51.9563 16.2414C51.9743 17.1152 52.0014 17.7548 52.0194 18.2142C52.0734 19.133 52.1454 19.3402 52.2174 19.3402C52.2894 19.3402 52.3615 19.133 52.4065 18.2142C52.4335 17.7548 52.4515 17.1242 52.4695 16.2414C52.4695 15.4217 52.4875 14.4038 52.5055 13.1156C53.2798 13.1156 54.1711 13.1156 55.1704 13.1156C62.6609 13.1337 70.1604 13.1547 77.6689 13.1787C85.1654 13.1547 92.6679 13.1337 100.176 13.1156C107.679 13.1156 115.181 13.1126 122.684 13.1066C130.49 13.1336 132.767 13.1426 137.404 13.1607C137.404 14.9623 137.404 17.1783 137.386 20.304C137.404 27.8107 137.422 35.3203 137.44 42.8329C137.44 45.6524 137.44 47.7333 137.44 48.4719C131.435 48.4719 129.292 48.4719 121.135 48.4719C113.627 48.4719 106.118 48.4719 98.6099 48.4719C91.1014 48.4539 83.5899 48.4359 76.0754 48.4179C68.5609 48.4179 61.0494 48.4119 53.5409 48.3998C53.3068 48.3998 53.0727 48.3998 52.8566 48.3998C52.7576 48.3998 52.6676 48.3998 52.5685 48.3998C52.5505 46.8325 52.5415 45.6885 52.5325 44.8057C52.5145 43.8688 52.4875 43.2743 52.4515 42.896C52.3885 42.1393 52.3074 42.2565 52.2174 42.2565C52.1274 42.2565 52.0553 42.1393 51.9923 42.896C51.9563 43.2743 51.9293 43.8688 51.9113 44.8057C51.9113 45.2831 51.8933 45.8326 51.8843 46.4812C51.8843 47.2379 51.8843 48.1026 51.8753 49.1025C52.3885 49.1025 52.9467 49.1025 53.5409 49.1025H53.5588Z" fill="white"/>
<path d="M47.4819 23.0784C47.5089 32.4107 47.5089 33.2394 47.5269 41.4186C47.9951 41.4186 48.9134 41.4186 49.9307 41.4186C56.641 41.4186 63.3542 41.4127 70.0705 41.4006C76.7867 41.3886 83.5 41.4036 90.2102 41.4457C96.9205 41.4877 103.634 41.4937 110.35 41.4637C118.552 41.4277 120.208 41.4187 125.871 41.4006C125.871 40.0224 125.871 38.3199 125.871 36.194C125.88 28.1859 125.88 26.4204 125.889 20.1779C125.367 20.1779 123.53 20.1779 121.172 20.1779C114.455 20.1779 107.739 20.1779 101.023 20.1779C94.3006 20.1899 87.5783 20.1989 80.8561 20.2049C74.1338 20.1929 67.4116 20.1839 60.6893 20.1779C53.2438 20.1779 52.2445 20.313 52.2445 20.4841C52.2445 20.6553 53.2438 20.7724 60.6893 20.7724C67.3935 20.7904 74.1038 20.8114 80.8201 20.8354C90.8764 20.7994 90.9035 20.7994 100.96 20.7724C107.67 20.7724 114.383 20.7694 121.1 20.7634C122.801 20.7634 124.188 20.7634 125.322 20.7634C125.295 26.5555 125.286 28.0418 125.259 36.14C125.259 38.0947 125.259 39.6441 125.259 40.7881C119.857 40.8061 118.219 40.8151 110.431 40.8331C103.721 40.8331 97.0105 40.8331 90.3002 40.8331C83.584 40.8331 76.8677 40.8331 70.1515 40.8331C63.4352 40.8151 56.713 40.7971 49.9848 40.7791C49.0845 40.7791 48.2832 40.7791 48.1842 40.7791C48.1842 32.8701 48.1841 31.9242 48.2021 23.0784C48.2021 22.2046 48.2022 21.457 48.1932 20.8264C49.2015 20.8084 49.9397 20.7904 50.5339 20.7814C51.1641 20.7634 51.5693 20.7273 51.8214 20.7003C52.3255 20.6372 52.2445 20.5652 52.2445 20.4841C52.2445 20.403 52.3255 20.331 51.8214 20.2769C51.5693 20.2499 51.1641 20.2229 50.5339 20.1958C50.2008 20.1958 49.8317 20.1779 49.3995 20.1689C48.8504 20.1689 48.2292 20.1598 47.5089 20.1508C47.5089 20.9796 47.5089 21.9524 47.4999 23.0874L47.4819 23.0784Z" fill="white"/>
<path d="M92.0198 39.6711C92.0198 38.6983 91.9747 38.6982 91.9747 37.7164C91.9747 36.7345 91.9567 36.7345 91.9567 35.7617C91.9567 34.7888 92.0018 34.7798 92.0018 33.8069C92.0018 32.8341 92.0198 32.825 92.0198 31.8522C92.0198 30.8793 91.9477 30.8703 91.9477 29.8975C91.9477 28.9246 91.9747 28.9156 91.9747 27.9427C91.9747 26.9699 91.9747 26.9609 91.9747 25.988C91.9747 25.0152 91.9477 25.0061 91.9477 24.0333C91.9477 23.0604 91.9747 23.0514 91.9747 22.0786C91.9747 21.3579 91.8397 21.2589 91.6686 21.2589C91.4976 21.2589 91.3805 21.3579 91.3805 22.0786C91.3805 23.0514 91.3175 23.0514 91.3175 24.0333C91.3175 25.0151 91.3805 25.0152 91.3805 25.988C91.3805 26.9609 91.3896 26.9699 91.3896 27.9427C91.3896 28.9156 91.3175 28.9246 91.3175 29.8975C91.3175 30.8703 91.3715 30.8793 91.3715 31.8522C91.3715 32.825 91.3715 32.8251 91.3715 33.8069C91.3715 34.7888 91.3715 34.7888 91.3715 35.7617C91.3715 36.7345 91.3175 36.7435 91.3175 37.7164C91.3175 38.6892 91.2995 38.6983 91.2995 39.6711C91.2995 40.3918 91.4796 40.3467 91.6506 40.3467C91.8217 40.3467 91.9927 40.3918 91.9927 39.6711H92.0198Z" fill="white"/>
<path d="M55.1255 24.871C55.1255 24.6818 55.0805 24.6818 55.0805 24.4837C55.0805 24.2855 55.0625 24.2945 55.0625 24.0963C55.0625 23.8981 55.1075 23.9072 55.1075 23.709C55.1075 23.5108 55.1255 23.5198 55.1255 23.3217C55.1255 23.1235 55.0535 23.1325 55.0535 22.9343C55.0535 22.7361 55.0805 22.7452 55.0805 22.547C55.0805 22.3488 55.0805 22.3578 55.0805 22.1596C55.0805 21.9615 55.0535 21.9704 55.0535 21.7723C55.0535 21.5741 55.0805 21.5831 55.0805 21.3849C55.0805 21.2408 54.9455 21.2228 54.7744 21.2228C54.6034 21.2228 54.4863 21.2408 54.4863 21.3849C54.4863 21.5741 54.4233 21.5741 54.4233 21.7723C54.4233 21.9704 54.4863 21.9615 54.4863 22.1596C54.4863 22.3578 54.4953 22.3488 54.4953 22.547C54.4953 22.7452 54.4233 22.7361 54.4233 22.9343C54.4233 23.1325 54.4773 23.1235 54.4773 23.3217C54.4773 23.5198 54.4773 23.5108 54.4773 23.709C54.4773 23.9072 54.4773 23.8981 54.4773 24.0963C54.4773 24.2945 54.4233 24.2855 54.4233 24.4837C54.4233 24.6818 54.4053 24.6728 54.4053 24.871C54.4053 25.0151 54.5853 25.0061 54.7564 25.0061C54.9274 25.0061 55.0985 25.0061 55.0985 24.871H55.1255Z" fill="white"/>
<path d="M55.1255 39.8422C55.1255 39.1126 55.0805 39.1126 55.0805 38.383C55.0805 37.6533 55.0625 37.6533 55.0625 36.9237C55.0625 36.194 55.1075 36.194 55.1075 35.4644C55.1075 34.7347 55.1255 34.7347 55.1255 34.0051C55.1255 33.2755 55.0535 33.2755 55.0535 32.5458C55.0535 31.8162 55.0805 31.8162 55.0805 31.0865C55.0805 30.3569 55.0805 30.3569 55.0805 29.6272C55.0805 28.8976 55.0535 28.8976 55.0535 28.168C55.0535 27.4383 55.0805 27.4383 55.0805 26.7087C55.0805 26.1682 54.9455 26.0961 54.7744 26.0961C54.6034 26.0961 54.4863 26.1682 54.4863 26.7087C54.4863 27.4383 54.4233 27.4383 54.4233 28.168C54.4233 28.8976 54.4863 28.8976 54.4863 29.6272C54.4863 30.3569 54.4953 30.3569 54.4953 31.0865C54.4953 31.8162 54.4233 31.8162 54.4233 32.5458C54.4233 33.2755 54.4773 33.2755 54.4773 34.0051C54.4773 34.7347 54.4773 34.7347 54.4773 35.4644C54.4773 36.194 54.4773 36.194 54.4773 36.9237C54.4773 37.6533 54.4233 37.6533 54.4233 38.383C54.4233 39.1126 54.4053 39.1126 54.4053 39.8422C54.4053 40.3827 54.5853 40.3467 54.7564 40.3467C54.9274 40.3467 55.0985 40.3827 55.0985 39.8422H55.1255Z" fill="white"/>
<path d="M27.0361 32.3656C26.91 32.9962 26.775 33.2935 26.631 33.5817C26.4779 33.861 26.3339 34.1493 25.9377 34.6537C25.8387 34.7798 25.7487 34.8789 25.6587 34.969C25.5056 35.1311 25.3705 35.2482 25.2445 35.3653L25.1545 35.4464L25.1095 35.4824C25.1095 35.4824 25.0824 35.4554 25.0734 35.4464C25.0284 35.3833 24.9834 35.3203 24.9384 35.2662C24.8574 35.1491 24.7764 35.032 24.6953 34.9239C24.5153 34.6717 24.3442 34.4195 23.9931 33.9241C23.2908 32.9512 23.2548 32.9782 22.5616 31.9963C21.8594 31.0325 21.8504 31.0235 21.1481 30.0596C20.4459 29.0867 20.5089 29.0417 19.8157 28.0689C19.7077 27.9157 19.6086 27.7806 19.5186 27.6545C19.4556 27.5734 19.4016 27.4923 19.3475 27.4113C19.3025 27.3392 19.1945 27.2491 19.3206 27.2221C19.4646 27.141 19.5906 27.069 19.7166 26.9969C19.8157 26.9429 19.9147 26.8978 20.0137 26.8528C20.3018 26.7267 20.599 26.5916 21.2292 26.4835C21.8594 26.3844 22.1835 26.4294 22.4986 26.4384C22.8137 26.4745 23.1378 26.5015 23.741 26.7177C24.3442 26.9339 24.6053 27.132 24.8664 27.3122C25.1185 27.5104 25.3795 27.6905 25.8027 28.1679C26.2078 28.6544 26.3699 28.9336 26.523 29.2128C26.667 29.4921 26.8201 29.7804 26.9641 30.4109C27.0541 30.8793 27.0361 31.1496 26.9821 31.2937C26.9371 31.4468 26.856 31.4739 26.766 31.4739C26.5679 31.4739 26.5229 31.3478 26.3789 30.537C26.2528 29.9876 26.1088 29.7353 25.9737 29.4921C25.8387 29.2489 25.6857 29.0147 25.3255 28.5823C24.9564 28.1589 24.7313 27.9968 24.5153 27.8166C24.2902 27.6545 24.0651 27.4743 23.534 27.2762C23.0028 27.087 22.7147 27.0599 22.4356 27.0149C22.1565 27.0059 21.8684 26.9519 21.3102 27.042C20.752 27.141 20.4909 27.2672 20.2388 27.3933L20.1488 27.4473C20.1488 27.4473 20.1488 27.4473 20.1308 27.4653C20.1308 27.4653 20.1308 27.4743 20.1308 27.4833L20.1488 27.5014C20.1578 27.5194 20.1308 27.4743 20.1758 27.5374C20.2118 27.5914 20.2568 27.6455 20.3019 27.7085C21.0041 28.6814 20.9591 28.7174 21.6523 29.6903C22.1145 30.3389 22.5766 30.9904 23.0387 31.645C23.5009 32.2996 23.9691 32.9482 24.4432 33.5908C24.7853 34.0772 24.9834 34.3294 25.1545 34.5366C25.1725 34.5366 25.1815 34.5636 25.1905 34.5366V34.5186C25.2625 34.4465 25.3435 34.3474 25.4336 34.2393C25.7847 33.7979 25.9017 33.5457 26.0187 33.2935C26.1268 33.0413 26.2349 32.78 26.3429 32.2306C26.4509 31.4198 26.5769 31.4648 26.766 31.4648C26.9191 31.4648 27.1621 31.4018 27.0361 32.3566V32.3656Z" fill="white"/>
<path d="M17.0067 30.5911C17.1328 29.9605 17.2678 29.6632 17.4118 29.375C17.5649 29.0957 17.7089 28.8075 18.1051 28.303C18.2041 28.1769 18.2941 28.0778 18.3841 27.9878C18.5372 27.8256 18.6723 27.7085 18.7983 27.5914L18.8883 27.5104L18.9333 27.4743C18.9333 27.4743 18.9604 27.5014 18.9694 27.5104C19.0144 27.5734 19.0594 27.6364 19.1044 27.6905C19.1854 27.8076 19.2664 27.9247 19.3475 28.0328C19.5275 28.285 19.6986 28.5372 20.0497 29.0327C20.752 30.0055 20.788 29.9785 21.4812 30.9604C22.1834 31.9242 22.1924 31.9333 22.8947 32.8971C23.5969 33.87 23.5339 33.915 24.2271 34.8878C24.3351 35.041 24.4342 35.1761 24.5242 35.3022C24.5872 35.3833 24.6412 35.4644 24.6953 35.5455C24.7403 35.6175 24.8483 35.7076 24.7223 35.7346C24.5783 35.8157 24.4522 35.8877 24.3262 35.9598C24.2271 36.0138 24.1281 36.0589 24.0291 36.104C23.741 36.2301 23.4438 36.3652 22.8136 36.4733C22.1834 36.5723 21.8593 36.5274 21.5442 36.5183C21.2291 36.4823 20.905 36.4552 20.3018 36.239C19.6986 36.0229 19.4375 35.8247 19.1764 35.6445C18.9243 35.4464 18.6633 35.2662 18.2401 34.7888C17.835 34.3023 17.6729 34.0231 17.5199 33.7439C17.3758 33.4646 17.2227 33.1764 17.0787 32.5458C16.9887 32.0774 17.0067 31.8072 17.0607 31.663C17.1057 31.5099 17.1868 31.4829 17.2768 31.4829C17.4749 31.4829 17.5199 31.609 17.6639 32.4197C17.79 32.9692 17.934 33.2214 18.0691 33.4646C18.2041 33.7078 18.3571 33.9421 18.7173 34.3744C19.0864 34.7978 19.3115 34.9599 19.5275 35.1401C19.7526 35.3022 19.9777 35.4824 20.5088 35.6806C21.04 35.8697 21.3281 35.8968 21.6072 35.9418C21.8863 35.9508 22.1744 36.0048 22.7326 35.9148C23.2908 35.8157 23.5519 35.6896 23.804 35.5634L23.894 35.5094C23.894 35.5094 23.894 35.5094 23.912 35.4914C23.912 35.4914 23.912 35.4824 23.912 35.4734L23.894 35.4554C23.885 35.4373 23.912 35.4824 23.867 35.4193C23.831 35.3653 23.786 35.3112 23.7409 35.2482C23.0387 34.2753 23.0837 34.2393 22.3905 33.2664C21.9283 32.6178 21.4662 31.9663 21.0041 31.3117C20.5419 30.6571 20.0737 30.0086 19.5996 29.366C19.2575 28.8796 19.0594 28.6273 18.8883 28.4201C18.8703 28.4201 18.8613 28.3931 18.8523 28.4201V28.4382C18.7803 28.5102 18.6993 28.6093 18.6092 28.7174C18.2581 29.1588 18.1411 29.411 18.0241 29.6632C17.916 29.9155 17.8079 30.1767 17.6999 30.7262C17.5919 31.5369 17.4659 31.4919 17.2768 31.4919C17.1237 31.4919 16.8807 31.5549 17.0067 30.6001V30.5911Z" fill="white"/>
<path d="M19.4375 27.096C19.5455 27.0329 19.6445 26.9248 19.7346 26.9068C19.7976 26.9969 19.8606 27.0869 19.9237 27.177C20.0137 27.3121 20.1037 27.4293 20.1847 27.5464C20.2748 27.6815 20.3468 27.7896 20.4188 27.9067C20.5629 28.1319 20.7069 28.3481 21.013 28.7805C21.6162 29.6452 21.6252 29.6542 22.2374 30.519C22.8496 31.3838 22.8946 31.3568 23.5068 32.2125C24.128 33.0593 24.1371 33.0773 24.7583 33.924C25.0824 34.3744 25.1454 34.5005 25.4875 35.005C25.4965 35.05 25.6045 35.1131 25.5325 35.1491L25.3705 35.2572C25.2534 35.3383 25.1454 35.4104 25.0284 35.4914C24.9383 35.5545 24.8483 35.6175 24.7493 35.6806C24.6772 35.7346 24.5962 35.7887 24.5062 35.8517C24.4251 35.8967 24.3171 36.0409 24.2631 35.8788C23.5789 34.9419 23.5608 34.9239 22.8766 33.9871C22.4625 33.4165 22.0483 32.8431 21.6342 32.2666C21.04 31.4108 21.013 31.3748 20.4188 30.519C19.8066 29.6813 19.7706 29.6452 19.1584 28.8075C18.6992 28.1679 18.7533 28.0058 18.8973 27.9067C19.0413 27.8076 19.1944 27.8256 19.6446 28.4652C20.2568 29.33 20.3108 29.2939 20.923 30.1587C21.5442 31.0234 21.4812 31.0595 22.1024 31.9242C22.7146 32.789 22.7146 32.789 23.3268 33.6538C23.6329 34.0861 23.804 34.2934 23.975 34.4916C24.065 34.5996 24.1551 34.7077 24.2451 34.8248C24.3081 34.9059 24.3801 34.9959 24.4612 35.113C24.4612 35.113 24.4612 35.113 24.4792 35.113C24.5422 35.077 24.5872 35.041 24.6412 35.005C24.6592 34.9959 24.6862 35.005 24.6952 34.987C24.7583 35.05 24.5422 34.7167 24.2451 34.3114C23.837 33.7349 23.4288 33.1583 23.0207 32.5818C22.6126 32.0053 22.1984 31.4318 21.7783 30.8613C21.1571 29.9965 21.1211 30.0236 20.4999 29.1678C20.0317 28.5282 20.0317 28.5192 19.5635 27.8797C19.6085 27.8527 19.4105 27.9788 19.3384 28.0058C19.2484 28.0508 19.1764 28.0598 19.1224 28.0598C19.0143 28.0598 18.9603 27.9878 18.9063 27.9157C18.8523 27.8436 18.7802 27.7896 18.8162 27.6905C18.8343 27.6364 18.8703 27.5734 18.9513 27.4923C19.0504 27.3933 19.0864 27.3572 19.4465 27.105L19.4375 27.096Z" fill="white"/>
<path d="M160.038 26.4655C160.668 26.5916 160.965 26.7267 161.253 26.8708C161.541 27.015 161.82 27.1681 162.325 27.5645C162.82 27.9698 163.009 28.231 163.198 28.4832C163.369 28.7445 163.567 29.0057 163.81 29.5913C163.918 29.8885 163.999 30.1137 164.044 30.3119C164.071 30.429 164.089 30.456 164.116 30.6181C164.143 30.7623 164.161 30.8974 164.188 31.0325L164.224 31.2397C164.224 31.2397 164.251 31.3208 164.224 31.3388H164.116C163.963 31.3388 163.801 31.3388 163.63 31.3478C163.414 31.3478 163.171 31.3478 162.838 31.3478C161.649 31.3568 161.631 31.3568 160.443 31.3658C159.246 31.3658 159.245 31.2937 158.039 31.2937C156.851 31.3027 156.833 31.3028 155.644 31.3208C154.879 31.3208 154.492 31.3208 154.105 31.3208C154.078 31.1136 154.159 30.7803 154.195 30.483C154.24 30.2849 154.285 30.0507 154.402 29.7534C154.627 29.1589 154.807 28.8796 154.996 28.6274C155.176 28.3662 155.383 28.1139 155.851 27.6905C156.329 27.2762 156.626 27.1321 156.896 26.9699C157.184 26.8348 157.463 26.6727 158.093 26.5376C158.561 26.4385 158.831 26.4655 158.975 26.5195C159.128 26.5646 159.155 26.6456 159.155 26.7357C159.155 26.9339 159.029 26.9699 158.219 27.123C157.67 27.2401 157.418 27.3933 157.175 27.5194C156.941 27.6725 156.689 27.7987 156.266 28.168C155.86 28.5463 155.671 28.7535 155.5 28.9787C155.329 29.1949 155.158 29.4381 154.96 29.9606C154.861 30.2218 154.816 30.438 154.771 30.6002C154.753 30.6902 154.753 30.6992 154.744 30.7533C154.969 30.7533 155.194 30.7533 155.635 30.7533C156.833 30.7533 156.833 30.6812 158.03 30.6812C159.227 30.6812 159.228 30.7352 160.434 30.7352C161.232 30.7352 162.03 30.7352 162.829 30.7352C163.099 30.7352 163.306 30.7352 163.477 30.7352C163.513 30.7352 163.558 30.7443 163.54 30.6902C163.54 30.7172 163.477 30.3029 163.288 29.7984C163.072 29.276 162.883 29.0598 162.721 28.8346C162.541 28.6184 162.361 28.4022 161.928 28.0419C161.487 27.6996 161.235 27.5734 160.983 27.4653C160.731 27.3482 160.47 27.2492 159.921 27.1411C159.11 27.033 159.146 26.9069 159.155 26.7177C159.155 26.5556 159.092 26.3303 160.047 26.4474L160.038 26.4655Z" fill="white"/>
<path d="M158.264 36.4913C157.634 36.3652 157.337 36.2301 157.049 36.086C156.761 35.9418 156.481 35.7887 155.977 35.3924C155.482 34.987 155.293 34.7258 155.104 34.4736C154.933 34.2123 154.735 33.9511 154.492 33.3656C154.384 33.0683 154.303 32.8431 154.258 32.6449C154.231 32.5278 154.213 32.5008 154.186 32.3387C154.159 32.1946 154.141 32.0594 154.114 31.9243L154.078 31.7171C154.078 31.7171 154.051 31.6361 154.078 31.6181H154.186C154.339 31.6181 154.501 31.618 154.672 31.609C154.888 31.609 155.131 31.609 155.464 31.609C156.653 31.6 156.671 31.6 157.859 31.591C159.056 31.591 159.056 31.6631 160.263 31.6631C161.451 31.6541 161.469 31.654 162.658 31.636C163.423 31.636 163.81 31.636 164.197 31.636C164.224 31.8432 164.143 32.1765 164.107 32.4738C164.062 32.6719 164.017 32.9061 163.9 33.2034C163.675 33.7979 163.495 34.0772 163.306 34.3294C163.126 34.5906 162.919 34.8429 162.45 35.2663C161.973 35.6806 161.676 35.8248 161.406 35.9869C161.118 36.122 160.839 36.2841 160.209 36.4193C159.741 36.5184 159.47 36.4913 159.326 36.4373C159.173 36.3923 159.146 36.3112 159.146 36.2211C159.146 36.0229 159.272 35.9869 160.083 35.8338C160.632 35.7167 160.884 35.5635 161.127 35.4374C161.361 35.2843 161.613 35.1581 162.036 34.7888C162.441 34.4105 162.631 34.2033 162.802 33.9781C162.973 33.7619 163.144 33.5187 163.342 32.9962C163.441 32.735 163.486 32.5188 163.531 32.3567C163.549 32.2666 163.549 32.2576 163.558 32.2035C163.333 32.2035 163.108 32.2035 162.667 32.2035C161.469 32.2035 161.469 32.2756 160.272 32.2756C159.074 32.2756 159.074 32.2216 157.868 32.2216C157.07 32.2216 156.271 32.2216 155.473 32.2216C155.203 32.2216 154.996 32.2216 154.825 32.2216C154.789 32.2216 154.744 32.2126 154.762 32.2666C154.762 32.2396 154.825 32.6539 155.014 33.1584C155.23 33.6808 155.419 33.897 155.581 34.1222C155.761 34.3384 155.941 34.5546 156.373 34.9149C156.815 35.2572 157.067 35.3834 157.319 35.4915C157.571 35.6086 157.832 35.7076 158.381 35.8157C159.191 35.9238 159.155 36.0499 159.146 36.2391C159.146 36.4012 159.209 36.6265 158.255 36.5094L158.264 36.4913Z" fill="white"/>
<path d="M164.224 31.9333C164.206 32.0594 164.224 32.2035 164.188 32.2846C164.071 32.2846 163.963 32.2846 163.864 32.2846C163.702 32.2846 163.567 32.2846 163.432 32.2846C163.279 32.2846 163.135 32.2756 163 32.2666C162.738 32.2576 162.468 32.2396 161.937 32.2396C160.884 32.2396 160.875 32.2396 159.812 32.2215C158.75 32.2215 158.75 32.2666 157.688 32.2666C156.634 32.2756 156.616 32.2756 155.563 32.2846C154.996 32.2846 154.888 32.2666 154.276 32.2485C154.231 32.2305 154.114 32.2846 154.132 32.2035V32.0054C154.132 31.8702 154.123 31.7351 154.123 31.591C154.123 31.4829 154.123 31.4468 154.141 31.2577C154.141 31.1586 154.15 31.0595 154.159 30.9604C154.177 30.8703 154.123 30.6992 154.294 30.7442C155.446 30.7352 155.473 30.7352 156.625 30.7172C157.334 30.7172 158.042 30.7172 158.75 30.7172C159.785 30.7352 159.83 30.7352 160.875 30.7442C161.91 30.7262 161.964 30.7262 163 30.7172C163.783 30.7172 163.891 30.8523 163.891 31.0235C163.891 31.1946 163.783 31.3117 163 31.3117C161.937 31.3117 161.937 31.3748 160.884 31.3748C159.83 31.3748 159.821 31.3117 158.759 31.3117C157.706 31.3117 157.697 31.3117 156.634 31.3027C156.103 31.3027 155.842 31.3208 155.572 31.3388C155.428 31.3388 155.293 31.3568 155.14 31.3658C155.032 31.3658 154.915 31.3658 154.762 31.3748C154.762 31.3748 154.744 31.5279 154.762 31.582C154.762 31.618 154.744 31.618 154.762 31.636C154.672 31.654 155.095 31.6631 155.59 31.6631C156.298 31.6631 157.007 31.6631 157.715 31.6631C158.423 31.6631 159.131 31.6631 159.839 31.6631C160.902 31.6631 160.902 31.609 161.964 31.609C162.765 31.609 162.774 31.609 163.576 31.591C163.576 31.591 163.576 31.5369 163.585 31.5099C163.585 31.4558 163.594 31.4018 163.603 31.3298C163.621 31.2307 163.639 31.1676 163.675 31.1225C163.738 31.0325 163.828 31.0415 163.909 31.0325C163.999 31.0325 164.08 31.0055 164.152 31.0865C164.188 31.1316 164.215 31.1946 164.242 31.3117C164.251 31.3658 164.269 31.4378 164.269 31.5099C164.269 31.5639 164.269 31.609 164.269 31.654C164.269 31.7441 164.269 31.8342 164.26 31.9333H164.224Z" fill="white"/>
<path d="M180.501 42.8239C180.528 21.2048 180.528 18.7366 180.546 0.621552C179.241 0.621552 176.873 0.621552 174.199 0.621552C157.814 0.621552 141.431 0.615529 125.052 0.603519C108.672 0.591508 92.2899 0.606565 75.9044 0.648603C59.5189 0.69064 43.1364 0.696608 26.7569 0.666581C13.4235 0.648565 7.4095 0.639568 0.639234 0.621552C0.639234 6.11641 0.621201 12.1158 0.612198 23.0604C0.621201 41.3286 0.621219 45.9136 0.630222 59.6057C2.13373 59.6057 6.63521 59.6057 12.6492 59.6057C29.0407 59.6057 45.4352 59.6057 61.8327 59.6057C78.2362 59.6177 94.6396 59.6268 111.043 59.6328C127.447 59.6208 143.85 59.6117 160.254 59.6057C169.338 59.6057 174.487 59.6418 177.368 59.6958C180.249 59.7499 180.862 59.831 180.862 59.921C180.862 60.0111 180.249 60.0832 177.368 60.1282C174.487 60.1823 169.338 60.2093 160.254 60.2093C143.88 60.2273 127.504 60.2483 111.124 60.2724C94.7447 60.2483 78.3622 60.2273 61.9767 60.2093C45.5912 60.2093 29.2088 60.2063 12.8293 60.2003C7.57153 60.2003 3.42115 60.2003 0.0630277 60.2003C0.0360186 46.9406 0.0360121 42.8329 0 23.2496C0.00900301 11.8365 0.0179775 5.64802 0.0269805 0.0270503C6.9503 0.0270503 13.1264 0.0450377 26.6129 0.0540456C42.9924 0.0540456 59.3719 0.0540456 75.7514 0.0540456C92.1429 0.0540456 108.537 0.0540456 124.935 0.0540456C141.338 0.0360297 157.742 0.0180159 174.145 0C177.683 0 180.735 0 181.222 0C181.222 18.4844 181.222 21.421 181.24 42.8419C181.24 51.931 181.195 56.2008 181.132 58.1915C181.069 60.1913 180.979 59.912 180.889 59.912C180.798 59.912 180.717 60.1913 180.645 58.1915C180.582 56.1918 180.537 51.931 180.537 42.8419L180.501 42.8239Z" fill="white"/>
</svg>
