<?xml version="1.0" encoding="UTF-8"?>
<svg id="_레이어_2" data-name="레이어 2" xmlns="http://www.w3.org/2000/svg" viewBox="0 0 471.41 40.28">
  <defs>
    <style>
      .cls-1 {
        fill: none;
      }

      .cls-1, .cls-2, .cls-3 {
        stroke: #fff;
        stroke-miterlimit: 10;
      }

      .cls-3 {
        fill: #fff;
      }
    </style>
  </defs>
  <g id="_레이어_1-2" data-name="레이어 1">
    <g>
      <g>
        <path class="cls-3" d="M22.53,4.59c-2.24-.64-4.02-.77-5.49-.81-.74,0-1.4.02-2.03.04-.62.07-1.21.08-1.79.19-1.16.18-2.31.43-3.66.97-1.33.56-2.9,1.39-4.46,3.08-1.49,1.75-2.16,3.41-2.57,4.79-.19.7-.34,1.35-.44,1.96-.07.62-.18,1.2-.21,1.79-.07,1.17-.08,2.38-.07,3.91,0,.76,0,1.6,0,2.55-.02.96.02,2,.07,3.18.2,2.35.78,4.04,1.41,5.33.28.67.69,1.18,1.01,1.7.4.45.72.94,1.16,1.31.21.2.42.39.63.59.23.17.47.35.72.53.24.19.5.36.79.52.29.16.57.36.9.5,1.28.65,2.96,1.22,5.29,1.53,2.34.28,4.13.2,5.6.05,1.47-.16,2.64-.39,3.78-.68,1.14-.3,2.27-.66,3.59-1.26.32-.16.67-.32,1.01-.52.16-.08.39-.22.49-.29,0,0,0,0,0,0,0-.91,0-1.94,0-3.11,0-3.61.02-5.88.05-7.8.03-1.71.05-3.12.08-5.09.18,0-1.06-.01-1.95-.02-.98,0-2.08,0-3.34,0-3.12,0-5.15.01-6.95.01,0,1.29.01,2.44.02,3.91,1.05,0,3.06,0,6.11-.01h1.25c0,2.55,0,4.49,0,6.12,0,.73,0,1.39,0,2.02,0,.46,0,.92,0,1.37.03.09-.09.08-.14.11l-.2.07-.39.15-.55.19c-1.19.39-2.45.65-4,.74-.77.04-1.62.04-2.59-.04-.97-.07-2.06-.27-3.24-.72-1.23-.47-2.21-1.15-2.94-1.89-.76-.73-1.2-1.54-1.59-2.26-.7-1.49-.92-2.78-1.05-4.03-.14-1.27-.1-2.52-.1-4.03.02-1.5-.07-3.39.39-5.89.49-2.49,1.56-4.32,2.88-5.37,1.3-1.08,2.62-1.47,3.87-1.72,1.27-.22,2.53-.3,4.12-.2,1.57.13,3.53.45,5.79,1.73.41.24.79.49,1.13.75l.21.16.02.02s.04.05.05.04l.04-.05.03-.03.14-.19c.19-.25.36-.49.53-.71.66-.88,1.16-1.5,1.54-1.93.76-.86,1.04-.96,1.2-.85.16.11.15.4-.42,1.4-.28.5-.71,1.17-1.32,2.09-.41.6-.88,1.29-1.41,2.06-.08.24-.22-.02-.35-.09-.13-.1-.26-.21-.39-.32-.13-.11-.27-.22-.41-.33l-.27-.2c-.31-.23-.64-.45-1.01-.66-2.01-1.14-3.78-1.43-5.22-1.55-1.45-.09-2.65,0-3.76.2-1.11.23-2.21.57-3.24,1.44-1.04.84-1.94,2.3-2.4,4.56-.42,2.28-.35,4.07-.38,5.6-.01,1.54-.06,2.73.06,3.88.1,1.16.3,2.32.88,3.61.6,1.25,1.65,2.7,3.78,3.53,1.02.4,2,.58,2.89.65.88.08,1.68.08,2.41.04,1.45-.07,2.58-.3,3.67-.65l.44-.15c0-.16,0-.33,0-.5,0-.63,0-1.29,0-2.02,0-1.3,0-2.85,0-4.89,0,0-.07,0-.15,0-3.21.02-5.43.03-7.24.04-.03-2.41-.05-4.27-.08-6.54,2.05-.01,4.48-.03,8.23-.05,2.88,0,5.01.02,6.74.02-.02,2.49-.04,4.27-.06,6.44,0,1.92-.02,4.19-.04,7.77,0,1.23,0,2.31,0,3.28,0,.21,0,.43,0,.63-.11.15-.33.23-.49.35-.12.08-.25.16-.37.23-.1.06-.2.11-.29.17-.38.22-.76.4-1.11.58-1.43.65-2.63,1.03-3.84,1.34-1.21.31-2.43.54-3.98.71-1.55.16-3.43.24-5.91-.04-2.49-.31-4.31-.94-5.73-1.65-1.4-.74-2.49-1.46-3.38-2.39-.49-.42-.85-.96-1.3-1.47-.36-.58-.81-1.15-1.12-1.89-.7-1.43-1.34-3.27-1.55-5.78-.15-2.53-.07-4.3-.1-5.84-.02-1.52-.03-2.74.02-4,.07-1.25.24-2.51.64-4.05.44-1.52,1.16-3.37,2.84-5.36,1.76-1.92,3.52-2.86,4.98-3.49,1.49-.6,2.73-.9,3.97-1.11.62-.13,1.25-.15,1.92-.24.67-.04,1.37-.07,2.16-.07,1.57.02,3.48.15,5.92.85,1.8.54,3.04,1.19,3.89,1.73.85.55,1.34.98,1.62,1.28.56.61.34.69.22.85-.12.15-.16.36-.86.01-.35-.17-.87-.47-1.69-.91-.83-.43-1.97-.98-3.62-1.47Z"/>
        <g>
          <path class="cls-3" d="M54.29,28.48c-.21,1.35-.54,2.01-.88,2.62-.36.59-.74,1.26-1.92,2.09-1.21.78-1.94.86-2.6.99-.68.09-1.35.18-2.7.05-1.35-.16-2.03-.44-2.66-.75-.61-.33-1.3-.71-2.12-1.91-.75-1.23-.86-1.93-1.03-2.59-.16-.66-.23-1.36-.25-2.67,0-1.26.04-1.9.08-2.53.06-.65.06-1.32.32-2.64.28-1.32.64-1.97,1-2.56.39-.57.84-1.22,2.1-1.9.64-.32,1.15-.45,1.57-.56.42-.09.76-.14,1.1-.17.68-.04,1.34-.13,2.7.09,1.36.26,2.01.65,2.59,1.05.56.43,1.16.92,1.81,2.17.6,1.27.65,1.95.8,2.61.09.65.16,1.37.15,2.61,0,1.87-.3,2.12-.69,2.12s-.64-.25-.64-2.12c.01-1.28-.07-1.83-.17-2.43-.14-.56-.21-1.17-.69-2.17-.51-.97-.91-1.33-1.32-1.68-.43-.33-.9-.66-2.05-.88-1.15-.19-1.77-.13-2.36-.1-.58.06-1.2.09-2.22.57-.99.53-1.3,1.03-1.58,1.5-.26.49-.51.98-.76,2.11-.23,1.14-.22,1.75-.27,2.36-.03.63-.06,1.26-.06,2.53.01,1.23.07,1.81.19,2.39.12.57.23,1.17.81,2.14.63.93,1.13,1.22,1.61,1.5.49.26,1.01.5,2.17.64,1.17.11,1.77,0,2.33-.11.55-.14,1.14-.25,2.04-.84.89-.62,1.15-1.13,1.41-1.61.24-.49.48-1.01.66-2.16.17-1.72.48-1.64.9-1.64.19,0,.39-.03.52.18.13.21.24.68.11,1.68Z"/>
          <path class="cls-3" d="M35.77,29.6c.2,1.02.44,1.76.68,2.35.13.29.23.57.35.81.13.24.25.46.38.69.55.85,1.1,1.77,2.8,2.94,1.74,1.12,2.81,1.32,3.81,1.6,1.02.24,2.08.41,4.2.37,2.12-.11,3.14-.45,4.12-.78.95-.41,1.96-.77,3.51-2.09,1.52-1.37,1.93-2.38,2.36-3.29.4-.94.77-1.92.99-4,.07-1.04.09-1.84.1-2.54.02-.68.04-1.23.06-1.79,0-1.07.11-2.15-.4-4.2-.6-2.01-1.2-2.89-1.83-3.69-.66-.78-1.33-1.61-3.14-2.6-1.85-.94-2.93-1.06-3.95-1.27-1.04-.11-2.11-.27-4.22-.09-2.09.25-3.1.59-4.06.98-.93.44-1.94.85-3.37,2.35-1.38,1.55-1.69,2.6-2.05,3.56-.08.25-.15.5-.23.76-.06.27-.12.56-.18.88-.08.32-.1.68-.16,1.09-.07.41-.08.87-.1,1.4-.04,3.21-.31,3.68-.71,3.67-.38,0-.66-.42-.62-3.71.02-.57.04-1.07.1-1.51.06-.44.08-.84.17-1.19.07-.35.13-.67.19-.97.09-.3.17-.57.25-.85.38-1.08.72-2.28,2.3-4.06,1.64-1.72,2.8-2.17,3.84-2.65,1.08-.42,2.2-.79,4.46-1.05,2.27-.2,3.41-.03,4.54.11,1.11.23,2.28.36,4.35,1.41,2.04,1.11,2.83,2.04,3.6,2.9.74.9,1.45,1.9,2.12,4.14.57,2.26.46,3.44.47,4.55-.01.55-.03,1.1-.04,1.79,0,.68-.02,1.52-.09,2.67-.24,2.28-.66,3.39-1.12,4.44-.5,1.03-.98,2.16-2.71,3.74-1.78,1.52-2.93,1.9-3.98,2.33-1.09.34-2.22.69-4.5.81-.57.03-1.07.03-1.51,0-.45,0-.84-.02-1.19-.07-.71-.05-1.28-.14-1.85-.26-1.11-.27-2.31-.45-4.31-1.72-1.95-1.34-2.63-2.38-3.29-3.34-.15-.25-.3-.51-.46-.78-.15-.28-.27-.58-.43-.92-.29-.67-.57-1.51-.8-2.65-.3-1.69-.16-2.5-.04-2.87.13-.37.33-.32.53-.32.19,0,.38-.05.54.3.17.34.23,1.08.5,2.59Z"/>
        </g>
        <path class="cls-3" d="M81.61,20.88c0,2.88-.03,4.31-.05,5.75-.01.72-.02,1.44-.04,2.34,0,.89-.05,2.01.04,3.36.24,2.74,1.08,3.84,2.02,4.64.48.41,1.07.69,1.85.96.78.26,1.8.43,3.19.45,1.32.03,2.31-.14,3.13-.33.41-.09.77-.2,1.11-.31.31-.1.76-.27.68-.25.2.72-.64-3.08-.71-3.51,0,0-.02,0-.03.01-.09.03-.17.06-.26.08-.18.05-.34.1-.51.14-.33.08-.65.14-.95.19-.61.09-1.13.11-1.62.11-.5,0-.98-.05-1.46-.23-.48-.17-.95-.52-1.23-.95-.56-.86-.57-1.78-.58-2.68,0-.9,0-1.98,0-3.42,0-2.66.03-4.09.07-5.43.02-.67.03-1.33.05-2.09,0-.95.02-2.04.03-3.45.49,0,1.11,0,1.78,0,1.36,0,2.41,0,3.29,0,.44,0,.84,0,1.22,0,.12,0,.24,0,.36,0h.09c-.01.26-.02-2.97-.03-3.75,0,0-.09,0-.17,0-3.3,0-4.9,0-6.6,0,0-1.53,0-3.14,0-6.28,0-.22,0-.43,0-.57-2.32-.02-3.27-.03-4.8-.05,0,.05,0,.1,0,.16,0,.29,0,.6,0,.93,0,.67,0,1.46,0,2.4,0,1.36,0,2.46,0,3.36-1.14,0-2.06.01-2.92.02-.33,0-.66,0-.98.01h-.23s-.04,0-.04,0h-.07s0,.07,0,.07v.12c0,.31,0,.64.01,1.01,0,.67,0,1.47,0,2.44v.06s.08,0,.08,0c.17,0,.34,0,.5.01.37.02.69.03.99.04.58.04,1,.09,1.3.15.6.12.73.29.73.47s-.13.34-.73.45c-.3.05-.72.1-1.3.13-.3.01-.62.02-.99.04-.57,0-1.19.01-1.9.02,0-.31,0-.64,0-.99-.02-2.51-.03-4.11-.04-5.38.94-.02,1.77-.03,2.67-.04.34,0,.68-.01,1.06-.02.09,0,.19,0,.29,0h.15s.01,0,.02,0h.02c0,.33-.01-.93-.01-1.96.02-2.19.03-3.67.04-4.88.75.01,1.43.02,2.1.03.44.01.86.02,1.32.03.46,0,.95.02,1.51.03.74,0,1.58.01,2.55.02,0,.56,0,1.18,0,1.85,0,2.51,0,3.8-.01,5.03,1.35,0,2.64,0,5.27.01.56,0,1.08,0,1.48,0,.01,1.45.02,2.56.03,3.52.02,1.04.04,1.92.05,2.81-.9.02-1.82.03-2.95.05-.88,0-1.92.01-3.29.02-.15,0-.3,0-.43,0,0,0-.02,0-.02,0-.03,1.94-.05,3.02-.07,4.16-.03,1.35-.05,2.77-.05,5.4,0,1.44,0,2.52,0,3.42-.01.88.05,1.51.31,1.93.24.38.7.58,1.54.59.41,0,.89,0,1.4-.08.26-.04.53-.09.82-.16.14-.04.29-.08.44-.12l.23-.07c.14-.05.29-.1.43-.16.53-.21,1.04-.41,1.07-.42.31,1.56.55,2.75.75,3.76.08.41.16.78.23,1.14.06.29.11.58.17.86l.04.23c.01.07.06.17-.05.18l-.43.18c-.68.29-.92.35-1.31.48-.37.12-.77.22-1.22.32-.89.19-1.97.37-3.39.35-1.49-.02-2.63-.19-3.56-.48-.92-.29-1.67-.62-2.31-1.13-1.26-.97-2.37-2.54-2.62-5.58-.1-1.53-.05-2.57-.07-3.48,0-.9,0-1.62-.01-2.34,0-1.44,0-2.88-.02-5.76,0-4.25.4-3.99.78-3.99s.77-.26.77,3.99Z"/>
        <g>
          <path class="cls-3" d="M118.01,28.48c-.21,1.35-.54,2.01-.88,2.62-.36.59-.74,1.26-1.92,2.09-1.21.78-1.94.86-2.6.99-.68.09-1.35.18-2.7.05-1.35-.16-2.03-.44-2.66-.75-.61-.33-1.3-.71-2.12-1.91-.75-1.23-.86-1.93-1.03-2.59-.16-.66-.23-1.36-.25-2.67,0-1.26.04-1.9.08-2.53.06-.65.06-1.32.32-2.64.28-1.32.64-1.97,1-2.56.39-.57.84-1.22,2.1-1.9.64-.32,1.15-.45,1.57-.56.42-.09.76-.14,1.1-.17.68-.04,1.34-.13,2.7.09,1.36.26,2.01.65,2.59,1.05.56.43,1.16.92,1.81,2.17.6,1.27.65,1.95.8,2.61.09.65.16,1.37.15,2.61,0,1.87-.3,2.12-.69,2.12s-.64-.25-.64-2.12c.01-1.28-.07-1.83-.17-2.43-.14-.56-.21-1.17-.69-2.17-.51-.97-.91-1.33-1.32-1.68-.43-.33-.9-.66-2.05-.88-1.15-.19-1.77-.13-2.36-.1-.58.06-1.2.09-2.22.57-.99.53-1.3,1.03-1.58,1.5-.26.49-.51.98-.76,2.11-.23,1.14-.22,1.75-.27,2.36-.03.63-.06,1.26-.06,2.53.01,1.23.07,1.81.19,2.39.12.57.22,1.17.81,2.14.63.93,1.13,1.22,1.61,1.5.49.26,1.01.5,2.17.64,1.17.11,1.77,0,2.33-.11.55-.14,1.14-.25,2.04-.84.89-.62,1.15-1.13,1.41-1.61.24-.49.48-1.01.66-2.16.17-1.72.48-1.64.9-1.64.19,0,.39-.03.52.18.13.21.24.68.11,1.68Z"/>
          <path class="cls-3" d="M99.49,29.6c.2,1.02.44,1.76.68,2.35.13.29.23.57.35.81.13.24.25.46.38.69.55.85,1.1,1.77,2.8,2.94,1.74,1.12,2.81,1.32,3.81,1.6,1.02.24,2.08.41,4.2.37,2.12-.11,3.14-.45,4.12-.78.95-.41,1.96-.77,3.51-2.09,1.52-1.37,1.93-2.38,2.36-3.29.4-.94.77-1.92.99-4,.07-1.04.09-1.84.1-2.54.02-.68.04-1.23.06-1.79,0-1.07.11-2.15-.4-4.2-.6-2.01-1.2-2.89-1.83-3.69-.66-.78-1.33-1.61-3.14-2.6-1.85-.94-2.93-1.06-3.95-1.27-1.04-.11-2.11-.27-4.22-.09-2.09.25-3.1.59-4.06.98-.93.44-1.94.85-3.37,2.35-1.38,1.55-1.69,2.6-2.05,3.56-.08.25-.15.5-.23.76-.06.27-.12.56-.18.88-.08.32-.1.68-.16,1.09-.07.41-.08.87-.1,1.4-.04,3.21-.31,3.68-.71,3.67-.38,0-.66-.42-.62-3.71.02-.57.04-1.07.1-1.51.06-.44.08-.84.17-1.19.07-.35.13-.67.19-.97.09-.3.17-.57.25-.85.38-1.08.72-2.28,2.3-4.06,1.64-1.72,2.8-2.17,3.84-2.65,1.08-.42,2.2-.79,4.46-1.05,2.27-.2,3.41-.03,4.54.11,1.11.23,2.28.36,4.35,1.41,2.04,1.11,2.83,2.04,3.6,2.9.74.9,1.45,1.9,2.12,4.14.57,2.26.46,3.44.47,4.55-.01.55-.03,1.1-.04,1.79,0,.68-.02,1.52-.09,2.67-.24,2.28-.66,3.39-1.12,4.44-.5,1.03-.98,2.16-2.71,3.74-1.78,1.52-2.93,1.9-3.98,2.33-1.09.34-2.22.69-4.5.81-.57.03-1.07.03-1.51,0-.45,0-.84-.02-1.19-.07-.71-.05-1.28-.14-1.85-.26-1.11-.27-2.31-.45-4.31-1.72-1.95-1.34-2.63-2.38-3.29-3.34-.15-.25-.3-.51-.46-.78-.15-.28-.27-.58-.43-.92-.29-.67-.57-1.51-.8-2.65-.3-1.69-.16-2.5-.04-2.87.13-.37.33-.32.53-.32s.38-.05.54.3c.17.34.23,1.08.5,2.59Z"/>
        </g>
        <g>
          <path class="cls-3" d="M151.36,22.38c.56-1.68.66-1.65,1.22-3.33.55-1.68.61-1.67,1.14-3.35.26-.84.37-1.27.48-1.7.06-.23.12-.47.2-.74.16-.53.35-1.14.6-1.96.26-.83.45-1.45.61-1.97.04-.13.08-.26.12-.38.02-.04.04-.16.05-.14l.05.16c.07.21.14.41.21.61.28.84.55,1.67,1.1,3.32.09.29.17.55.25.78.05.16.09.31.12.44.06.25.11.47.17.7.1.43.19.86.47,1.7.58,1.67.59,1.68,1.17,3.35q.67,1.98,1.34,3.96c.09.27.17.52.22.65-1.32,0-2.21-.02-2.47-.04-.42-.01-.86-.03-1.67-.03-1.77,0-1.77.07-3.55.07-1.31,0-1.49-.3-1.49-.69s.18-.64,1.49-.64c1.77,0,1.77-.13,3.54-.13.82,0,1.26.03,1.67.07.56.03.46.07.66.08,0-.02-.01-.04-.02-.07q-.46-1.41-.91-2.82c-.56-1.68-.71-1.63-1.27-3.31-.28-.85-.38-1.28-.49-1.72-.06-.22-.12-.44-.18-.7-.07-.23-.15-.49-.25-.84-.05-.17-.08-.25-.1-.33-.03-.18-.05,0-.11.16q-.39,1.27-.79,2.55c-.54,1.7-.45,1.72-1,3.41-.54,1.68-.55,1.69-1.09,3.38-.41,1.24-.76,1.04-1.13.92-.37-.12-.76-.17-.34-1.41Z"/>
          <path class="cls-3" d="M169.59,34.71c-2.21-6.03-2.22-6.06-4.43-12.09q-2.25-6.04-4.5-12.07c-.66-1.73-1.13-2.96-1.52-3.99-.2-.51-.38-.97-.56-1.42-.09-.22-.17-.44-.26-.66l-.07-.16v-.02s-.03-.03-.03-.03c-.14.02-3.14.04-4.6.04h0q-2.14,5.84-4.29,11.67c-2.25,6.04-2.4,5.98-4.64,12.02-1.83,4.98-2.01,5.49-3.65,9.97.02,0,.17,0,.34,0,2.3,0,3.69,0,4.59,0,.75-2.1,1.23-3.46,2.47-6.92.41-1.14.76-2.11.98-2.72,4.39.02,5.29.03,10.98.06.73,0,1.4,0,1.77,0,1.58,4.39,1.88,5.2,3.45,9.57.17,0,.5,0,.87,0,4.76,0,5.4.3,5.4.69s-.64.64-5.4.64c-.76,0-1.46,0-1.81,0-.46-1.26-.82-2.27-1.14-3.15-.28-.76-.52-1.4-.77-2.05-.43-1.17-.86-2.33-1.59-4.3,0,0,0,0-.01,0-.22,0-.48,0-.75,0-2.76,0-4.34-.03-5.75-.06-1.29-.02-2.42-.05-4.32-.08-.19.51-.4,1.11-.66,1.81-1.41,3.9-1.95,5.42-2.81,7.79-1.06,0-2.72,0-5.45,0-.83,0-1.59,0-2.2,0,.55-1.53.98-2.72,1.36-3.75.28-.81.52-1.5.76-2.21.49-1.42,1.01-2.93,2.05-5.71,2.25-6.04,2.36-6,4.61-12.04q2.31-6.2,4.62-12.39c.03-.09.07-.19.07-.19,3.21,0,5.03,0,6.46,0,.75,2,1.35,3.57,2.69,7.13,2.32,6.01,2.33,6.03,4.64,12.04q2.28,6.03,4.57,12.07c1.68,4.46,1.2,4.33.84,4.46-.36.14-.62.54-2.29-3.92Z"/>
        </g>
        <path class="cls-3" d="M192.79,14.02c.23-.73.41-1.27.56-1.73.22.03-.63-.17-1.11-.23-.54-.08-1.1-.13-1.79-.14-.68,0-1.51.03-2.52.34-1.43.44-2.19,1.08-2.81,1.66l-.22.23-.11.11c-.06.06-.13.16-.19.24-.26.35-.51.66-.77,1.12l-.2.32-.1.16-.05.08h-.03c-.09.02-.18.04-.27.06-.23.02-.16.11-.45.07h0c-.07-.14-.2-.39-.37-.71-.02-.04-.04-.08-.06-.13,0-.11,0-.23,0-.35,0-.24,0-.49,0-.75,0-.44,0-.91,0-1.43,0-.2,0-.38,0-.5-2.12.04-2.79.06-4.53.09v.03s0-.05,0,.21c0,.38,0,.8,0,1.27q.02,4.63.04,9.27c0,4.64-.16,4.64-.16,9.27.02,2.68.02,3.62.04,5.36.02,0,.05,0,.08,0,.14,0,.3,0,.49,0,.54,0,1.21,0,2.02,0,1.1,0,1.86,0,2.21,0,0-1.97,0-2.86-.01-5.72.03-4.63.03-4.65.06-9.28-.03-1.22.22-2.21.53-2.94.3-.75.68-1.28,1.1-1.78.42-.49.92-.93,1.62-1.33.7-.39,1.63-.78,2.91-.85,1.82-.08,2.86.26,3.38.56.52.3.54.52.47.7-.08.18-.24.27-.76.21-.5-.04-1.4-.21-3.02-.14-1.05.05-1.79.38-2.34.69-.56.32-.94.67-1.26,1.06-.32.39-.61.81-.84,1.4-.23.6-.43,1.31-.41,2.39,0,4.63-.15,4.63-.15,9.27-.01,3.51-.01,4.59-.02,7.02-.53,0-1.72,0-3.44,0-1.74.02-2.93.03-3.91.04-.01-.68-.03-1.28-.04-1.89-.01-.4-.03-.8-.04-1.23-.03-.87-.04-1.92-.04-3.5,0-4.64.12-4.64.12-9.27q0-4.63.01-9.27c0-1.45,0-2.55,0-2.9,2.74,0,3.9,0,7.14-.01,0,.23,0,.94,0,1.74,0,.23,0,.43,0,.61,0,.07,0,.13.01.18h0c.07-.07.09-.18.13-.23l.04-.08s-.02.02.05-.07c.08-.09.16-.18.25-.28.68-.71,1.63-1.56,3.45-2.14,1.22-.37,2.16-.41,2.93-.43.77,0,1.37.03,1.98.1.66.1.99.06,2.55.58l.26.08c.08.03-.02.16-.02.23-.05.18-.1.36-.15.54-.1.31-.2.64-.31.99-.14.43-.29.92-.46,1.47-1.03,3.27-1.35,2.95-1.72,2.83s-.8-.03.24-3.3Z"/>
        <path class="cls-3" d="M215.65,13.06c-1.26-.52-2.29-.72-3.14-.86-.86-.14-1.56-.2-2.26-.23-1.39-.01-2.85-.13-5.47.73-2.55,1.02-3.51,2.1-4.36,3.13-.8,1.08-1.57,2.29-2.07,5.03-.2,1.39-.18,2.42-.17,3.35.01.91.03,1.63.04,2.36.04.71.04,1.41.17,2.27.11.86.31,1.89.79,3.16.49,1.27,1.07,2.12,1.62,2.75.14.16.27.31.39.45.14.13.28.25.41.37.25.25.52.45.8.64.26.21.55.38.87.54.3.19.65.35,1.04.5.77.34,1.77.63,3.13.82,2.75.3,4.2.12,5.58-.03.69-.1,1.38-.23,2.23-.46.83-.25,1.84-.59,3.02-1.3.28-.17.59-.39.75-.52.03-.04.15-.08.08-.13-.24-.36-.45-.68-.64-.96-.5-.76-.9-1.36-1.31-1.97l-.24-.36-.05-.07s-.04.02-.08.04l-.09.06c-.08.05-.17.11-.25.16-.81.5-1.87,1.06-3.37,1.41-1.52.33-2.64.35-3.61.34-1-.04-1.79-.23-2.54-.55-.74-.33-1.46-.78-2.14-1.55-.67-.77-1.27-1.89-1.57-3.43-.08-.38-.1-.75-.15-1.09-.01-.34-.02-.66-.04-.96,0-.57,0-1.07,0-1.53.02-.92,0-1.61.04-2.4.04-.77.14-1.55.44-2.49.31-.92.84-2.11,2.16-3.11,1.35-.96,2.61-1.14,3.57-1.2.98-.04,1.71,0,2.49.11.76.11,1.53.28,2.44.64.45.19.94.42,1.45.74.13.08.26.17.39.25.06.04.13.09.2.14l.05.03s.02-.03.03-.04c.24-.35.45-.67.65-.95.24-.34.46-.65.66-.92.39-.53.7-.9.94-1.15.48-.5.7-.52.87-.42.16.11.21.32-.07.95-.14.31-.37.73-.71,1.3-.18.29-.37.6-.6.96-.28.43-.59.9-.94,1.44-.09.14-.18.27-.27.41l-.13.2s-.07.2-.15.1c-.25-.18-.49-.36-.72-.54-.12-.09-.23-.18-.35-.25l-.2-.14c-.12-.08-.24-.15-.35-.22-.46-.28-.88-.48-1.27-.63-.79-.31-1.45-.45-2.12-.53-.67-.08-1.39-.12-2.22-.07-.8.06-1.81.21-2.81.93-.99.74-1.42,1.64-1.68,2.4-.27.77-.36,1.45-.41,2.12-.06.66-.05,1.43-.07,2.33,0,.46,0,.95-.02,1.52,0,.27.02.55.03.86.04.3.07.62.12.95.26,1.33.74,2.22,1.25,2.83.52.61,1.07.97,1.66,1.24.59.26,1.24.43,2.07.47.85.02,1.94,0,3.28-.29,1.35-.3,2.26-.79,2.99-1.25.1-.06.19-.12.28-.19.14-.1.29-.2.42-.3.15-.11.29-.21.44-.31l.22-.16.11-.08s.05.07.07.1c.33.49.65.96.97,1.43.41.6.83,1.2,1.34,1.95.32.48.67,1.01,1.06,1.6.07.12.15.23.22.35l.06.09s-.05.05-.07.07l-.16.14c-.22.19-.45.39-.69.59l-.28.21c-.07.06-.15.11-.22.16-.15.1-.31.22-.47.31-1.33.81-2.42,1.18-3.33,1.46-.91.26-1.66.41-2.4.52-1.49.18-2.99.39-5.99.07-1.5-.2-2.61-.53-3.49-.91-.44-.18-.84-.36-1.19-.58-.36-.2-.69-.39-1-.63-.32-.22-.63-.45-.92-.74-.31-.27-.62-.58-.92-.95-.63-.73-1.29-1.71-1.85-3.13-.55-1.43-.76-2.56-.87-3.49-.13-.94-.13-1.69-.16-2.44,0-.73,0-1.46,0-2.36,0-.89-.02-2.05.2-3.54.53-3,1.37-4.4,2.25-5.66.94-1.2,2.04-2.51,4.94-3.66,2.94-.97,4.52-.86,6.01-.89.75.02,1.51.06,2.45.2.94.15,2.08.35,3.51.94,2.11.91,2.85,1.73,3.16,2.1.3.41.12.52,0,.68-.12.15-.19.34-.64.18-.47-.13-1.26-.73-3.11-1.52Z"/>
        <path class="cls-3" d="M246.45,16.01c-.45-.82-.98-1.44-1.49-1.94-.55-.46-1.07-.85-1.6-1.1-1.04-.53-1.98-.77-2.93-.91-.95-.14-1.94-.16-3.14-.02-1.19.16-2.65.49-4.15,1.64-.09.07-.17.14-.25.21-.08.07-.15.11-.33.31-.15.17-.3.33-.44.49l-.22.24-.19.16c-.24.19-.55.5-.62.44l-.18.03s-.24.04-.23-.07c-.08-.16-.16-.32-.23-.47l-.11-.22c-.04-.07-.01-.3-.02-.44,0-.57,0-1.11,0-1.63,0-1.25,0-2.26.01-3.25,0-1.83.01-3.61.02-6.98,0,0-.13,0-.26,0-1.79,0-3.13.01-4.25.02.02,1.66.04,2.83.06,4.25,0,1.64.02,3.56.03,6.63q.02,8.21.04,16.43c-.01,2.24-.02,3.87-.03,5.23-.01.68-.02,1.29-.03,1.87,0,.29-.01.58-.02.86,0,.1,0,.07,0,.08v.02s-.01.05-.01.05h.07s.02.01.02.01h.14s.32,0,.32,0c.43,0,.89.01,1.38.02.81,0,1.74.02,2.89.03,0-.24,0-.54,0-.87-.01-4.11-.02-6.16-.03-8.21,0-1.03-.01-2.05-.02-3.34,0-.64,0-1.35,0-2.15,0-.77,0-1.78.25-2.87.26-1.1.76-2.02,1.38-2.7.62-.68,1.32-1.11,1.98-1.39,1.33-.55,2.49-.61,3.59-.54,1.09.1,2.35.36,3.45,1.46,1.09,1.1,1.61,2.89,1.61,5.02-.03,7.8-.03,7.91-.06,15.58h.05c2.18,0,3.66-.01,4.81-.02-.02-3.02-.02-4.72-.05-9.93,0-6.07.3-6.89.69-6.89s.64.82.64,6.89c.02,2.78.03,4.61.04,6.17.02,1.8.04,3.27.06,5.14-1.7,0-3.87.02-7.07.03h-.56c.01-2.3.02-4.04.02-5.5.02-1.25.04-2.26.05-3.28.04-2.03.07-4.08.07-8.14,0-1.97-.45-3.37-1.2-4.14-.74-.78-1.67-1.02-2.6-1.11-.94-.09-1.92-.03-2.99.4-1.05.42-2.21,1.34-2.66,3.19-.22.93-.24,1.74-.22,2.56,0,.8.01,1.51.02,2.15.02,1.28.04,2.31.06,3.34.04,2.05.08,4.11.08,8.22,0,.97,0,1.86,0,2.3-3.47-.02-5.62-.04-7.58-.05.01-1.38.03-2.68.05-4.29,0-1.35.01-2.96.02-5.17q0-8.21.01-16.43c0-6.11,0-7.92-.01-12.23.81,0,2.74,0,5.48,0,.66,0,1.3,0,1.58,0,0,2.09.02,3.68.02,5.04.01,1.18.03,2.16.04,3.15.01.99.02,2,.04,3.25,0,.09,0,.19,0,.29v.03s0,.05,0,.05c0,.01.02-.03.03-.03l.02-.02c.15-.13.3-.26.46-.39,1.8-1.38,3.51-1.77,4.84-1.97,1.35-.17,2.44-.17,3.53-.03,1.08.14,2.18.39,3.44,1.01.64.3,1.28.75,1.95,1.32.64.61,1.29,1.37,1.83,2.36.78,1.47.95,2.68,1.06,3.53.09.86.05,1.41-.02,1.76-.12.69-.32.59-.51.59-.19,0-.38.09-.55-.55-.08-.32-.16-.82-.31-1.58-.18-.75-.37-1.8-1.02-3.02Z"/>
        <g>
          <path class="cls-3" d="M256.94,14.17c0,3.37-.1,3.37-.1,6.74q-.02,3.37-.04,6.74c0,3.37.11,3.37.11,6.74,0,1.06,0,1.79.01,2.41,0,.31,0,.6,0,.9,0,.21,0,.13,0,.15h0s0,0,0,0h0s-.02,0,.03,0h.15c.41,0,.92,0,1.55,0,.93,0,1.6.01,2.15.03.14,0,.27,0,.4.01h.19c.07.01.12.01.11.02.02.01.05.02.09.03.04.26.07-1,.07-2.43-.03-3.37-.03-3.37-.05-6.74q0-3.37-.02-6.75c.03-3.37.03-3.38.06-6.75,0-.87,0-1.51-.01-2.05,0-.23,0-.44-.01-.64v-.1s-.11.01-.11.01h-.04s-.17,0-.17,0c-.12,0-.24,0-.37,0-.52,0-1.14,0-1.96.01-2.49,0-2.83-.3-2.83-.69s.33-.64,2.83-.64c.82,0,1.44-.01,1.96-.02.78-.02,1.41-.03,2.04-.04.01.66.03,1.3.05,2.1,0,.54.01,1.18.02,2.04,0,3.37-.15,3.37-.15,6.74q-.01,3.37-.03,6.74c0,3.37.16,3.37.16,6.74,0,1.62-.03,2.06-.05,3.84-.7-.01-1.36-.03-2.17-.05-.56,0-1.22-.01-2.14-.02-1.58,0-2.56,0-3.15,0,0-1.51,0-2.42,0-4.84q0-3.37-.02-6.75c0-3.38-.11-3.38-.11-6.75q-.02-3.37-.03-6.75c0-2.49.4-2.34.78-2.34s.77-.15.77,2.34Z"/>
          <path class="cls-3" d="M256.8,2.19c0,1.33-.1,1.33-.1,2.67-.02,1.16-.02,1.17-.04,2.32,0,.03,0,.05,0,.06.14,0,.03-.03.45-.06.31-.02.64-.04,1.23-.04,1.33-.02,1.34-.02,2.67-.04.92,0,.59.05.75.09.02,0,.04-.01.05-.04,0-.03.01,0,.02-.1,0-.12,0-.25,0-.4-.03-1.32-.03-1.34-.05-2.67q0-1.01-.02-2.02h0s-.06,0-.09-.02c-.2,0-.36-.02-.52-.02-.33-.02-.66-.03-1.32-.03-1.34,0-1.34.07-2.67.07-.99,0-1.12-.3-1.12-.69s.13-.64,1.12-.64c1.33,0,1.33-.13,2.67-.13.66,0,.99.04,1.33.07.18.02.35.03.54.05.37.01.8.02,1.39.02v.06c-.01,1.63-.01,1.63-.03,3.26,0,1.33.16,1.33.16,2.67,0,.41-.01.72-.02,1-.01.35-.03.65-.04.94-.69-.03-1.56-.07-2.13-.07q-1.33,0-2.67-.01c-1.48,0-1.67,0-2.96.02,0-.04,0-.31,0-.62,0-.3,0-.56,0-.8,0-.13,0-.24-.01-.35-.01-.2-.03-.37-.04-.54-.03-.33-.06-.67-.06-1.34-.02-1.33-.02-1.34-.03-2.67,0-.99.4-.93.78-.93s.77-.06.77.93Z"/>
        </g>
        <path class="cls-3" d="M280.09,37.85c.77,0,1.44,0,2.05,0,.3,0,.58,0,.85,0h.19s0,0,0,0h.01c.41-1.18.7-2.01,1.04-3.01.39-1.18.86-2.56,1.6-4.78q1.95-5.91,3.9-11.81c.55-1.7.94-2.92,1.26-3.93.16-.51.3-.96.44-1.41l.09-.3v-.04s.02-.07.02-.07c-.04,0-.07.01-.11.02-.35,0-.73,0-1.15.01-.87,0-1.91,0-3.23.01-.18,0-.35,0-.36,0-1.4,4.88-1.51,5.27-3.02,10.54-.87,2.99-1.34,4.47-1.82,5.95-.12.37-.24.74-.36,1.14-.17.56-.35,1.16-.55,1.81-.24,1.12-.55,1.07-.88,1.49-.04.05-.18.01-.26.02-.05-.04-.09-.09-.13-.14-.09-.09-.18-.19-.27-.29l-.14-.15c-.05-.06-.1-.06-.14-.26-.09-.31-.18-.64-.28-.97q-1.81-6.16-3.61-12.33c-1-3.43-1.38-4.75-1.99-6.86-.82,0-2.14,0-4.27,0-.41,0-.77,0-.98,0,1.22,3.82,1.42,4.44,2.92,9.13q1.96,5.9,3.93,11.82c1.43,4.37,1.33,5.05.96,5.17-.37.12-.8-.39-2.22-4.76-1.93-5.91-2.06-5.87-3.99-11.78-.86-2.62-1.3-4.09-1.71-5.42-.2-.67-.39-1.31-.62-2.04-.3-.96-.65-2.05-1.08-3.43.8,0,1.71,0,2.75,0,2.64,0,4.26,0,5.28,0,.68,2.38,1.11,3.88,2.22,7.76.86,2.99,1.33,4.47,1.8,5.95.23.75.47,1.49.75,2.41.24.82.53,1.8.92,3.1.01.02,0,.06.03.08.01-.02.02-.04.03-.05l.02-.04c.06-.2.12-.4.18-.59.12-.39.24-.77.35-1.14.46-1.48.93-2.97,1.8-5.96,1.69-5.77,1.8-6.18,3.37-11.54.05,0,.67,0,1.34,0,3.18,0,4.96,0,6.36,0-.67,2.07-1.21,3.71-2.42,7.43-1.88,5.92-1.88,5.95-3.76,11.87-1.44,4.45-1.86,5.76-2.88,8.91-.62,0-2.11,0-4.22,0-4.6,0-4.32-.4-4.32-.78s-.28-.77,4.32-.77Z"/>
        <g>
          <path class="cls-3" d="M312.55,23.59c-1.67,0-1.67-.1-3.34-.1-1.66-.02-1.67-.02-3.34-.04-1.67,0-1.67.11-3.34.11-.82,0-1.41,0-1.64,0,0-.75-.01-1.27-.02-1.85,0-.39,0-.82.17-1.5.24-.92.51-1.34.79-1.73.29-.37.58-.76,1.31-1.36.74-.57,1.18-.75,1.6-.94.43-.17.86-.34,1.76-.47.9-.11,1.34-.09,1.79-.08.44.01.9.04,1.79.24.89.25,1.31.5,1.71.75.38.28.8.54,1.39,1.29.56.77.72,1.23.88,1.67.16.44.28.9.33,1.82.02,1.28-.3,1.41-.68,1.42-.39,0-.63-.19-.64-1.38-.04-.76-.16-1.12-.3-1.45-.14-.33-.28-.67-.69-1.22-.42-.54-.72-.75-.99-.98-.29-.21-.6-.43-1.33-.63-.74-.17-1.13-.2-1.52-.23-.39-.02-.79-.05-1.56.04-.77.1-1.12.28-1.45.44-.32.18-.66.35-1.22.78-.55.45-.76.74-.98,1.02-.21.29-.42.6-.61,1.32-.13.53-.13.88-.15,1.2,0,.15,0,.28,0,.48.03,0,.13,0,.26,0q1.67,0,3.34-.02c1.67,0,1.67-.11,3.34-.11,1.67-.02,1.67-.02,3.34-.03,1.23,0,1.16.4,1.16.78s.08.77-1.16.77Z"/>
          <path class="cls-3" d="M316.14,32.84l-.04-.07h0s0,0,0,0c-.13.07-.26.14-.39.2-.56.28-1.06.5-1.53.68-.94.35-1.73.55-2.52.69-.79.14-1.59.21-2.58.24-.97.02-2.22.05-3.82-.43-1.61-.53-2.63-1.52-3.19-2.42-.55-.93-.79-1.76-.92-2.57-.06-.44-.11-.68-.12-1.55,0-.18-.01-.37-.02-.56v-.14s-.03-.12.04-.1h.29c.38,0,.78,0,1.2,0,.96,0,2.1,0,3.63,0,6.1-.05,6.13-.05,12.23-.11.24,0,.46,0,.48,0,0-.94,0-1.67,0-2.3,0-.84,0-1.55-.05-2.22,0-.35-.04-.69-.1-1.06-.05-.36-.08-.76-.19-1.17-.16-.84-.47-1.8-1.04-2.93-.67-1.25-1.41-2.03-2.07-2.6-.65-.59-1.27-.96-1.89-1.3-1.27-.64-2.67-1.2-5.62-1.27-2.95.07-4.37.57-5.68,1.16-.64.32-1.28.67-1.97,1.23-.71.54-1.46,1.32-2.21,2.54-.73,1.23-1.05,2.29-1.26,3.17-.22.88-.28,1.62-.36,2.35-.02.74-.07,1.46-.05,2.43,0,.96-.01,2.11.09,3.57.33,2.93.98,4.27,1.69,5.49.18.31.38.61.63.89.12.15.24.3.37.46.15.14.3.29.46.44.65.61,1.52,1.27,2.86,1.82,2.73,1.01,4.29.92,5.75.94,1.49-.07,3.02-.05,5.88-.77,2.09-.59,3.18-1.17,3.85-1.4.66-.25.87-.21.99-.04.11.16.08.38-.5.86-.58.46-1.72,1.23-3.98,1.86-3.07.77-4.66.76-6.21.85-.78.02-1.58.01-2.58-.09-.99-.13-2.19-.31-3.71-.92-1.52-.61-2.52-1.38-3.27-2.08-.18-.18-.36-.35-.53-.52-.15-.18-.29-.36-.43-.53-.13-.17-.26-.34-.39-.5-.11-.18-.21-.35-.32-.53-.81-1.4-1.51-2.94-1.87-6.08-.12-1.59-.1-2.74-.09-3.69-.01-.95.03-1.74.07-2.53.09-.79.16-1.58.4-2.54.22-.97.58-2.13,1.39-3.53.84-1.38,1.69-2.29,2.49-2.91.78-.65,1.49-1.06,2.21-1.43,1.45-.69,3.03-1.28,6.23-1.36,3.2.06,4.79.66,6.24,1.37.72.38,1.43.79,2.2,1.47.78.65,1.64,1.56,2.42,2.99.67,1.3,1.02,2.39,1.19,3.32.12.46.16.89.21,1.29.06.4.09.78.1,1.16.04.76.04,1.47.03,2.3,0,1.01,0,2.18,0,3.68-.09,0-.9,0-1.79,0q-6.12,0-12.24.02c-1.53,0-2.68.01-3.64.02h-.1s-.03,0-.03,0h-.05s-.02.05-.02.07c.04.26.07.5.11.74.13.69.34,1.35.77,2.05.45.68,1.16,1.39,2.45,1.83,1.32.4,2.4.38,3.33.35.92-.04,1.64-.13,2.35-.26.71-.14,1.41-.33,2.25-.66.42-.17.88-.37,1.39-.63.14-.07.28-.15.43-.23.28-.16.56-.31.86-.48l.22-.12.11-.06s.08-.05.09.01c.09.15.17.3.26.46.17.29.34.59.51.9,2.24,3.93,1.76,3.88,1.43,4.08-.34.19-.53.62-2.77-3.3Z"/>
        </g>
      </g>
      <g>
        <line class="cls-2" x1="336.43" y1="25.21" x2="471.41" y2="25.21"/>
        <g>
          <polyline class="cls-1" points="458.53 25.21 457.41 25.21 337.37 25.21 336.43 25.21"/>
          <polygon class="cls-2" points="469.37 25.21 458.53 22.47 458.53 27.96 469.37 25.21"/>
        </g>
      </g>
    </g>
  </g>
</svg>